M48
INCH,TZ
T1C0.015
T2C0.031
T3C0.032
T4C0.039
T5C0.039
T6C0.040
T7C0.047
T8C0.051
T9C0.059
T10C0.059
T11C0.108
T12C0.124
%
G90
G05
T1
X47421Y-25600
X47835Y-25197
X48701Y-25197
X49075Y-24843
X49231Y-24311
X60768Y-33957
X61093Y-34825
X61486Y-32943
X62848Y-32892
X62848Y-34825
X62992Y-27657
X64724Y-34734
X64764Y-32923
X65415Y-26793
T2
X52933Y-43268
X52933Y-45236
X53150Y-26055
X53150Y-29055
X53150Y-33661
X53150Y-34661
X53150Y-35661
X54150Y-26055
X54150Y-29055
X55150Y-26055
X55150Y-29055
X56150Y-26055
X56150Y-29055
X57150Y-26055
X57150Y-29055
X58150Y-26055
X58150Y-29055
X59150Y-26055
X59150Y-29055
X60150Y-26055
X60150Y-29055
X61496Y-41398
X62480Y-41398
T3
X67008Y-26811
X67008Y-27811
X67008Y-32323
X67008Y-33323
X67008Y-34323
X68008Y-27311
X68008Y-28311
X68008Y-31823
X68008Y-32823
X68008Y-33823
T4
X63583Y-28398
X63583Y-29398
T5
X54195Y-38014
X54195Y-41014
T6
X48583Y-26575
X48583Y-27575
X49791Y-22571
X49791Y-23571
X50791Y-22571
X50791Y-23571
X51400Y-31600
X51791Y-22571
X51791Y-23571
X52400Y-31600
X52791Y-22571
X52791Y-23571
X53400Y-31600
X53791Y-22571
X53791Y-23571
X54791Y-22571
X54791Y-23571
X55791Y-22571
X55791Y-23571
X56791Y-22571
X56791Y-23571
X57791Y-22571
X57791Y-23571
X58791Y-22571
X58791Y-23571
X59791Y-22571
X59791Y-23571
X60791Y-22571
X60791Y-23571
X61791Y-22571
X61791Y-23571
X62791Y-22571
X62791Y-23571
X63791Y-22571
X63791Y-23571
X64791Y-22571
X64791Y-23571
X65791Y-22571
X65791Y-23571
X66791Y-22571
X66791Y-23571
X67791Y-22571
X67791Y-23571
X68791Y-22571
X68791Y-23571
T7
X57067Y-46102
X57736Y-47283
X58445Y-46102
X59154Y-47283
X59823Y-46102
T8
X65236Y-47874
X67205Y-47874
T9
X58839Y-44349
X64839Y-44349
X67521Y-38977
X67521Y-44977
T10
X65236Y-49173
X67205Y-49173
T11
X47878Y-23075
X47878Y-42370
X47878Y-49016
X70669Y-49016
X70713Y-23075
X70713Y-42366
T12
X70512Y-26059
X70512Y-29059
X70512Y-31071
X70512Y-35071
T0
M30
