G04 #@! TF.FileFunction,Copper,L1,Top,Signal*
%FSLAX46Y46*%
G04 Gerber Fmt 4.6, Leading zero omitted, Abs format (unit mm)*
G04 Created by KiCad (PCBNEW 4.0.2+dfsg1-2~bpo8+1-stable) date Sat 10 Dec 2016 13:59:47 GMT*
%MOMM*%
G01*
G04 APERTURE LIST*
%ADD10C,0.100000*%
%ADD11O,1.600000X1.600000*%
%ADD12R,1.600000X2.000000*%
%ADD13R,0.600000X1.950000*%
%ADD14R,1.300000X1.300000*%
%ADD15C,1.300000*%
%ADD16O,1.800860X2.499360*%
%ADD17R,2.000000X1.600000*%
%ADD18O,3.014980X1.506220*%
%ADD19C,1.998980*%
%ADD20R,2.032000X2.032000*%
%ADD21O,2.032000X2.032000*%
%ADD22R,1.727200X2.032000*%
%ADD23O,1.727200X2.032000*%
%ADD24C,1.524000*%
%ADD25R,2.000000X1.700000*%
%ADD26R,1.700000X2.000000*%
%ADD27R,0.600000X1.550000*%
%ADD28R,1.727200X1.727200*%
%ADD29O,1.727200X1.727200*%
%ADD30C,2.000000*%
%ADD31C,2.540000*%
%ADD32R,2.540000X2.540000*%
%ADD33C,0.762000*%
%ADD34C,1.270000*%
%ADD35C,0.609600*%
%ADD36C,0.203200*%
%ADD37C,0.254000*%
%ADD38C,2.540000*%
%ADD39C,1.540000*%
%ADD40C,1.274000*%
%ADD41C,0.762000*%
%ADD42C,0.304800*%
%ADD43C,1.524000*%
%ADD44C,2.032000*%
G04 APERTURE END LIST*
D10*
D11*
X135000000Y-73800000D03*
X137540000Y-73800000D03*
X140080000Y-73800000D03*
X142620000Y-73800000D03*
X145160000Y-73800000D03*
X147700000Y-73800000D03*
X150240000Y-73800000D03*
X152780000Y-73800000D03*
X152780000Y-66180000D03*
X150240000Y-66180000D03*
X147700000Y-66180000D03*
X145160000Y-66180000D03*
X142620000Y-66180000D03*
X140080000Y-66180000D03*
X137540000Y-66180000D03*
X135000000Y-66180000D03*
D12*
X150750000Y-90250000D03*
X150750000Y-86250000D03*
D13*
X153285000Y-90700000D03*
X154555000Y-90700000D03*
X155825000Y-90700000D03*
X157095000Y-90700000D03*
X158365000Y-90700000D03*
X159635000Y-90700000D03*
X160905000Y-90700000D03*
X162175000Y-90700000D03*
X163445000Y-90700000D03*
X164715000Y-90700000D03*
X164715000Y-81300000D03*
X163445000Y-81300000D03*
X162175000Y-81300000D03*
X160905000Y-81300000D03*
X159635000Y-81300000D03*
X158365000Y-81300000D03*
X157095000Y-81300000D03*
X155825000Y-81300000D03*
X154555000Y-81300000D03*
X153285000Y-81300000D03*
D12*
X160000000Y-68500000D03*
X160000000Y-64500000D03*
D14*
X134450000Y-109900000D03*
D15*
X134450000Y-114900000D03*
X158700000Y-105150000D03*
D14*
X156200000Y-105150000D03*
D16*
X148450000Y-117100160D03*
X151950120Y-117100160D03*
X144949880Y-117100160D03*
X146649140Y-120099900D03*
X150250860Y-120099900D03*
D17*
X135400000Y-76200000D03*
X139400000Y-76200000D03*
X142100000Y-76200000D03*
X146100000Y-76200000D03*
X138200000Y-63800000D03*
X134200000Y-63800000D03*
D12*
X131200000Y-67800000D03*
X131200000Y-71800000D03*
D17*
X152800000Y-76200000D03*
X148800000Y-76200000D03*
D12*
X148250000Y-90250000D03*
X148250000Y-86250000D03*
D18*
X161500000Y-74670000D03*
X161500000Y-72130000D03*
D19*
X137655000Y-96555000D03*
X137655000Y-104175000D03*
D20*
X123400000Y-67500000D03*
D21*
X123400000Y-70040000D03*
D22*
X135636000Y-80264000D03*
D23*
X133096000Y-80264000D03*
X130556000Y-80264000D03*
D24*
X135000000Y-88040000D03*
X135000000Y-90580000D03*
X135000000Y-85500000D03*
D25*
X127286000Y-76962000D03*
X131286000Y-76962000D03*
D26*
X157600000Y-64500000D03*
X157600000Y-68500000D03*
X139500000Y-86000000D03*
X139500000Y-90000000D03*
X142500000Y-90000000D03*
X142500000Y-86000000D03*
D25*
X126500000Y-90575000D03*
X130500000Y-90575000D03*
D26*
X146180000Y-108080000D03*
X146180000Y-112080000D03*
X141850000Y-112070000D03*
X141850000Y-116070000D03*
D27*
X162345000Y-69450000D03*
X163615000Y-69450000D03*
X164885000Y-69450000D03*
X166155000Y-69450000D03*
X166155000Y-64050000D03*
X164885000Y-64050000D03*
X163615000Y-64050000D03*
X162345000Y-64050000D03*
D28*
X126470000Y-59870000D03*
D29*
X126470000Y-57330000D03*
X129010000Y-59870000D03*
X129010000Y-57330000D03*
X131550000Y-59870000D03*
X131550000Y-57330000D03*
X134090000Y-59870000D03*
X134090000Y-57330000D03*
X136630000Y-59870000D03*
X136630000Y-57330000D03*
X139170000Y-59870000D03*
X139170000Y-57330000D03*
X141710000Y-59870000D03*
X141710000Y-57330000D03*
X144250000Y-59870000D03*
X144250000Y-57330000D03*
X146790000Y-59870000D03*
X146790000Y-57330000D03*
X149330000Y-59870000D03*
X149330000Y-57330000D03*
X151870000Y-59870000D03*
X151870000Y-57330000D03*
X154410000Y-59870000D03*
X154410000Y-57330000D03*
X156950000Y-59870000D03*
X156950000Y-57330000D03*
X159490000Y-59870000D03*
X159490000Y-57330000D03*
X162030000Y-59870000D03*
X162030000Y-57330000D03*
X164570000Y-59870000D03*
X164570000Y-57330000D03*
X167110000Y-59870000D03*
X167110000Y-57330000D03*
X169650000Y-59870000D03*
X169650000Y-57330000D03*
X172190000Y-59870000D03*
X172190000Y-57330000D03*
X174730000Y-59870000D03*
X174730000Y-57330000D03*
D17*
X156200000Y-117150000D03*
X160200000Y-117150000D03*
D24*
X170200000Y-84640000D03*
X170200000Y-82100000D03*
X170200000Y-87180000D03*
X172740000Y-80830000D03*
X172740000Y-83370000D03*
X172740000Y-85910000D03*
D30*
X165700000Y-121600000D03*
X170700000Y-121600000D03*
D24*
X172740000Y-69370000D03*
X172740000Y-71910000D03*
X170200000Y-70640000D03*
X170200000Y-68100000D03*
D31*
X171502960Y-114241220D03*
D32*
X171502960Y-99001220D03*
D31*
X164691220Y-112647040D03*
D32*
X149451220Y-112647040D03*
D33*
X156175000Y-83675000D03*
X155175000Y-88455000D03*
X164400000Y-88225000D03*
X164500000Y-83625000D03*
X159635000Y-83545000D03*
X159635000Y-88455000D03*
X154350000Y-86250000D03*
X160000000Y-70250000D03*
X166155000Y-68055000D03*
X120450000Y-65025000D03*
X124650000Y-63100000D03*
X123700000Y-64000000D03*
X121500000Y-64000000D03*
X125047599Y-61749601D03*
D34*
X148450000Y-119110000D02*
X148450000Y-121900000D01*
X148450000Y-117100160D02*
X148450000Y-119110000D01*
X148450000Y-119110000D02*
X148461420Y-119121420D01*
D35*
X144949880Y-117100160D02*
X142880160Y-117100160D01*
X142880160Y-117100160D02*
X141850000Y-116070000D01*
D34*
X154350000Y-86250000D02*
X154350000Y-85500000D01*
X154350000Y-85500000D02*
X156175000Y-83675000D01*
X159635000Y-88455000D02*
X155175000Y-88455000D01*
X155175000Y-88455000D02*
X154480000Y-88455000D01*
X164500000Y-83625000D02*
X164500000Y-88125000D01*
X164500000Y-88125000D02*
X164400000Y-88225000D01*
X159635000Y-81300000D02*
X159635000Y-83545000D01*
X159635000Y-83545000D02*
X159650000Y-83560000D01*
X159635000Y-90700000D02*
X159635000Y-88455000D01*
X159635000Y-88455000D02*
X159640000Y-88450000D01*
X150750000Y-86250000D02*
X154350000Y-86250000D01*
X148250000Y-86250000D02*
X150750000Y-86250000D01*
D35*
X160000000Y-68500000D02*
X160000000Y-70250000D01*
X166155000Y-69450000D02*
X166155000Y-68055000D01*
X131200000Y-67800000D02*
X135920000Y-67800000D01*
X135920000Y-67800000D02*
X137540000Y-66180000D01*
X137540000Y-66180000D02*
X137540000Y-64460000D01*
X137540000Y-64460000D02*
X138200000Y-63800000D01*
D36*
X152780000Y-73800000D02*
X152780000Y-76180000D01*
X152780000Y-76180000D02*
X152800000Y-76200000D01*
D34*
X135000000Y-88040000D02*
X133922370Y-88040000D01*
X133922370Y-88040000D02*
X130300000Y-84417630D01*
X130300000Y-84417630D02*
X130300000Y-82750000D01*
X128475000Y-82750000D02*
X130300000Y-82750000D01*
X130300000Y-82750000D02*
X132950000Y-82750000D01*
X130556000Y-82550000D02*
X130356000Y-82750000D01*
X130556000Y-80264000D02*
X130556000Y-82550000D01*
X130356000Y-82750000D02*
X130300000Y-82750000D01*
X132950000Y-82750000D02*
X135100000Y-82750000D01*
X135100000Y-82750000D02*
X137250000Y-82750000D01*
X135000000Y-82850000D02*
X135100000Y-82750000D01*
X137250000Y-82750000D02*
X139500000Y-82750000D01*
X139500000Y-82750000D02*
X141250000Y-82750000D01*
X139500000Y-86000000D02*
X139500000Y-83730000D01*
X139500000Y-83730000D02*
X139500000Y-82750000D01*
X124968000Y-72898000D02*
X124206000Y-73660000D01*
X124206000Y-73660000D02*
X124206000Y-80806000D01*
X126150000Y-82750000D02*
X128475000Y-82750000D01*
X124206000Y-80806000D02*
X126150000Y-82750000D01*
X146790000Y-59870000D02*
X149150000Y-62230000D01*
X149150000Y-62230000D02*
X153210000Y-62230000D01*
X157600000Y-64500000D02*
X155480000Y-64500000D01*
X155480000Y-64500000D02*
X153210000Y-62230000D01*
X130556000Y-80264000D02*
X130556000Y-80416400D01*
X129496000Y-63754000D02*
X127508000Y-65742000D01*
X127508000Y-65742000D02*
X127508000Y-70358000D01*
X127508000Y-70358000D02*
X124968000Y-72898000D01*
X127286000Y-76962000D02*
X127286000Y-74842000D01*
X127286000Y-74842000D02*
X125342000Y-72898000D01*
X125342000Y-72898000D02*
X124968000Y-72898000D01*
X160000000Y-64500000D02*
X161895000Y-64500000D01*
X161895000Y-64500000D02*
X162345000Y-64050000D01*
X157600000Y-64500000D02*
X160000000Y-64500000D01*
X126470000Y-59870000D02*
X126470000Y-60728000D01*
X126470000Y-60728000D02*
X129496000Y-63754000D01*
X134200000Y-63800000D02*
X132634000Y-63800000D01*
X132634000Y-63800000D02*
X132588000Y-63754000D01*
X132588000Y-63754000D02*
X129496000Y-63754000D01*
D35*
X135000000Y-66180000D02*
X135000000Y-64600000D01*
X135000000Y-64600000D02*
X134200000Y-63800000D01*
D34*
X142500000Y-86000000D02*
X142500000Y-84000000D01*
X142500000Y-84000000D02*
X141250000Y-82750000D01*
D37*
X134960000Y-88000000D02*
X135000000Y-88040000D01*
D36*
X135000000Y-73800000D02*
X135000000Y-75800000D01*
X135000000Y-75800000D02*
X135400000Y-76200000D01*
X140080000Y-73800000D02*
X140080000Y-75520000D01*
X140080000Y-75520000D02*
X139400000Y-76200000D01*
X142620000Y-73800000D02*
X142620000Y-75680000D01*
X142620000Y-75680000D02*
X142100000Y-76200000D01*
X145160000Y-73800000D02*
X146100000Y-74740000D01*
X146100000Y-74740000D02*
X146100000Y-76200000D01*
D35*
X131200000Y-71800000D02*
X135540000Y-71800000D01*
X135540000Y-71800000D02*
X137540000Y-73800000D01*
D36*
X147700000Y-73800000D02*
X148800000Y-74900000D01*
X148800000Y-74900000D02*
X148800000Y-76200000D01*
X148904317Y-76855601D02*
X148904317Y-76845683D01*
D38*
X171502960Y-99001220D02*
X171502960Y-88482960D01*
D39*
X171502960Y-88482960D02*
X170200000Y-87180000D01*
D40*
X154555000Y-90700000D02*
X153285000Y-90700000D01*
X153285000Y-90700000D02*
X151200000Y-90700000D01*
X151200000Y-90700000D02*
X150750000Y-90250000D01*
D38*
X156200000Y-105150000D02*
X156200000Y-100467000D01*
X156200000Y-100467000D02*
X157665780Y-99001220D01*
X157665780Y-99001220D02*
X171502960Y-99001220D01*
X156200000Y-117150000D02*
X156200000Y-108300000D01*
X156200000Y-108300000D02*
X156200000Y-106431402D01*
X156200000Y-105150000D02*
X156200000Y-108300000D01*
X156144999Y-106376401D02*
X156144999Y-103425000D01*
X156144999Y-103425000D02*
X156144999Y-100522001D01*
X156144999Y-100522001D02*
X157665780Y-99001220D01*
X156200000Y-103480001D02*
X156144999Y-103425000D01*
X156200000Y-105150000D02*
X156200000Y-103480001D01*
X150750000Y-93790000D02*
X151900000Y-94940000D01*
X151900000Y-94940000D02*
X155961220Y-99001220D01*
X155961220Y-99001220D02*
X157665780Y-99001220D01*
D41*
X152052000Y-94940000D02*
X151900000Y-94940000D01*
X151932000Y-93790000D02*
X150750000Y-93790000D01*
D38*
X150750000Y-90250000D02*
X150750000Y-93790000D01*
X148250000Y-90250000D02*
X150750000Y-90250000D01*
X157665780Y-99001220D02*
X171502960Y-99001220D01*
X156200000Y-106431402D02*
X156144999Y-106376401D01*
X156200000Y-117150000D02*
X152510510Y-117150000D01*
X152510510Y-117150000D02*
X152460670Y-117100160D01*
D42*
X171500000Y-98998260D02*
X171502960Y-99001220D01*
X151999960Y-117150000D02*
X151950120Y-117100160D01*
D34*
X126500000Y-90575000D02*
X120421000Y-90575000D01*
X120421000Y-90575000D02*
X120396000Y-90600000D01*
D43*
X120396000Y-92500000D02*
X120396000Y-90600000D01*
X120396000Y-90600000D02*
X120396000Y-88200000D01*
X134450000Y-109900000D02*
X138590000Y-109900000D01*
X138590000Y-109900000D02*
X140410000Y-108080000D01*
X140410000Y-108080000D02*
X146180000Y-108080000D01*
X120396000Y-71204000D02*
X120396000Y-70000000D01*
X120396000Y-70000000D02*
X120396000Y-65104000D01*
D34*
X121963160Y-70040000D02*
X121923160Y-70000000D01*
X123400000Y-70040000D02*
X121963160Y-70040000D01*
X121923160Y-70000000D02*
X120396000Y-70000000D01*
D43*
X120396000Y-88200000D02*
X120396000Y-71204000D01*
D35*
X125047599Y-61749601D02*
X125047599Y-58752401D01*
X125047599Y-58752401D02*
X126470000Y-57330000D01*
D43*
X120450000Y-65025000D02*
X120475000Y-65025000D01*
X120475000Y-65025000D02*
X121500000Y-64000000D01*
D34*
X120462500Y-65037500D02*
X120396000Y-65104000D01*
X120450000Y-65025000D02*
X120462500Y-65037500D01*
D43*
X123700000Y-64000000D02*
X124650000Y-63100000D01*
X121500000Y-64000000D02*
X123700000Y-64000000D01*
X124650000Y-63100000D02*
X125047599Y-61749601D01*
X120396000Y-100690238D02*
X120396000Y-92500000D01*
X129010000Y-57330000D02*
X126470000Y-57330000D01*
D36*
X129010000Y-57330000D02*
X128682000Y-57658000D01*
X128682000Y-57658000D02*
X128651000Y-57658000D01*
D43*
X129605762Y-109900000D02*
X120396000Y-100690238D01*
X134450000Y-109900000D02*
X134450000Y-107380000D01*
X134450000Y-107380000D02*
X137655000Y-104175000D01*
X134450000Y-109900000D02*
X129605762Y-109900000D01*
D37*
X129010000Y-57330000D02*
X129010000Y-57790000D01*
D36*
X126470000Y-57330000D02*
X126170000Y-57330000D01*
X129010000Y-57330000D02*
X128920000Y-57330000D01*
D44*
X170700000Y-115044180D02*
X171502960Y-114241220D01*
X170700000Y-121600000D02*
X170700000Y-115044180D01*
D43*
X149451220Y-112647040D02*
X149450000Y-98150000D01*
X149450000Y-98150000D02*
X147450229Y-96598677D01*
X147450229Y-96598677D02*
X137655000Y-96555000D01*
D35*
X150250860Y-120099900D02*
X150250860Y-114950860D01*
X150250860Y-114950860D02*
X149451220Y-114151220D01*
X149451220Y-114151220D02*
X149451220Y-112647040D01*
D42*
X150200000Y-120150000D02*
X150250860Y-120099900D01*
X149151640Y-112349900D02*
X149452960Y-112651220D01*
D37*
X134090000Y-57330000D02*
X135385399Y-58625399D01*
X146518999Y-67361001D02*
X147700000Y-66180000D01*
X135385399Y-58625399D02*
X135385399Y-60467409D01*
X135385399Y-60467409D02*
X136639990Y-61722000D01*
X136639990Y-61722000D02*
X142240000Y-61722000D01*
X142240000Y-61722000D02*
X143978999Y-63460999D01*
X143978999Y-63460999D02*
X143978999Y-66746881D01*
X143978999Y-66746881D02*
X144593119Y-67361001D01*
X144593119Y-67361001D02*
X146518999Y-67361001D01*
X145160000Y-66180000D02*
X145160000Y-63372000D01*
X143005399Y-59272591D02*
X142307409Y-58574601D01*
X142307409Y-58574601D02*
X137874601Y-58574601D01*
X137874601Y-58574601D02*
X136630000Y-57330000D01*
X145160000Y-63372000D02*
X143005399Y-61217399D01*
X143005399Y-61217399D02*
X143005399Y-59272591D01*
D36*
X164715000Y-90700000D02*
X164715000Y-92215000D01*
X164715000Y-92215000D02*
X165225000Y-92725000D01*
X166025000Y-92475000D02*
X166025000Y-81225000D01*
X165225000Y-92725000D02*
X165775000Y-92725000D01*
X165775000Y-92725000D02*
X166025000Y-92475000D01*
X166025000Y-81225000D02*
X170750000Y-76500000D01*
X175949201Y-61249201D02*
X175949201Y-58549201D01*
X170750000Y-76500000D02*
X174600000Y-76500000D01*
X174600000Y-76500000D02*
X177119399Y-73980601D01*
X177119399Y-73980601D02*
X177119399Y-72859311D01*
X177119399Y-72859311D02*
X177108878Y-72848790D01*
X175949201Y-58549201D02*
X175593599Y-58193599D01*
X175593599Y-58193599D02*
X174730000Y-57330000D01*
X177108878Y-72848790D02*
X177108878Y-62408878D01*
X177108878Y-62408878D02*
X175949201Y-61249201D01*
X175260000Y-57860000D02*
X174730000Y-57330000D01*
X162175000Y-81300000D02*
X162175000Y-79625000D01*
X162175000Y-79625000D02*
X162989422Y-78810578D01*
X174056691Y-74907245D02*
X175737245Y-73226691D01*
X162989422Y-78810578D02*
X164561709Y-78810578D01*
X164561709Y-78810578D02*
X168330869Y-75075945D01*
X168330869Y-75075945D02*
X168499570Y-74907245D01*
X168499570Y-74907245D02*
X174056691Y-74907245D01*
X175737245Y-65221663D02*
X170900000Y-60384418D01*
X175737245Y-73226691D02*
X175737245Y-65221663D01*
X170900000Y-60384418D02*
X170900000Y-58580000D01*
X170900000Y-58580000D02*
X170513599Y-58193599D01*
X170513599Y-58193599D02*
X169650000Y-57330000D01*
X174300000Y-75400000D02*
X176194456Y-73505544D01*
X176194456Y-73505544D02*
X176194456Y-63874456D01*
X164614081Y-79403407D02*
X164732040Y-79285448D01*
X163846593Y-79403407D02*
X164614081Y-79403407D01*
X168653407Y-75400000D02*
X174300000Y-75400000D01*
X163445000Y-79805000D02*
X163846593Y-79403407D01*
X163445000Y-81300000D02*
X163445000Y-79805000D01*
X164732040Y-79285448D02*
X168653407Y-75400000D01*
X176194456Y-63874456D02*
X173053599Y-60733599D01*
X173053599Y-60733599D02*
X172190000Y-59870000D01*
X163445000Y-81300000D02*
X163445000Y-80625000D01*
X157095000Y-81300000D02*
X157095000Y-80030000D01*
X168008321Y-74751900D02*
X168310188Y-74450034D01*
X175280034Y-65500034D02*
X170513599Y-60733599D01*
X157095000Y-80030000D02*
X158771633Y-78353367D01*
X158771633Y-78353367D02*
X164373556Y-78353367D01*
X164373556Y-78353367D02*
X168008321Y-74751900D01*
X168310188Y-74450034D02*
X173867309Y-74450034D01*
X170513599Y-60733599D02*
X169650000Y-59870000D01*
X173867309Y-74450034D02*
X175280034Y-73037309D01*
X175280034Y-73037309D02*
X175280034Y-65500034D01*
D37*
X168952010Y-59870000D02*
X169650000Y-59870000D01*
D36*
X155825000Y-81300000D02*
X155825000Y-79725000D01*
X155825000Y-79725000D02*
X157653844Y-77896156D01*
X157653844Y-77896156D02*
X164185404Y-77896156D01*
X164185404Y-77896156D02*
X167685704Y-74427924D01*
X167685704Y-74427924D02*
X168120806Y-73992823D01*
X168120806Y-73992823D02*
X173677927Y-73992823D01*
X173677927Y-73992823D02*
X174822823Y-72847927D01*
X174822823Y-72847927D02*
X174822823Y-66779638D01*
X174822823Y-66779638D02*
X167913185Y-59870000D01*
X167913185Y-59870000D02*
X167110000Y-59870000D01*
D37*
X166155000Y-64050000D02*
X166155000Y-62955000D01*
X166155000Y-62955000D02*
X164822611Y-61622611D01*
X164822611Y-61622611D02*
X161242611Y-61622611D01*
X161242611Y-61622611D02*
X159490000Y-59870000D01*
X164885000Y-64050000D02*
X164885000Y-62935000D01*
X164885000Y-62935000D02*
X164080621Y-62130621D01*
X164080621Y-62130621D02*
X159908611Y-62130621D01*
X159908611Y-62130621D02*
X158245399Y-60467409D01*
X158245399Y-60467409D02*
X158245399Y-58574601D01*
X158245399Y-58574601D02*
X159490000Y-57330000D01*
X131286000Y-76962000D02*
X132540000Y-76962000D01*
X132540000Y-76962000D02*
X133810000Y-78232000D01*
X133810000Y-78232000D02*
X133858000Y-78232000D01*
X131436000Y-76962000D02*
X131286000Y-76962000D01*
X133096000Y-80264000D02*
X133096000Y-78994000D01*
X133096000Y-78994000D02*
X133858000Y-78232000D01*
X142553802Y-78232000D02*
X143978999Y-76806803D01*
X139581001Y-64904801D02*
X139581001Y-62695199D01*
X133858000Y-78232000D02*
X142553802Y-78232000D01*
X143978999Y-72297433D02*
X138898999Y-67217433D01*
X143978999Y-76806803D02*
X143978999Y-72297433D01*
X138898999Y-65586803D02*
X139581001Y-64904801D01*
X138898999Y-67217433D02*
X138898999Y-65586803D01*
X139581001Y-62695199D02*
X139115812Y-62230010D01*
X139115812Y-62230010D02*
X135228696Y-62230010D01*
X135228696Y-62230010D02*
X134090000Y-61091314D01*
X134090000Y-61091314D02*
X134090000Y-59870000D01*
X134090000Y-59870000D02*
X133392010Y-59870000D01*
D36*
X172190000Y-57330000D02*
X173450000Y-58590000D01*
X164700000Y-80000000D02*
X164700000Y-81300000D01*
X164700000Y-81300000D02*
X164715000Y-81300000D01*
X173450000Y-58590000D02*
X173450000Y-60394418D01*
X173450000Y-60394418D02*
X176651667Y-63596085D01*
X176651667Y-63596085D02*
X176651667Y-73748333D01*
X176651667Y-73748333D02*
X174500000Y-75900000D01*
X174500000Y-75900000D02*
X168800000Y-75900000D01*
X168800000Y-75900000D02*
X164700000Y-80000000D01*
D37*
X171492010Y-57330000D02*
X172190000Y-57330000D01*
X137000000Y-87500000D02*
X135000000Y-85500000D01*
X137000000Y-89300000D02*
X137000000Y-87500000D01*
X137700000Y-90000000D02*
X137000000Y-89300000D01*
X139500000Y-90000000D02*
X137700000Y-90000000D01*
X141508010Y-87841990D02*
X143558010Y-87841990D01*
X139500000Y-90000000D02*
X139500000Y-89850000D01*
X154943665Y-76956335D02*
X163798649Y-76956335D01*
X167022637Y-73761884D02*
X167731520Y-73053001D01*
X143558010Y-87841990D02*
X144300000Y-87100000D01*
X144300000Y-87100000D02*
X144300000Y-83100000D01*
X163972591Y-61114601D02*
X163325399Y-60467409D01*
X144300000Y-83100000D02*
X148500000Y-78900000D01*
X139500000Y-89850000D02*
X141508010Y-87841990D01*
X148500000Y-78900000D02*
X153000000Y-78900000D01*
X153000000Y-78900000D02*
X154943665Y-76956335D01*
X166500000Y-62400000D02*
X165214601Y-61114601D01*
X163798649Y-76956335D02*
X167022637Y-73761884D01*
X167731520Y-73053001D02*
X173288641Y-73053001D01*
X173288641Y-73053001D02*
X173883001Y-72458641D01*
X173883001Y-72458641D02*
X173883001Y-67383001D01*
X165214601Y-61114601D02*
X163972591Y-61114601D01*
X173883001Y-67383001D02*
X168900000Y-62400000D01*
X163325399Y-60467409D02*
X163325399Y-58574601D01*
X163325399Y-58574601D02*
X163706401Y-58193599D01*
X163706401Y-58193599D02*
X164570000Y-57330000D01*
X168900000Y-62400000D02*
X166500000Y-62400000D01*
D36*
X139500000Y-90000000D02*
X139500000Y-89900000D01*
D37*
X142500000Y-90000000D02*
X142500000Y-88625000D01*
X153285000Y-82740000D02*
X153285000Y-81300000D01*
X142500000Y-88625000D02*
X142775000Y-88350000D01*
X145975000Y-83150000D02*
X152875000Y-83150000D01*
X142775000Y-88350000D02*
X144150000Y-88350000D01*
X144150000Y-88350000D02*
X144900000Y-87600000D01*
X144900000Y-87600000D02*
X144900000Y-84225000D01*
X144900000Y-84225000D02*
X145975000Y-83150000D01*
X152875000Y-83150000D02*
X153285000Y-82740000D01*
D36*
X153285000Y-81300000D02*
X153285000Y-79665000D01*
X153285000Y-79665000D02*
X155511055Y-77438945D01*
X155511055Y-77438945D02*
X163997253Y-77438945D01*
X163997253Y-77438945D02*
X167363086Y-74103949D01*
X167363086Y-74103949D02*
X167931424Y-73535612D01*
X167931424Y-73535612D02*
X173488545Y-73535612D01*
X173488545Y-73535612D02*
X174365612Y-72658545D01*
X174365612Y-72658545D02*
X174365612Y-67036622D01*
X174365612Y-67036622D02*
X168418191Y-61089201D01*
X168418191Y-61089201D02*
X165871715Y-61089201D01*
X165871715Y-61089201D02*
X164652514Y-59870000D01*
X164652514Y-59870000D02*
X164570000Y-59870000D01*
D37*
X161500000Y-74670000D02*
X159738510Y-74670000D01*
X159738510Y-74670000D02*
X157600000Y-72531490D01*
X157600000Y-72531490D02*
X157600000Y-68500000D01*
X161500000Y-72130000D02*
X166420000Y-72130000D01*
X166420000Y-72130000D02*
X167750000Y-70800000D01*
X167750000Y-70800000D02*
X167750000Y-68250000D01*
X166600000Y-67100000D02*
X165250000Y-67100000D01*
X167750000Y-68250000D02*
X166600000Y-67100000D01*
X165250000Y-67100000D02*
X163600000Y-65450000D01*
X163600000Y-65450000D02*
X163600000Y-64050000D01*
X163600000Y-64050000D02*
X163615000Y-64050000D01*
X169438001Y-68861999D02*
X170200000Y-68100000D01*
X168291989Y-70008011D02*
X169438001Y-68861999D01*
X163477444Y-75804120D02*
X168291989Y-70989575D01*
X158604120Y-75804120D02*
X163477444Y-75804120D01*
X168291989Y-70989575D02*
X168291989Y-70008011D01*
X142620000Y-66180000D02*
X145031989Y-68591989D01*
X145031989Y-68591989D02*
X151391990Y-68591990D01*
X151391990Y-68591990D02*
X158604120Y-75804120D01*
X169778358Y-69370000D02*
X168800000Y-70348358D01*
X172740000Y-69370000D02*
X169778358Y-69370000D01*
X168800000Y-70348358D02*
X168800000Y-71200000D01*
X168800000Y-71200000D02*
X163600000Y-76400000D01*
X151000000Y-69100000D02*
X143000000Y-69100000D01*
X158300000Y-76400000D02*
X151000000Y-69100000D01*
X163600000Y-76400000D02*
X158300000Y-76400000D01*
X143000000Y-69100000D02*
X140080000Y-66180000D01*
D42*
X162175000Y-90700000D02*
X162175000Y-93375000D01*
X162175000Y-93375000D02*
X163350000Y-94550000D01*
X163350000Y-94550000D02*
X166300000Y-94550000D01*
X166300000Y-94550000D02*
X167500000Y-93350000D01*
X167500000Y-93350000D02*
X167500000Y-85000000D01*
X167500000Y-85000000D02*
X169130000Y-83370000D01*
X169130000Y-83370000D02*
X171662370Y-83370000D01*
X171662370Y-83370000D02*
X172740000Y-83370000D01*
X159896000Y-96000000D02*
X167150000Y-96000000D01*
X155825000Y-90700000D02*
X155825000Y-91929000D01*
X169031599Y-94118401D02*
X169031599Y-87675293D01*
X155825000Y-91929000D02*
X159896000Y-96000000D01*
X167150000Y-96000000D02*
X169031599Y-94118401D01*
X169590000Y-85910000D02*
X171662370Y-85910000D01*
X169031599Y-87675293D02*
X169023592Y-87667286D01*
X169023592Y-87667286D02*
X169023592Y-86476408D01*
X169023592Y-86476408D02*
X169590000Y-85910000D01*
X171662370Y-85910000D02*
X172740000Y-85910000D01*
X170200000Y-84640000D02*
X169122370Y-84640000D01*
X169122370Y-84640000D02*
X168250000Y-85512370D01*
X160316000Y-95150000D02*
X157095000Y-91929000D01*
X168250000Y-85512370D02*
X168250000Y-93500000D01*
X168250000Y-93500000D02*
X166600000Y-95150000D01*
X166600000Y-95150000D02*
X160316000Y-95150000D01*
X157095000Y-91929000D02*
X157095000Y-90700000D01*
X163445000Y-90700000D02*
X163445000Y-92745000D01*
X163445000Y-92745000D02*
X164450000Y-93750000D01*
X164450000Y-93750000D02*
X165950000Y-93750000D01*
X165950000Y-93750000D02*
X166750000Y-92950000D01*
X166750000Y-92950000D02*
X166750000Y-84250000D01*
X166750000Y-84250000D02*
X168900000Y-82100000D01*
D37*
X168900000Y-82100000D02*
X170200000Y-82100000D01*
D36*
X146180000Y-112080000D02*
X146180000Y-114020000D01*
X146180000Y-114020000D02*
X146649140Y-114489140D01*
X146649140Y-114489140D02*
X146649140Y-120099900D01*
D43*
X146180000Y-112080000D02*
X141860000Y-112080000D01*
D36*
X141860000Y-112080000D02*
X141850000Y-112070000D01*
D37*
X135000000Y-90580000D02*
X136420000Y-92000000D01*
X136420000Y-92000000D02*
X142900000Y-92000000D01*
X145500000Y-89400000D02*
X145500000Y-85200000D01*
X142900000Y-92000000D02*
X145500000Y-89400000D01*
X146617390Y-84082610D02*
X146689381Y-84082610D01*
X145500000Y-85200000D02*
X146617390Y-84082610D01*
X146689381Y-84082610D02*
X146689381Y-84035619D01*
X146689381Y-84035619D02*
X146975000Y-83750000D01*
X154555000Y-82720000D02*
X154555000Y-81300000D01*
X146975000Y-83750000D02*
X153525000Y-83750000D01*
X153525000Y-83750000D02*
X154555000Y-82720000D01*
X130500000Y-90575000D02*
X134995000Y-90575000D01*
X134995000Y-90575000D02*
X135000000Y-90580000D01*
X154555000Y-81975000D02*
X154555000Y-81300000D01*
G36*
X176872687Y-60435561D02*
X177779664Y-61344123D01*
X178965294Y-61836439D01*
X180249074Y-61837559D01*
X181435561Y-61347313D01*
X182344123Y-60440336D01*
X182415000Y-60269645D01*
X182415000Y-105948254D01*
X182347313Y-105784439D01*
X181440336Y-104875877D01*
X180254706Y-104383561D01*
X178970926Y-104382441D01*
X177784439Y-104872687D01*
X176875877Y-105779664D01*
X176383561Y-106965294D01*
X176382441Y-108249074D01*
X176872687Y-109435561D01*
X177779664Y-110344123D01*
X178965294Y-110836439D01*
X180249074Y-110837559D01*
X181435561Y-110347313D01*
X182344123Y-109440336D01*
X182415000Y-109269645D01*
X182415000Y-123104475D01*
X182237313Y-122674439D01*
X181330336Y-121765877D01*
X180144706Y-121273561D01*
X178860926Y-121272441D01*
X177674439Y-121762687D01*
X176765877Y-122669664D01*
X176273561Y-123855294D01*
X176272441Y-125139074D01*
X176762687Y-126325561D01*
X177669664Y-127234123D01*
X177864438Y-127315000D01*
X123247544Y-127315000D01*
X123435561Y-127237313D01*
X124344123Y-126330336D01*
X124824156Y-125174285D01*
X164314760Y-125174285D01*
X164525169Y-125683515D01*
X164914436Y-126073461D01*
X165423298Y-126284759D01*
X165974285Y-126285240D01*
X166483515Y-126074831D01*
X166873461Y-125685564D01*
X167084759Y-125176702D01*
X167084761Y-125174285D01*
X169314760Y-125174285D01*
X169525169Y-125683515D01*
X169914436Y-126073461D01*
X170423298Y-126284759D01*
X170974285Y-126285240D01*
X171483515Y-126074831D01*
X171873461Y-125685564D01*
X172084759Y-125176702D01*
X172085240Y-124625715D01*
X171874831Y-124116485D01*
X171485564Y-123726539D01*
X170976702Y-123515241D01*
X170425715Y-123514760D01*
X169916485Y-123725169D01*
X169526539Y-124114436D01*
X169315241Y-124623298D01*
X169314760Y-125174285D01*
X167084761Y-125174285D01*
X167085240Y-124625715D01*
X166874831Y-124116485D01*
X166485564Y-123726539D01*
X165976702Y-123515241D01*
X165425715Y-123514760D01*
X164916485Y-123725169D01*
X164526539Y-124114436D01*
X164315241Y-124623298D01*
X164314760Y-125174285D01*
X124824156Y-125174285D01*
X124836439Y-125144706D01*
X124837559Y-123860926D01*
X124379581Y-122752532D01*
X164727073Y-122752532D01*
X164825736Y-123019387D01*
X165435461Y-123245908D01*
X166085460Y-123221856D01*
X166574264Y-123019387D01*
X166672927Y-122752532D01*
X165700000Y-121779605D01*
X164727073Y-122752532D01*
X124379581Y-122752532D01*
X124347313Y-122674439D01*
X123440336Y-121765877D01*
X122254706Y-121273561D01*
X120970926Y-121272441D01*
X119784439Y-121762687D01*
X118875877Y-122669664D01*
X118785000Y-122888520D01*
X118785000Y-116355750D01*
X140365000Y-116355750D01*
X140365000Y-117196309D01*
X140461673Y-117429698D01*
X140640301Y-117608327D01*
X140873690Y-117705000D01*
X141564250Y-117705000D01*
X141723000Y-117546250D01*
X141723000Y-116197000D01*
X141977000Y-116197000D01*
X141977000Y-117546250D01*
X142135750Y-117705000D01*
X142826310Y-117705000D01*
X143059699Y-117608327D01*
X143238327Y-117429698D01*
X143322221Y-117227160D01*
X143414450Y-117227160D01*
X143414450Y-117576410D01*
X143579928Y-118154326D01*
X143953969Y-118624925D01*
X144479628Y-118916563D01*
X144585072Y-118940873D01*
X144822880Y-118820220D01*
X144822880Y-117227160D01*
X143414450Y-117227160D01*
X143322221Y-117227160D01*
X143335000Y-117196309D01*
X143335000Y-116355750D01*
X143176250Y-116197000D01*
X141977000Y-116197000D01*
X141723000Y-116197000D01*
X140523750Y-116197000D01*
X140365000Y-116355750D01*
X118785000Y-116355750D01*
X118785000Y-115799016D01*
X133730590Y-115799016D01*
X133786271Y-116029611D01*
X134269078Y-116197622D01*
X134779428Y-116168083D01*
X135113729Y-116029611D01*
X135169410Y-115799016D01*
X134450000Y-115079605D01*
X133730590Y-115799016D01*
X118785000Y-115799016D01*
X118785000Y-114719078D01*
X133152378Y-114719078D01*
X133181917Y-115229428D01*
X133320389Y-115563729D01*
X133550984Y-115619410D01*
X134270395Y-114900000D01*
X134629605Y-114900000D01*
X135349016Y-115619410D01*
X135579611Y-115563729D01*
X135747622Y-115080922D01*
X135739680Y-114943691D01*
X140365000Y-114943691D01*
X140365000Y-115784250D01*
X140523750Y-115943000D01*
X141723000Y-115943000D01*
X141723000Y-114593750D01*
X141977000Y-114593750D01*
X141977000Y-115943000D01*
X143176250Y-115943000D01*
X143335000Y-115784250D01*
X143335000Y-114943691D01*
X143238327Y-114710302D01*
X143059699Y-114531673D01*
X142826310Y-114435000D01*
X142135750Y-114435000D01*
X141977000Y-114593750D01*
X141723000Y-114593750D01*
X141564250Y-114435000D01*
X140873690Y-114435000D01*
X140640301Y-114531673D01*
X140461673Y-114710302D01*
X140365000Y-114943691D01*
X135739680Y-114943691D01*
X135718083Y-114570572D01*
X135579611Y-114236271D01*
X135349016Y-114180590D01*
X134629605Y-114900000D01*
X134270395Y-114900000D01*
X133550984Y-114180590D01*
X133320389Y-114236271D01*
X133152378Y-114719078D01*
X118785000Y-114719078D01*
X118785000Y-114000984D01*
X133730590Y-114000984D01*
X134450000Y-114720395D01*
X135169410Y-114000984D01*
X135113729Y-113770389D01*
X134630922Y-113602378D01*
X134120572Y-113631917D01*
X133786271Y-113770389D01*
X133730590Y-114000984D01*
X118785000Y-114000984D01*
X118785000Y-109233342D01*
X118872687Y-109445561D01*
X119779664Y-110354123D01*
X120965294Y-110846439D01*
X122249074Y-110847559D01*
X123435561Y-110357313D01*
X124344123Y-109450336D01*
X124836439Y-108264706D01*
X124837449Y-107107343D01*
X128617934Y-110887828D01*
X129071153Y-111190660D01*
X129605762Y-111297000D01*
X138590000Y-111297000D01*
X139124609Y-111190660D01*
X139577828Y-110887828D01*
X140988656Y-109477000D01*
X142201004Y-109477000D01*
X142209086Y-110422560D01*
X141000000Y-110422560D01*
X140764683Y-110466838D01*
X140548559Y-110605910D01*
X140403569Y-110818110D01*
X140352560Y-111070000D01*
X140352560Y-113070000D01*
X140396838Y-113305317D01*
X140535910Y-113521441D01*
X140748110Y-113666431D01*
X141000000Y-113717440D01*
X142700000Y-113717440D01*
X142935317Y-113673162D01*
X143151441Y-113534090D01*
X143190449Y-113477000D01*
X143473000Y-113477000D01*
X143473000Y-115500000D01*
X143482717Y-115548720D01*
X143510912Y-115590511D01*
X143553144Y-115618040D01*
X143602760Y-115626970D01*
X143918431Y-115620108D01*
X143579928Y-116045994D01*
X143414450Y-116623910D01*
X143414450Y-116973160D01*
X144822880Y-116973160D01*
X144822880Y-116953160D01*
X145076880Y-116953160D01*
X145076880Y-116973160D01*
X145096880Y-116973160D01*
X145096880Y-117227160D01*
X145076880Y-117227160D01*
X145076880Y-118820220D01*
X145314688Y-118940873D01*
X145361610Y-118930055D01*
X145230588Y-119126143D01*
X145113710Y-119713727D01*
X145113710Y-120486073D01*
X145230588Y-121073657D01*
X145563427Y-121571786D01*
X146061556Y-121904625D01*
X146649140Y-122021503D01*
X147236724Y-121904625D01*
X147734853Y-121571786D01*
X148067692Y-121073657D01*
X148184570Y-120486073D01*
X148184570Y-119713727D01*
X148067692Y-119126143D01*
X147896968Y-118870636D01*
X147979748Y-118916563D01*
X148085192Y-118940873D01*
X148323000Y-118820220D01*
X148323000Y-117227160D01*
X148303000Y-117227160D01*
X148303000Y-116973160D01*
X148323000Y-116973160D01*
X148323000Y-116953160D01*
X148577000Y-116953160D01*
X148577000Y-116973160D01*
X148597000Y-116973160D01*
X148597000Y-117227160D01*
X148577000Y-117227160D01*
X148577000Y-118820220D01*
X148814808Y-118940873D01*
X148920252Y-118916563D01*
X149003032Y-118870636D01*
X148832308Y-119126143D01*
X148715430Y-119713727D01*
X148715430Y-120486073D01*
X148832308Y-121073657D01*
X149165147Y-121571786D01*
X149663276Y-121904625D01*
X150250860Y-122021503D01*
X150838444Y-121904625D01*
X151336573Y-121571786D01*
X151494480Y-121335461D01*
X164054092Y-121335461D01*
X164078144Y-121985460D01*
X164280613Y-122474264D01*
X164547468Y-122572927D01*
X165520395Y-121600000D01*
X165879605Y-121600000D01*
X166852532Y-122572927D01*
X167119387Y-122474264D01*
X167345908Y-121864539D01*
X167321856Y-121214540D01*
X167119387Y-120725736D01*
X166852532Y-120627073D01*
X165879605Y-121600000D01*
X165520395Y-121600000D01*
X164547468Y-120627073D01*
X164280613Y-120725736D01*
X164054092Y-121335461D01*
X151494480Y-121335461D01*
X151669412Y-121073657D01*
X151786290Y-120486073D01*
X151786290Y-120447468D01*
X164727073Y-120447468D01*
X165700000Y-121420395D01*
X166672927Y-120447468D01*
X166574264Y-120180613D01*
X165964539Y-119954092D01*
X165314540Y-119978144D01*
X164825736Y-120180613D01*
X164727073Y-120447468D01*
X151786290Y-120447468D01*
X151786290Y-119713727D01*
X151669412Y-119126143D01*
X151545950Y-118941368D01*
X151950120Y-119021763D01*
X152146767Y-118982647D01*
X152510510Y-119055000D01*
X156200000Y-119055000D01*
X156929012Y-118909991D01*
X157547038Y-118497038D01*
X157565519Y-118469379D01*
X157651441Y-118414090D01*
X157796431Y-118201890D01*
X157819123Y-118089836D01*
X157959991Y-117879012D01*
X158048160Y-117435750D01*
X158565000Y-117435750D01*
X158565000Y-118076310D01*
X158661673Y-118309699D01*
X158840302Y-118488327D01*
X159073691Y-118585000D01*
X159914250Y-118585000D01*
X160073000Y-118426250D01*
X160073000Y-117277000D01*
X160327000Y-117277000D01*
X160327000Y-118426250D01*
X160485750Y-118585000D01*
X161326309Y-118585000D01*
X161559698Y-118488327D01*
X161738327Y-118309699D01*
X161835000Y-118076310D01*
X161835000Y-117435750D01*
X161676250Y-117277000D01*
X160327000Y-117277000D01*
X160073000Y-117277000D01*
X158723750Y-117277000D01*
X158565000Y-117435750D01*
X158048160Y-117435750D01*
X158105000Y-117150000D01*
X158105000Y-116223690D01*
X158565000Y-116223690D01*
X158565000Y-116864250D01*
X158723750Y-117023000D01*
X160073000Y-117023000D01*
X160073000Y-115873750D01*
X160327000Y-115873750D01*
X160327000Y-117023000D01*
X161676250Y-117023000D01*
X161835000Y-116864250D01*
X161835000Y-116223690D01*
X161738327Y-115990301D01*
X161559698Y-115811673D01*
X161326309Y-115715000D01*
X160485750Y-115715000D01*
X160327000Y-115873750D01*
X160073000Y-115873750D01*
X159914250Y-115715000D01*
X159073691Y-115715000D01*
X158840302Y-115811673D01*
X158661673Y-115990301D01*
X158565000Y-116223690D01*
X158105000Y-116223690D01*
X158105000Y-115044180D01*
X169049000Y-115044180D01*
X169049000Y-121600000D01*
X169064929Y-121680079D01*
X169064716Y-121923795D01*
X169158606Y-122151025D01*
X169174675Y-122231810D01*
X169220037Y-122299698D01*
X169313106Y-122524943D01*
X169486806Y-122698947D01*
X169532567Y-122767433D01*
X169600454Y-122812793D01*
X169772637Y-122985278D01*
X169999704Y-123079564D01*
X170068190Y-123125325D01*
X170148269Y-123141254D01*
X170373352Y-123234716D01*
X170619214Y-123234931D01*
X170700000Y-123251000D01*
X170780079Y-123235071D01*
X171023795Y-123235284D01*
X171251025Y-123141394D01*
X171331810Y-123125325D01*
X171399698Y-123079963D01*
X171624943Y-122986894D01*
X171798947Y-122813194D01*
X171867433Y-122767433D01*
X171912793Y-122699546D01*
X172085278Y-122527363D01*
X172179564Y-122300296D01*
X172225325Y-122231810D01*
X172241254Y-122151731D01*
X172334716Y-121926648D01*
X172334931Y-121680786D01*
X172351000Y-121600000D01*
X172351000Y-115952030D01*
X172580646Y-115857142D01*
X173116999Y-115321725D01*
X173407628Y-114621810D01*
X173408290Y-113863955D01*
X173118882Y-113163534D01*
X172583465Y-112627181D01*
X171883550Y-112336552D01*
X171125695Y-112335890D01*
X170425274Y-112625298D01*
X169888921Y-113160715D01*
X169633518Y-113775796D01*
X169532567Y-113876747D01*
X169174675Y-114412369D01*
X169055800Y-115009995D01*
X169049000Y-115044180D01*
X158105000Y-115044180D01*
X158105000Y-113994817D01*
X163523048Y-113994817D01*
X163654740Y-114289697D01*
X164362256Y-114561301D01*
X165119852Y-114541476D01*
X165727700Y-114289697D01*
X165859392Y-113994817D01*
X164691220Y-112826645D01*
X163523048Y-113994817D01*
X158105000Y-113994817D01*
X158105000Y-112318076D01*
X162776959Y-112318076D01*
X162796784Y-113075672D01*
X163048563Y-113683520D01*
X163343443Y-113815212D01*
X164511615Y-112647040D01*
X164870825Y-112647040D01*
X166038997Y-113815212D01*
X166333877Y-113683520D01*
X166605481Y-112976004D01*
X166585656Y-112218408D01*
X166333877Y-111610560D01*
X166038997Y-111478868D01*
X164870825Y-112647040D01*
X164511615Y-112647040D01*
X163343443Y-111478868D01*
X163048563Y-111610560D01*
X162776959Y-112318076D01*
X158105000Y-112318076D01*
X158105000Y-111299263D01*
X163523048Y-111299263D01*
X164691220Y-112467435D01*
X165859392Y-111299263D01*
X165727700Y-111004383D01*
X165020184Y-110732779D01*
X164262588Y-110752604D01*
X163654740Y-111004383D01*
X163523048Y-111299263D01*
X158105000Y-111299263D01*
X158105000Y-106303528D01*
X158519078Y-106447622D01*
X159029428Y-106418083D01*
X159363729Y-106279611D01*
X159419410Y-106049016D01*
X158700000Y-105329605D01*
X158685858Y-105343748D01*
X158506252Y-105164142D01*
X158520395Y-105150000D01*
X158879605Y-105150000D01*
X159599016Y-105869410D01*
X159829611Y-105813729D01*
X159997622Y-105330922D01*
X159968083Y-104820572D01*
X159829611Y-104486271D01*
X159599016Y-104430590D01*
X158879605Y-105150000D01*
X158520395Y-105150000D01*
X158506252Y-105135858D01*
X158685858Y-104956252D01*
X158700000Y-104970395D01*
X159419410Y-104250984D01*
X159363729Y-104020389D01*
X158880922Y-103852378D01*
X158370572Y-103881917D01*
X158105000Y-103991921D01*
X158105000Y-101256076D01*
X158454856Y-100906220D01*
X170171529Y-100906220D01*
X170232960Y-100918660D01*
X172772960Y-100918660D01*
X173008277Y-100874382D01*
X173224401Y-100735310D01*
X173369391Y-100523110D01*
X173420400Y-100271220D01*
X173420400Y-97731220D01*
X173407960Y-97665107D01*
X173407960Y-89517667D01*
X176889618Y-89517667D01*
X177225361Y-90330229D01*
X177846501Y-90952454D01*
X178658475Y-91289615D01*
X179537667Y-91290382D01*
X180350229Y-90954639D01*
X180972454Y-90333499D01*
X181309615Y-89521525D01*
X181310382Y-88642333D01*
X180974639Y-87829771D01*
X180353499Y-87207546D01*
X179541525Y-86870385D01*
X178662333Y-86869618D01*
X177849771Y-87205361D01*
X177227546Y-87826501D01*
X176890385Y-88638475D01*
X176889618Y-89517667D01*
X173407960Y-89517667D01*
X173407960Y-88482960D01*
X173262951Y-87753948D01*
X172964440Y-87307196D01*
X173016661Y-87307242D01*
X173530303Y-87095010D01*
X173923629Y-86702370D01*
X174136757Y-86189100D01*
X174137242Y-85633339D01*
X173925010Y-85119697D01*
X173532370Y-84726371D01*
X173324488Y-84640051D01*
X173530303Y-84555010D01*
X173923629Y-84162370D01*
X174136757Y-83649100D01*
X174137242Y-83093339D01*
X173925010Y-82579697D01*
X173532370Y-82186371D01*
X173324488Y-82100051D01*
X173530303Y-82015010D01*
X173923629Y-81622370D01*
X174136757Y-81109100D01*
X174137242Y-80553339D01*
X173925010Y-80039697D01*
X173532370Y-79646371D01*
X173019100Y-79433243D01*
X172463339Y-79432758D01*
X171949697Y-79644990D01*
X171556371Y-80037630D01*
X171343243Y-80550900D01*
X171342758Y-81106661D01*
X171554990Y-81620303D01*
X171947630Y-82013629D01*
X172155512Y-82099949D01*
X171949697Y-82184990D01*
X171556371Y-82577630D01*
X171554307Y-82582600D01*
X171512257Y-82582600D01*
X171596757Y-82379100D01*
X171597242Y-81823339D01*
X171385010Y-81309697D01*
X170992370Y-80916371D01*
X170479100Y-80703243D01*
X169923339Y-80702758D01*
X169409697Y-80914990D01*
X169016371Y-81307630D01*
X169005586Y-81333602D01*
X168900000Y-81312600D01*
X168598675Y-81372537D01*
X168343224Y-81543224D01*
X166761600Y-83124848D01*
X166761600Y-81530110D01*
X168934043Y-79357667D01*
X176889618Y-79357667D01*
X177225361Y-80170229D01*
X177846501Y-80792454D01*
X178658475Y-81129615D01*
X179537667Y-81130382D01*
X180350229Y-80794639D01*
X180972454Y-80173499D01*
X181309615Y-79361525D01*
X181310382Y-78482333D01*
X180974639Y-77669771D01*
X180353499Y-77047546D01*
X179541525Y-76710385D01*
X178662333Y-76709618D01*
X177849771Y-77045361D01*
X177227546Y-77666501D01*
X176890385Y-78478475D01*
X176889618Y-79357667D01*
X168934043Y-79357667D01*
X171055110Y-77236600D01*
X174600000Y-77236600D01*
X174881885Y-77180530D01*
X175120855Y-77020855D01*
X177183293Y-74958417D01*
X177225361Y-75060229D01*
X177846501Y-75682454D01*
X178658475Y-76019615D01*
X179537667Y-76020382D01*
X180350229Y-75684639D01*
X180972454Y-75063499D01*
X181309615Y-74251525D01*
X181310382Y-73372333D01*
X180974639Y-72559771D01*
X180353499Y-71937546D01*
X179541525Y-71600385D01*
X178662333Y-71599618D01*
X177849771Y-71935361D01*
X177845478Y-71939647D01*
X177845478Y-68061429D01*
X177846501Y-68062454D01*
X178658475Y-68399615D01*
X179537667Y-68400382D01*
X180350229Y-68064639D01*
X180972454Y-67443499D01*
X181309615Y-66631525D01*
X181310382Y-65752333D01*
X180974639Y-64939771D01*
X180353499Y-64317546D01*
X179541525Y-63980385D01*
X178662333Y-63979618D01*
X177849771Y-64315361D01*
X177845478Y-64319647D01*
X177845478Y-62408878D01*
X177789408Y-62126993D01*
X177629733Y-61888023D01*
X176685801Y-60944091D01*
X176685801Y-59983262D01*
X176872687Y-60435561D01*
X176872687Y-60435561D01*
G37*
X176872687Y-60435561D02*
X177779664Y-61344123D01*
X178965294Y-61836439D01*
X180249074Y-61837559D01*
X181435561Y-61347313D01*
X182344123Y-60440336D01*
X182415000Y-60269645D01*
X182415000Y-105948254D01*
X182347313Y-105784439D01*
X181440336Y-104875877D01*
X180254706Y-104383561D01*
X178970926Y-104382441D01*
X177784439Y-104872687D01*
X176875877Y-105779664D01*
X176383561Y-106965294D01*
X176382441Y-108249074D01*
X176872687Y-109435561D01*
X177779664Y-110344123D01*
X178965294Y-110836439D01*
X180249074Y-110837559D01*
X181435561Y-110347313D01*
X182344123Y-109440336D01*
X182415000Y-109269645D01*
X182415000Y-123104475D01*
X182237313Y-122674439D01*
X181330336Y-121765877D01*
X180144706Y-121273561D01*
X178860926Y-121272441D01*
X177674439Y-121762687D01*
X176765877Y-122669664D01*
X176273561Y-123855294D01*
X176272441Y-125139074D01*
X176762687Y-126325561D01*
X177669664Y-127234123D01*
X177864438Y-127315000D01*
X123247544Y-127315000D01*
X123435561Y-127237313D01*
X124344123Y-126330336D01*
X124824156Y-125174285D01*
X164314760Y-125174285D01*
X164525169Y-125683515D01*
X164914436Y-126073461D01*
X165423298Y-126284759D01*
X165974285Y-126285240D01*
X166483515Y-126074831D01*
X166873461Y-125685564D01*
X167084759Y-125176702D01*
X167084761Y-125174285D01*
X169314760Y-125174285D01*
X169525169Y-125683515D01*
X169914436Y-126073461D01*
X170423298Y-126284759D01*
X170974285Y-126285240D01*
X171483515Y-126074831D01*
X171873461Y-125685564D01*
X172084759Y-125176702D01*
X172085240Y-124625715D01*
X171874831Y-124116485D01*
X171485564Y-123726539D01*
X170976702Y-123515241D01*
X170425715Y-123514760D01*
X169916485Y-123725169D01*
X169526539Y-124114436D01*
X169315241Y-124623298D01*
X169314760Y-125174285D01*
X167084761Y-125174285D01*
X167085240Y-124625715D01*
X166874831Y-124116485D01*
X166485564Y-123726539D01*
X165976702Y-123515241D01*
X165425715Y-123514760D01*
X164916485Y-123725169D01*
X164526539Y-124114436D01*
X164315241Y-124623298D01*
X164314760Y-125174285D01*
X124824156Y-125174285D01*
X124836439Y-125144706D01*
X124837559Y-123860926D01*
X124379581Y-122752532D01*
X164727073Y-122752532D01*
X164825736Y-123019387D01*
X165435461Y-123245908D01*
X166085460Y-123221856D01*
X166574264Y-123019387D01*
X166672927Y-122752532D01*
X165700000Y-121779605D01*
X164727073Y-122752532D01*
X124379581Y-122752532D01*
X124347313Y-122674439D01*
X123440336Y-121765877D01*
X122254706Y-121273561D01*
X120970926Y-121272441D01*
X119784439Y-121762687D01*
X118875877Y-122669664D01*
X118785000Y-122888520D01*
X118785000Y-116355750D01*
X140365000Y-116355750D01*
X140365000Y-117196309D01*
X140461673Y-117429698D01*
X140640301Y-117608327D01*
X140873690Y-117705000D01*
X141564250Y-117705000D01*
X141723000Y-117546250D01*
X141723000Y-116197000D01*
X141977000Y-116197000D01*
X141977000Y-117546250D01*
X142135750Y-117705000D01*
X142826310Y-117705000D01*
X143059699Y-117608327D01*
X143238327Y-117429698D01*
X143322221Y-117227160D01*
X143414450Y-117227160D01*
X143414450Y-117576410D01*
X143579928Y-118154326D01*
X143953969Y-118624925D01*
X144479628Y-118916563D01*
X144585072Y-118940873D01*
X144822880Y-118820220D01*
X144822880Y-117227160D01*
X143414450Y-117227160D01*
X143322221Y-117227160D01*
X143335000Y-117196309D01*
X143335000Y-116355750D01*
X143176250Y-116197000D01*
X141977000Y-116197000D01*
X141723000Y-116197000D01*
X140523750Y-116197000D01*
X140365000Y-116355750D01*
X118785000Y-116355750D01*
X118785000Y-115799016D01*
X133730590Y-115799016D01*
X133786271Y-116029611D01*
X134269078Y-116197622D01*
X134779428Y-116168083D01*
X135113729Y-116029611D01*
X135169410Y-115799016D01*
X134450000Y-115079605D01*
X133730590Y-115799016D01*
X118785000Y-115799016D01*
X118785000Y-114719078D01*
X133152378Y-114719078D01*
X133181917Y-115229428D01*
X133320389Y-115563729D01*
X133550984Y-115619410D01*
X134270395Y-114900000D01*
X134629605Y-114900000D01*
X135349016Y-115619410D01*
X135579611Y-115563729D01*
X135747622Y-115080922D01*
X135739680Y-114943691D01*
X140365000Y-114943691D01*
X140365000Y-115784250D01*
X140523750Y-115943000D01*
X141723000Y-115943000D01*
X141723000Y-114593750D01*
X141977000Y-114593750D01*
X141977000Y-115943000D01*
X143176250Y-115943000D01*
X143335000Y-115784250D01*
X143335000Y-114943691D01*
X143238327Y-114710302D01*
X143059699Y-114531673D01*
X142826310Y-114435000D01*
X142135750Y-114435000D01*
X141977000Y-114593750D01*
X141723000Y-114593750D01*
X141564250Y-114435000D01*
X140873690Y-114435000D01*
X140640301Y-114531673D01*
X140461673Y-114710302D01*
X140365000Y-114943691D01*
X135739680Y-114943691D01*
X135718083Y-114570572D01*
X135579611Y-114236271D01*
X135349016Y-114180590D01*
X134629605Y-114900000D01*
X134270395Y-114900000D01*
X133550984Y-114180590D01*
X133320389Y-114236271D01*
X133152378Y-114719078D01*
X118785000Y-114719078D01*
X118785000Y-114000984D01*
X133730590Y-114000984D01*
X134450000Y-114720395D01*
X135169410Y-114000984D01*
X135113729Y-113770389D01*
X134630922Y-113602378D01*
X134120572Y-113631917D01*
X133786271Y-113770389D01*
X133730590Y-114000984D01*
X118785000Y-114000984D01*
X118785000Y-109233342D01*
X118872687Y-109445561D01*
X119779664Y-110354123D01*
X120965294Y-110846439D01*
X122249074Y-110847559D01*
X123435561Y-110357313D01*
X124344123Y-109450336D01*
X124836439Y-108264706D01*
X124837449Y-107107343D01*
X128617934Y-110887828D01*
X129071153Y-111190660D01*
X129605762Y-111297000D01*
X138590000Y-111297000D01*
X139124609Y-111190660D01*
X139577828Y-110887828D01*
X140988656Y-109477000D01*
X142201004Y-109477000D01*
X142209086Y-110422560D01*
X141000000Y-110422560D01*
X140764683Y-110466838D01*
X140548559Y-110605910D01*
X140403569Y-110818110D01*
X140352560Y-111070000D01*
X140352560Y-113070000D01*
X140396838Y-113305317D01*
X140535910Y-113521441D01*
X140748110Y-113666431D01*
X141000000Y-113717440D01*
X142700000Y-113717440D01*
X142935317Y-113673162D01*
X143151441Y-113534090D01*
X143190449Y-113477000D01*
X143473000Y-113477000D01*
X143473000Y-115500000D01*
X143482717Y-115548720D01*
X143510912Y-115590511D01*
X143553144Y-115618040D01*
X143602760Y-115626970D01*
X143918431Y-115620108D01*
X143579928Y-116045994D01*
X143414450Y-116623910D01*
X143414450Y-116973160D01*
X144822880Y-116973160D01*
X144822880Y-116953160D01*
X145076880Y-116953160D01*
X145076880Y-116973160D01*
X145096880Y-116973160D01*
X145096880Y-117227160D01*
X145076880Y-117227160D01*
X145076880Y-118820220D01*
X145314688Y-118940873D01*
X145361610Y-118930055D01*
X145230588Y-119126143D01*
X145113710Y-119713727D01*
X145113710Y-120486073D01*
X145230588Y-121073657D01*
X145563427Y-121571786D01*
X146061556Y-121904625D01*
X146649140Y-122021503D01*
X147236724Y-121904625D01*
X147734853Y-121571786D01*
X148067692Y-121073657D01*
X148184570Y-120486073D01*
X148184570Y-119713727D01*
X148067692Y-119126143D01*
X147896968Y-118870636D01*
X147979748Y-118916563D01*
X148085192Y-118940873D01*
X148323000Y-118820220D01*
X148323000Y-117227160D01*
X148303000Y-117227160D01*
X148303000Y-116973160D01*
X148323000Y-116973160D01*
X148323000Y-116953160D01*
X148577000Y-116953160D01*
X148577000Y-116973160D01*
X148597000Y-116973160D01*
X148597000Y-117227160D01*
X148577000Y-117227160D01*
X148577000Y-118820220D01*
X148814808Y-118940873D01*
X148920252Y-118916563D01*
X149003032Y-118870636D01*
X148832308Y-119126143D01*
X148715430Y-119713727D01*
X148715430Y-120486073D01*
X148832308Y-121073657D01*
X149165147Y-121571786D01*
X149663276Y-121904625D01*
X150250860Y-122021503D01*
X150838444Y-121904625D01*
X151336573Y-121571786D01*
X151494480Y-121335461D01*
X164054092Y-121335461D01*
X164078144Y-121985460D01*
X164280613Y-122474264D01*
X164547468Y-122572927D01*
X165520395Y-121600000D01*
X165879605Y-121600000D01*
X166852532Y-122572927D01*
X167119387Y-122474264D01*
X167345908Y-121864539D01*
X167321856Y-121214540D01*
X167119387Y-120725736D01*
X166852532Y-120627073D01*
X165879605Y-121600000D01*
X165520395Y-121600000D01*
X164547468Y-120627073D01*
X164280613Y-120725736D01*
X164054092Y-121335461D01*
X151494480Y-121335461D01*
X151669412Y-121073657D01*
X151786290Y-120486073D01*
X151786290Y-120447468D01*
X164727073Y-120447468D01*
X165700000Y-121420395D01*
X166672927Y-120447468D01*
X166574264Y-120180613D01*
X165964539Y-119954092D01*
X165314540Y-119978144D01*
X164825736Y-120180613D01*
X164727073Y-120447468D01*
X151786290Y-120447468D01*
X151786290Y-119713727D01*
X151669412Y-119126143D01*
X151545950Y-118941368D01*
X151950120Y-119021763D01*
X152146767Y-118982647D01*
X152510510Y-119055000D01*
X156200000Y-119055000D01*
X156929012Y-118909991D01*
X157547038Y-118497038D01*
X157565519Y-118469379D01*
X157651441Y-118414090D01*
X157796431Y-118201890D01*
X157819123Y-118089836D01*
X157959991Y-117879012D01*
X158048160Y-117435750D01*
X158565000Y-117435750D01*
X158565000Y-118076310D01*
X158661673Y-118309699D01*
X158840302Y-118488327D01*
X159073691Y-118585000D01*
X159914250Y-118585000D01*
X160073000Y-118426250D01*
X160073000Y-117277000D01*
X160327000Y-117277000D01*
X160327000Y-118426250D01*
X160485750Y-118585000D01*
X161326309Y-118585000D01*
X161559698Y-118488327D01*
X161738327Y-118309699D01*
X161835000Y-118076310D01*
X161835000Y-117435750D01*
X161676250Y-117277000D01*
X160327000Y-117277000D01*
X160073000Y-117277000D01*
X158723750Y-117277000D01*
X158565000Y-117435750D01*
X158048160Y-117435750D01*
X158105000Y-117150000D01*
X158105000Y-116223690D01*
X158565000Y-116223690D01*
X158565000Y-116864250D01*
X158723750Y-117023000D01*
X160073000Y-117023000D01*
X160073000Y-115873750D01*
X160327000Y-115873750D01*
X160327000Y-117023000D01*
X161676250Y-117023000D01*
X161835000Y-116864250D01*
X161835000Y-116223690D01*
X161738327Y-115990301D01*
X161559698Y-115811673D01*
X161326309Y-115715000D01*
X160485750Y-115715000D01*
X160327000Y-115873750D01*
X160073000Y-115873750D01*
X159914250Y-115715000D01*
X159073691Y-115715000D01*
X158840302Y-115811673D01*
X158661673Y-115990301D01*
X158565000Y-116223690D01*
X158105000Y-116223690D01*
X158105000Y-115044180D01*
X169049000Y-115044180D01*
X169049000Y-121600000D01*
X169064929Y-121680079D01*
X169064716Y-121923795D01*
X169158606Y-122151025D01*
X169174675Y-122231810D01*
X169220037Y-122299698D01*
X169313106Y-122524943D01*
X169486806Y-122698947D01*
X169532567Y-122767433D01*
X169600454Y-122812793D01*
X169772637Y-122985278D01*
X169999704Y-123079564D01*
X170068190Y-123125325D01*
X170148269Y-123141254D01*
X170373352Y-123234716D01*
X170619214Y-123234931D01*
X170700000Y-123251000D01*
X170780079Y-123235071D01*
X171023795Y-123235284D01*
X171251025Y-123141394D01*
X171331810Y-123125325D01*
X171399698Y-123079963D01*
X171624943Y-122986894D01*
X171798947Y-122813194D01*
X171867433Y-122767433D01*
X171912793Y-122699546D01*
X172085278Y-122527363D01*
X172179564Y-122300296D01*
X172225325Y-122231810D01*
X172241254Y-122151731D01*
X172334716Y-121926648D01*
X172334931Y-121680786D01*
X172351000Y-121600000D01*
X172351000Y-115952030D01*
X172580646Y-115857142D01*
X173116999Y-115321725D01*
X173407628Y-114621810D01*
X173408290Y-113863955D01*
X173118882Y-113163534D01*
X172583465Y-112627181D01*
X171883550Y-112336552D01*
X171125695Y-112335890D01*
X170425274Y-112625298D01*
X169888921Y-113160715D01*
X169633518Y-113775796D01*
X169532567Y-113876747D01*
X169174675Y-114412369D01*
X169055800Y-115009995D01*
X169049000Y-115044180D01*
X158105000Y-115044180D01*
X158105000Y-113994817D01*
X163523048Y-113994817D01*
X163654740Y-114289697D01*
X164362256Y-114561301D01*
X165119852Y-114541476D01*
X165727700Y-114289697D01*
X165859392Y-113994817D01*
X164691220Y-112826645D01*
X163523048Y-113994817D01*
X158105000Y-113994817D01*
X158105000Y-112318076D01*
X162776959Y-112318076D01*
X162796784Y-113075672D01*
X163048563Y-113683520D01*
X163343443Y-113815212D01*
X164511615Y-112647040D01*
X164870825Y-112647040D01*
X166038997Y-113815212D01*
X166333877Y-113683520D01*
X166605481Y-112976004D01*
X166585656Y-112218408D01*
X166333877Y-111610560D01*
X166038997Y-111478868D01*
X164870825Y-112647040D01*
X164511615Y-112647040D01*
X163343443Y-111478868D01*
X163048563Y-111610560D01*
X162776959Y-112318076D01*
X158105000Y-112318076D01*
X158105000Y-111299263D01*
X163523048Y-111299263D01*
X164691220Y-112467435D01*
X165859392Y-111299263D01*
X165727700Y-111004383D01*
X165020184Y-110732779D01*
X164262588Y-110752604D01*
X163654740Y-111004383D01*
X163523048Y-111299263D01*
X158105000Y-111299263D01*
X158105000Y-106303528D01*
X158519078Y-106447622D01*
X159029428Y-106418083D01*
X159363729Y-106279611D01*
X159419410Y-106049016D01*
X158700000Y-105329605D01*
X158685858Y-105343748D01*
X158506252Y-105164142D01*
X158520395Y-105150000D01*
X158879605Y-105150000D01*
X159599016Y-105869410D01*
X159829611Y-105813729D01*
X159997622Y-105330922D01*
X159968083Y-104820572D01*
X159829611Y-104486271D01*
X159599016Y-104430590D01*
X158879605Y-105150000D01*
X158520395Y-105150000D01*
X158506252Y-105135858D01*
X158685858Y-104956252D01*
X158700000Y-104970395D01*
X159419410Y-104250984D01*
X159363729Y-104020389D01*
X158880922Y-103852378D01*
X158370572Y-103881917D01*
X158105000Y-103991921D01*
X158105000Y-101256076D01*
X158454856Y-100906220D01*
X170171529Y-100906220D01*
X170232960Y-100918660D01*
X172772960Y-100918660D01*
X173008277Y-100874382D01*
X173224401Y-100735310D01*
X173369391Y-100523110D01*
X173420400Y-100271220D01*
X173420400Y-97731220D01*
X173407960Y-97665107D01*
X173407960Y-89517667D01*
X176889618Y-89517667D01*
X177225361Y-90330229D01*
X177846501Y-90952454D01*
X178658475Y-91289615D01*
X179537667Y-91290382D01*
X180350229Y-90954639D01*
X180972454Y-90333499D01*
X181309615Y-89521525D01*
X181310382Y-88642333D01*
X180974639Y-87829771D01*
X180353499Y-87207546D01*
X179541525Y-86870385D01*
X178662333Y-86869618D01*
X177849771Y-87205361D01*
X177227546Y-87826501D01*
X176890385Y-88638475D01*
X176889618Y-89517667D01*
X173407960Y-89517667D01*
X173407960Y-88482960D01*
X173262951Y-87753948D01*
X172964440Y-87307196D01*
X173016661Y-87307242D01*
X173530303Y-87095010D01*
X173923629Y-86702370D01*
X174136757Y-86189100D01*
X174137242Y-85633339D01*
X173925010Y-85119697D01*
X173532370Y-84726371D01*
X173324488Y-84640051D01*
X173530303Y-84555010D01*
X173923629Y-84162370D01*
X174136757Y-83649100D01*
X174137242Y-83093339D01*
X173925010Y-82579697D01*
X173532370Y-82186371D01*
X173324488Y-82100051D01*
X173530303Y-82015010D01*
X173923629Y-81622370D01*
X174136757Y-81109100D01*
X174137242Y-80553339D01*
X173925010Y-80039697D01*
X173532370Y-79646371D01*
X173019100Y-79433243D01*
X172463339Y-79432758D01*
X171949697Y-79644990D01*
X171556371Y-80037630D01*
X171343243Y-80550900D01*
X171342758Y-81106661D01*
X171554990Y-81620303D01*
X171947630Y-82013629D01*
X172155512Y-82099949D01*
X171949697Y-82184990D01*
X171556371Y-82577630D01*
X171554307Y-82582600D01*
X171512257Y-82582600D01*
X171596757Y-82379100D01*
X171597242Y-81823339D01*
X171385010Y-81309697D01*
X170992370Y-80916371D01*
X170479100Y-80703243D01*
X169923339Y-80702758D01*
X169409697Y-80914990D01*
X169016371Y-81307630D01*
X169005586Y-81333602D01*
X168900000Y-81312600D01*
X168598675Y-81372537D01*
X168343224Y-81543224D01*
X166761600Y-83124848D01*
X166761600Y-81530110D01*
X168934043Y-79357667D01*
X176889618Y-79357667D01*
X177225361Y-80170229D01*
X177846501Y-80792454D01*
X178658475Y-81129615D01*
X179537667Y-81130382D01*
X180350229Y-80794639D01*
X180972454Y-80173499D01*
X181309615Y-79361525D01*
X181310382Y-78482333D01*
X180974639Y-77669771D01*
X180353499Y-77047546D01*
X179541525Y-76710385D01*
X178662333Y-76709618D01*
X177849771Y-77045361D01*
X177227546Y-77666501D01*
X176890385Y-78478475D01*
X176889618Y-79357667D01*
X168934043Y-79357667D01*
X171055110Y-77236600D01*
X174600000Y-77236600D01*
X174881885Y-77180530D01*
X175120855Y-77020855D01*
X177183293Y-74958417D01*
X177225361Y-75060229D01*
X177846501Y-75682454D01*
X178658475Y-76019615D01*
X179537667Y-76020382D01*
X180350229Y-75684639D01*
X180972454Y-75063499D01*
X181309615Y-74251525D01*
X181310382Y-73372333D01*
X180974639Y-72559771D01*
X180353499Y-71937546D01*
X179541525Y-71600385D01*
X178662333Y-71599618D01*
X177849771Y-71935361D01*
X177845478Y-71939647D01*
X177845478Y-68061429D01*
X177846501Y-68062454D01*
X178658475Y-68399615D01*
X179537667Y-68400382D01*
X180350229Y-68064639D01*
X180972454Y-67443499D01*
X181309615Y-66631525D01*
X181310382Y-65752333D01*
X180974639Y-64939771D01*
X180353499Y-64317546D01*
X179541525Y-63980385D01*
X178662333Y-63979618D01*
X177849771Y-64315361D01*
X177845478Y-64319647D01*
X177845478Y-62408878D01*
X177789408Y-62126993D01*
X177629733Y-61888023D01*
X176685801Y-60944091D01*
X176685801Y-59983262D01*
X176872687Y-60435561D01*
G36*
X127699949Y-63754000D02*
X126609974Y-64843974D01*
X126334673Y-65255992D01*
X126237999Y-65742000D01*
X126238000Y-65742005D01*
X126238000Y-69831949D01*
X124069974Y-71999974D01*
X124069972Y-71999977D01*
X123307974Y-72761974D01*
X123032673Y-73173992D01*
X122935999Y-73660000D01*
X122936000Y-73660005D01*
X122936000Y-80805995D01*
X122935999Y-80806000D01*
X123032673Y-81292008D01*
X123307974Y-81704026D01*
X125251972Y-83648023D01*
X125251974Y-83648026D01*
X125663992Y-83923327D01*
X126150000Y-84020000D01*
X129030000Y-84020000D01*
X129030000Y-84417625D01*
X129029999Y-84417630D01*
X129126673Y-84903638D01*
X129401974Y-85315656D01*
X133024342Y-88938023D01*
X133024344Y-88938026D01*
X133335606Y-89146004D01*
X133436362Y-89213327D01*
X133922370Y-89310001D01*
X133922375Y-89310000D01*
X134415389Y-89310000D01*
X134209697Y-89394990D01*
X133816371Y-89787630D01*
X133805836Y-89813000D01*
X132147440Y-89813000D01*
X132147440Y-89725000D01*
X132103162Y-89489683D01*
X131964090Y-89273559D01*
X131751890Y-89128569D01*
X131500000Y-89077560D01*
X129500000Y-89077560D01*
X129264683Y-89121838D01*
X129048559Y-89260910D01*
X128903569Y-89473110D01*
X128852560Y-89725000D01*
X128852560Y-91425000D01*
X128896838Y-91660317D01*
X129035910Y-91876441D01*
X129248110Y-92021431D01*
X129500000Y-92072440D01*
X131500000Y-92072440D01*
X131735317Y-92028162D01*
X131951441Y-91889090D01*
X132096431Y-91676890D01*
X132147440Y-91425000D01*
X132147440Y-91337000D01*
X133801230Y-91337000D01*
X133814990Y-91370303D01*
X134207630Y-91763629D01*
X134720900Y-91976757D01*
X135276661Y-91977242D01*
X135307054Y-91964684D01*
X135881184Y-92538815D01*
X136057257Y-92656463D01*
X136128395Y-92703996D01*
X136420000Y-92762000D01*
X142900000Y-92762000D01*
X143191605Y-92703996D01*
X143438815Y-92538815D01*
X146038815Y-89938816D01*
X146203996Y-89691605D01*
X146219796Y-89612172D01*
X146262000Y-89400000D01*
X146262000Y-86535750D01*
X146815000Y-86535750D01*
X146815000Y-87376309D01*
X146911673Y-87609698D01*
X147090301Y-87788327D01*
X147323690Y-87885000D01*
X147964250Y-87885000D01*
X148123000Y-87726250D01*
X148123000Y-86377000D01*
X148377000Y-86377000D01*
X148377000Y-87726250D01*
X148535750Y-87885000D01*
X149176310Y-87885000D01*
X149409699Y-87788327D01*
X149500000Y-87698025D01*
X149590301Y-87788327D01*
X149823690Y-87885000D01*
X150464250Y-87885000D01*
X150623000Y-87726250D01*
X150623000Y-86377000D01*
X150877000Y-86377000D01*
X150877000Y-87726250D01*
X151035750Y-87885000D01*
X151676310Y-87885000D01*
X151909699Y-87788327D01*
X152088327Y-87609698D01*
X152185000Y-87376309D01*
X152185000Y-86535750D01*
X152026250Y-86377000D01*
X150877000Y-86377000D01*
X150623000Y-86377000D01*
X148377000Y-86377000D01*
X148123000Y-86377000D01*
X146973750Y-86377000D01*
X146815000Y-86535750D01*
X146262000Y-86535750D01*
X146262000Y-85515630D01*
X147011237Y-84766393D01*
X147084603Y-84717371D01*
X146911673Y-84890302D01*
X146815000Y-85123691D01*
X146815000Y-85964250D01*
X146973750Y-86123000D01*
X148123000Y-86123000D01*
X148123000Y-84773750D01*
X148377000Y-84773750D01*
X148377000Y-86123000D01*
X150623000Y-86123000D01*
X150623000Y-84773750D01*
X150877000Y-84773750D01*
X150877000Y-86123000D01*
X152026250Y-86123000D01*
X152185000Y-85964250D01*
X152185000Y-85123691D01*
X152088327Y-84890302D01*
X151909699Y-84711673D01*
X151676310Y-84615000D01*
X151035750Y-84615000D01*
X150877000Y-84773750D01*
X150623000Y-84773750D01*
X150464250Y-84615000D01*
X149823690Y-84615000D01*
X149590301Y-84711673D01*
X149500000Y-84801975D01*
X149409699Y-84711673D01*
X149176310Y-84615000D01*
X148535750Y-84615000D01*
X148377000Y-84773750D01*
X148123000Y-84773750D01*
X147964250Y-84615000D01*
X147323690Y-84615000D01*
X147097746Y-84708589D01*
X147228196Y-84621425D01*
X147301312Y-84512000D01*
X153525000Y-84512000D01*
X153816605Y-84453996D01*
X154063815Y-84288815D01*
X155093815Y-83258815D01*
X155199932Y-83100000D01*
X155258996Y-83011605D01*
X155286345Y-82874111D01*
X155525000Y-82922440D01*
X156125000Y-82922440D01*
X156360317Y-82878162D01*
X156459528Y-82814322D01*
X156543110Y-82871431D01*
X156795000Y-82922440D01*
X157395000Y-82922440D01*
X157630317Y-82878162D01*
X157720980Y-82819822D01*
X157938690Y-82910000D01*
X158079250Y-82910000D01*
X158238000Y-82751250D01*
X158238000Y-81427000D01*
X158492000Y-81427000D01*
X158492000Y-82751250D01*
X158650750Y-82910000D01*
X158791310Y-82910000D01*
X159000000Y-82823558D01*
X159208690Y-82910000D01*
X159349250Y-82910000D01*
X159508000Y-82751250D01*
X159508000Y-81427000D01*
X159762000Y-81427000D01*
X159762000Y-82751250D01*
X159920750Y-82910000D01*
X160061310Y-82910000D01*
X160270000Y-82823558D01*
X160478690Y-82910000D01*
X160619250Y-82910000D01*
X160778000Y-82751250D01*
X160778000Y-81427000D01*
X159762000Y-81427000D01*
X159508000Y-81427000D01*
X158492000Y-81427000D01*
X158238000Y-81427000D01*
X158218000Y-81427000D01*
X158218000Y-81173000D01*
X158238000Y-81173000D01*
X158238000Y-81153000D01*
X158492000Y-81153000D01*
X158492000Y-81173000D01*
X159508000Y-81173000D01*
X159508000Y-79848750D01*
X159762000Y-79848750D01*
X159762000Y-81173000D01*
X160778000Y-81173000D01*
X160778000Y-79848750D01*
X160619250Y-79690000D01*
X160478690Y-79690000D01*
X160270000Y-79776442D01*
X160061310Y-79690000D01*
X159920750Y-79690000D01*
X159762000Y-79848750D01*
X159508000Y-79848750D01*
X159349250Y-79690000D01*
X159208690Y-79690000D01*
X159000000Y-79776442D01*
X158791310Y-79690000D01*
X158650750Y-79690000D01*
X158492002Y-79848748D01*
X158492002Y-79690000D01*
X158476710Y-79690000D01*
X159076743Y-79089967D01*
X161668323Y-79089967D01*
X161654145Y-79104145D01*
X161494470Y-79343115D01*
X161438400Y-79625000D01*
X161438400Y-79734358D01*
X161331310Y-79690000D01*
X161190750Y-79690000D01*
X161032000Y-79848750D01*
X161032000Y-81173000D01*
X161052000Y-81173000D01*
X161052000Y-81427000D01*
X161032000Y-81427000D01*
X161032000Y-82751250D01*
X161190750Y-82910000D01*
X161331310Y-82910000D01*
X161548122Y-82820194D01*
X161623110Y-82871431D01*
X161875000Y-82922440D01*
X162475000Y-82922440D01*
X162710317Y-82878162D01*
X162809528Y-82814322D01*
X162893110Y-82871431D01*
X163145000Y-82922440D01*
X163745000Y-82922440D01*
X163980317Y-82878162D01*
X164079528Y-82814322D01*
X164163110Y-82871431D01*
X164415000Y-82922440D01*
X165015000Y-82922440D01*
X165250317Y-82878162D01*
X165288400Y-82853656D01*
X165288400Y-89143266D01*
X165266890Y-89128569D01*
X165015000Y-89077560D01*
X164415000Y-89077560D01*
X164179683Y-89121838D01*
X164080472Y-89185678D01*
X163996890Y-89128569D01*
X163745000Y-89077560D01*
X163145000Y-89077560D01*
X162909683Y-89121838D01*
X162810472Y-89185678D01*
X162726890Y-89128569D01*
X162475000Y-89077560D01*
X161875000Y-89077560D01*
X161639683Y-89121838D01*
X161549020Y-89180178D01*
X161331310Y-89090000D01*
X161190750Y-89090000D01*
X161032000Y-89248750D01*
X161032000Y-90573000D01*
X161052000Y-90573000D01*
X161052000Y-90827000D01*
X161032000Y-90827000D01*
X161032000Y-92151250D01*
X161190750Y-92310000D01*
X161331310Y-92310000D01*
X161387600Y-92286684D01*
X161387600Y-93375000D01*
X161447537Y-93676325D01*
X161618224Y-93931776D01*
X162049048Y-94362600D01*
X160642152Y-94362600D01*
X158492002Y-92212450D01*
X158492002Y-92151252D01*
X158650750Y-92310000D01*
X158791310Y-92310000D01*
X159000000Y-92223558D01*
X159208690Y-92310000D01*
X159349250Y-92310000D01*
X159508000Y-92151250D01*
X159508000Y-90827000D01*
X159762000Y-90827000D01*
X159762000Y-92151250D01*
X159920750Y-92310000D01*
X160061310Y-92310000D01*
X160270000Y-92223558D01*
X160478690Y-92310000D01*
X160619250Y-92310000D01*
X160778000Y-92151250D01*
X160778000Y-90827000D01*
X159762000Y-90827000D01*
X159508000Y-90827000D01*
X158492000Y-90827000D01*
X158492000Y-90847000D01*
X158238000Y-90847000D01*
X158238000Y-90827000D01*
X158218000Y-90827000D01*
X158218000Y-90573000D01*
X158238000Y-90573000D01*
X158238000Y-89248750D01*
X158492000Y-89248750D01*
X158492000Y-90573000D01*
X159508000Y-90573000D01*
X159508000Y-89248750D01*
X159762000Y-89248750D01*
X159762000Y-90573000D01*
X160778000Y-90573000D01*
X160778000Y-89248750D01*
X160619250Y-89090000D01*
X160478690Y-89090000D01*
X160270000Y-89176442D01*
X160061310Y-89090000D01*
X159920750Y-89090000D01*
X159762000Y-89248750D01*
X159508000Y-89248750D01*
X159349250Y-89090000D01*
X159208690Y-89090000D01*
X159000000Y-89176442D01*
X158791310Y-89090000D01*
X158650750Y-89090000D01*
X158492000Y-89248750D01*
X158238000Y-89248750D01*
X158079250Y-89090000D01*
X157938690Y-89090000D01*
X157721878Y-89179806D01*
X157646890Y-89128569D01*
X157395000Y-89077560D01*
X156795000Y-89077560D01*
X156559683Y-89121838D01*
X156460472Y-89185678D01*
X156376890Y-89128569D01*
X156125000Y-89077560D01*
X155525000Y-89077560D01*
X155289683Y-89121838D01*
X155190472Y-89185678D01*
X155106890Y-89128569D01*
X154855000Y-89077560D01*
X154255000Y-89077560D01*
X154019683Y-89121838D01*
X153920472Y-89185678D01*
X153836890Y-89128569D01*
X153585000Y-89077560D01*
X152985000Y-89077560D01*
X152749683Y-89121838D01*
X152533559Y-89260910D01*
X152433784Y-89406936D01*
X152097038Y-88902962D01*
X152069379Y-88884481D01*
X152014090Y-88798559D01*
X151801890Y-88653569D01*
X151689836Y-88630877D01*
X151479012Y-88490009D01*
X150750000Y-88345000D01*
X148250000Y-88345000D01*
X147520988Y-88490009D01*
X147314342Y-88628086D01*
X147214683Y-88646838D01*
X146998559Y-88785910D01*
X146931702Y-88883758D01*
X146902962Y-88902962D01*
X146490009Y-89520988D01*
X146345000Y-90250000D01*
X146490009Y-90979012D01*
X146902962Y-91597038D01*
X146930621Y-91615519D01*
X146985910Y-91701441D01*
X147198110Y-91846431D01*
X147310164Y-91869123D01*
X147520988Y-92009991D01*
X148250000Y-92155000D01*
X148845000Y-92155000D01*
X148845000Y-93790000D01*
X148901379Y-94073439D01*
X126499719Y-94123000D01*
X126453841Y-94131685D01*
X126411447Y-94158965D01*
X126383006Y-94200590D01*
X126373000Y-94250000D01*
X126373000Y-104691582D01*
X121793000Y-100111582D01*
X121793000Y-91845000D01*
X125015678Y-91845000D01*
X125035910Y-91876441D01*
X125248110Y-92021431D01*
X125500000Y-92072440D01*
X127500000Y-92072440D01*
X127735317Y-92028162D01*
X127951441Y-91889090D01*
X128096431Y-91676890D01*
X128147440Y-91425000D01*
X128147440Y-89725000D01*
X128103162Y-89489683D01*
X127964090Y-89273559D01*
X127751890Y-89128569D01*
X127500000Y-89077560D01*
X125500000Y-89077560D01*
X125264683Y-89121838D01*
X125048559Y-89260910D01*
X125018434Y-89305000D01*
X121793000Y-89305000D01*
X121793000Y-71276154D01*
X121963160Y-71310001D01*
X121963165Y-71310000D01*
X122353724Y-71310000D01*
X122735845Y-71565325D01*
X123367655Y-71691000D01*
X123432345Y-71691000D01*
X124064155Y-71565325D01*
X124599778Y-71207433D01*
X124957670Y-70671810D01*
X125083345Y-70040000D01*
X124957670Y-69408190D01*
X124733034Y-69071999D01*
X124775698Y-69054327D01*
X124954327Y-68875699D01*
X125051000Y-68642310D01*
X125051000Y-67785750D01*
X124892250Y-67627000D01*
X123527000Y-67627000D01*
X123527000Y-67647000D01*
X123273000Y-67647000D01*
X123273000Y-67627000D01*
X123253000Y-67627000D01*
X123253000Y-67373000D01*
X123273000Y-67373000D01*
X123273000Y-66007750D01*
X123527000Y-66007750D01*
X123527000Y-67373000D01*
X124892250Y-67373000D01*
X125051000Y-67214250D01*
X125051000Y-66357690D01*
X124954327Y-66124301D01*
X124775698Y-65945673D01*
X124542309Y-65849000D01*
X123685750Y-65849000D01*
X123527000Y-66007750D01*
X123273000Y-66007750D01*
X123114250Y-65849000D01*
X122257691Y-65849000D01*
X122024302Y-65945673D01*
X121845673Y-66124301D01*
X121793000Y-66251465D01*
X121793000Y-65682656D01*
X122078656Y-65397000D01*
X123700000Y-65397000D01*
X123949138Y-65347444D01*
X124199544Y-65304633D01*
X124215786Y-65294404D01*
X124234609Y-65290660D01*
X124445817Y-65149535D01*
X124660779Y-65014156D01*
X125610779Y-64114156D01*
X125665027Y-64037533D01*
X125737113Y-63977380D01*
X125821141Y-63817031D01*
X125925745Y-63669284D01*
X125946542Y-63577732D01*
X125990120Y-63494573D01*
X126320028Y-62374080D01*
X127699949Y-63754000D01*
X127699949Y-63754000D01*
G37*
X127699949Y-63754000D02*
X126609974Y-64843974D01*
X126334673Y-65255992D01*
X126237999Y-65742000D01*
X126238000Y-65742005D01*
X126238000Y-69831949D01*
X124069974Y-71999974D01*
X124069972Y-71999977D01*
X123307974Y-72761974D01*
X123032673Y-73173992D01*
X122935999Y-73660000D01*
X122936000Y-73660005D01*
X122936000Y-80805995D01*
X122935999Y-80806000D01*
X123032673Y-81292008D01*
X123307974Y-81704026D01*
X125251972Y-83648023D01*
X125251974Y-83648026D01*
X125663992Y-83923327D01*
X126150000Y-84020000D01*
X129030000Y-84020000D01*
X129030000Y-84417625D01*
X129029999Y-84417630D01*
X129126673Y-84903638D01*
X129401974Y-85315656D01*
X133024342Y-88938023D01*
X133024344Y-88938026D01*
X133335606Y-89146004D01*
X133436362Y-89213327D01*
X133922370Y-89310001D01*
X133922375Y-89310000D01*
X134415389Y-89310000D01*
X134209697Y-89394990D01*
X133816371Y-89787630D01*
X133805836Y-89813000D01*
X132147440Y-89813000D01*
X132147440Y-89725000D01*
X132103162Y-89489683D01*
X131964090Y-89273559D01*
X131751890Y-89128569D01*
X131500000Y-89077560D01*
X129500000Y-89077560D01*
X129264683Y-89121838D01*
X129048559Y-89260910D01*
X128903569Y-89473110D01*
X128852560Y-89725000D01*
X128852560Y-91425000D01*
X128896838Y-91660317D01*
X129035910Y-91876441D01*
X129248110Y-92021431D01*
X129500000Y-92072440D01*
X131500000Y-92072440D01*
X131735317Y-92028162D01*
X131951441Y-91889090D01*
X132096431Y-91676890D01*
X132147440Y-91425000D01*
X132147440Y-91337000D01*
X133801230Y-91337000D01*
X133814990Y-91370303D01*
X134207630Y-91763629D01*
X134720900Y-91976757D01*
X135276661Y-91977242D01*
X135307054Y-91964684D01*
X135881184Y-92538815D01*
X136057257Y-92656463D01*
X136128395Y-92703996D01*
X136420000Y-92762000D01*
X142900000Y-92762000D01*
X143191605Y-92703996D01*
X143438815Y-92538815D01*
X146038815Y-89938816D01*
X146203996Y-89691605D01*
X146219796Y-89612172D01*
X146262000Y-89400000D01*
X146262000Y-86535750D01*
X146815000Y-86535750D01*
X146815000Y-87376309D01*
X146911673Y-87609698D01*
X147090301Y-87788327D01*
X147323690Y-87885000D01*
X147964250Y-87885000D01*
X148123000Y-87726250D01*
X148123000Y-86377000D01*
X148377000Y-86377000D01*
X148377000Y-87726250D01*
X148535750Y-87885000D01*
X149176310Y-87885000D01*
X149409699Y-87788327D01*
X149500000Y-87698025D01*
X149590301Y-87788327D01*
X149823690Y-87885000D01*
X150464250Y-87885000D01*
X150623000Y-87726250D01*
X150623000Y-86377000D01*
X150877000Y-86377000D01*
X150877000Y-87726250D01*
X151035750Y-87885000D01*
X151676310Y-87885000D01*
X151909699Y-87788327D01*
X152088327Y-87609698D01*
X152185000Y-87376309D01*
X152185000Y-86535750D01*
X152026250Y-86377000D01*
X150877000Y-86377000D01*
X150623000Y-86377000D01*
X148377000Y-86377000D01*
X148123000Y-86377000D01*
X146973750Y-86377000D01*
X146815000Y-86535750D01*
X146262000Y-86535750D01*
X146262000Y-85515630D01*
X147011237Y-84766393D01*
X147084603Y-84717371D01*
X146911673Y-84890302D01*
X146815000Y-85123691D01*
X146815000Y-85964250D01*
X146973750Y-86123000D01*
X148123000Y-86123000D01*
X148123000Y-84773750D01*
X148377000Y-84773750D01*
X148377000Y-86123000D01*
X150623000Y-86123000D01*
X150623000Y-84773750D01*
X150877000Y-84773750D01*
X150877000Y-86123000D01*
X152026250Y-86123000D01*
X152185000Y-85964250D01*
X152185000Y-85123691D01*
X152088327Y-84890302D01*
X151909699Y-84711673D01*
X151676310Y-84615000D01*
X151035750Y-84615000D01*
X150877000Y-84773750D01*
X150623000Y-84773750D01*
X150464250Y-84615000D01*
X149823690Y-84615000D01*
X149590301Y-84711673D01*
X149500000Y-84801975D01*
X149409699Y-84711673D01*
X149176310Y-84615000D01*
X148535750Y-84615000D01*
X148377000Y-84773750D01*
X148123000Y-84773750D01*
X147964250Y-84615000D01*
X147323690Y-84615000D01*
X147097746Y-84708589D01*
X147228196Y-84621425D01*
X147301312Y-84512000D01*
X153525000Y-84512000D01*
X153816605Y-84453996D01*
X154063815Y-84288815D01*
X155093815Y-83258815D01*
X155199932Y-83100000D01*
X155258996Y-83011605D01*
X155286345Y-82874111D01*
X155525000Y-82922440D01*
X156125000Y-82922440D01*
X156360317Y-82878162D01*
X156459528Y-82814322D01*
X156543110Y-82871431D01*
X156795000Y-82922440D01*
X157395000Y-82922440D01*
X157630317Y-82878162D01*
X157720980Y-82819822D01*
X157938690Y-82910000D01*
X158079250Y-82910000D01*
X158238000Y-82751250D01*
X158238000Y-81427000D01*
X158492000Y-81427000D01*
X158492000Y-82751250D01*
X158650750Y-82910000D01*
X158791310Y-82910000D01*
X159000000Y-82823558D01*
X159208690Y-82910000D01*
X159349250Y-82910000D01*
X159508000Y-82751250D01*
X159508000Y-81427000D01*
X159762000Y-81427000D01*
X159762000Y-82751250D01*
X159920750Y-82910000D01*
X160061310Y-82910000D01*
X160270000Y-82823558D01*
X160478690Y-82910000D01*
X160619250Y-82910000D01*
X160778000Y-82751250D01*
X160778000Y-81427000D01*
X159762000Y-81427000D01*
X159508000Y-81427000D01*
X158492000Y-81427000D01*
X158238000Y-81427000D01*
X158218000Y-81427000D01*
X158218000Y-81173000D01*
X158238000Y-81173000D01*
X158238000Y-81153000D01*
X158492000Y-81153000D01*
X158492000Y-81173000D01*
X159508000Y-81173000D01*
X159508000Y-79848750D01*
X159762000Y-79848750D01*
X159762000Y-81173000D01*
X160778000Y-81173000D01*
X160778000Y-79848750D01*
X160619250Y-79690000D01*
X160478690Y-79690000D01*
X160270000Y-79776442D01*
X160061310Y-79690000D01*
X159920750Y-79690000D01*
X159762000Y-79848750D01*
X159508000Y-79848750D01*
X159349250Y-79690000D01*
X159208690Y-79690000D01*
X159000000Y-79776442D01*
X158791310Y-79690000D01*
X158650750Y-79690000D01*
X158492002Y-79848748D01*
X158492002Y-79690000D01*
X158476710Y-79690000D01*
X159076743Y-79089967D01*
X161668323Y-79089967D01*
X161654145Y-79104145D01*
X161494470Y-79343115D01*
X161438400Y-79625000D01*
X161438400Y-79734358D01*
X161331310Y-79690000D01*
X161190750Y-79690000D01*
X161032000Y-79848750D01*
X161032000Y-81173000D01*
X161052000Y-81173000D01*
X161052000Y-81427000D01*
X161032000Y-81427000D01*
X161032000Y-82751250D01*
X161190750Y-82910000D01*
X161331310Y-82910000D01*
X161548122Y-82820194D01*
X161623110Y-82871431D01*
X161875000Y-82922440D01*
X162475000Y-82922440D01*
X162710317Y-82878162D01*
X162809528Y-82814322D01*
X162893110Y-82871431D01*
X163145000Y-82922440D01*
X163745000Y-82922440D01*
X163980317Y-82878162D01*
X164079528Y-82814322D01*
X164163110Y-82871431D01*
X164415000Y-82922440D01*
X165015000Y-82922440D01*
X165250317Y-82878162D01*
X165288400Y-82853656D01*
X165288400Y-89143266D01*
X165266890Y-89128569D01*
X165015000Y-89077560D01*
X164415000Y-89077560D01*
X164179683Y-89121838D01*
X164080472Y-89185678D01*
X163996890Y-89128569D01*
X163745000Y-89077560D01*
X163145000Y-89077560D01*
X162909683Y-89121838D01*
X162810472Y-89185678D01*
X162726890Y-89128569D01*
X162475000Y-89077560D01*
X161875000Y-89077560D01*
X161639683Y-89121838D01*
X161549020Y-89180178D01*
X161331310Y-89090000D01*
X161190750Y-89090000D01*
X161032000Y-89248750D01*
X161032000Y-90573000D01*
X161052000Y-90573000D01*
X161052000Y-90827000D01*
X161032000Y-90827000D01*
X161032000Y-92151250D01*
X161190750Y-92310000D01*
X161331310Y-92310000D01*
X161387600Y-92286684D01*
X161387600Y-93375000D01*
X161447537Y-93676325D01*
X161618224Y-93931776D01*
X162049048Y-94362600D01*
X160642152Y-94362600D01*
X158492002Y-92212450D01*
X158492002Y-92151252D01*
X158650750Y-92310000D01*
X158791310Y-92310000D01*
X159000000Y-92223558D01*
X159208690Y-92310000D01*
X159349250Y-92310000D01*
X159508000Y-92151250D01*
X159508000Y-90827000D01*
X159762000Y-90827000D01*
X159762000Y-92151250D01*
X159920750Y-92310000D01*
X160061310Y-92310000D01*
X160270000Y-92223558D01*
X160478690Y-92310000D01*
X160619250Y-92310000D01*
X160778000Y-92151250D01*
X160778000Y-90827000D01*
X159762000Y-90827000D01*
X159508000Y-90827000D01*
X158492000Y-90827000D01*
X158492000Y-90847000D01*
X158238000Y-90847000D01*
X158238000Y-90827000D01*
X158218000Y-90827000D01*
X158218000Y-90573000D01*
X158238000Y-90573000D01*
X158238000Y-89248750D01*
X158492000Y-89248750D01*
X158492000Y-90573000D01*
X159508000Y-90573000D01*
X159508000Y-89248750D01*
X159762000Y-89248750D01*
X159762000Y-90573000D01*
X160778000Y-90573000D01*
X160778000Y-89248750D01*
X160619250Y-89090000D01*
X160478690Y-89090000D01*
X160270000Y-89176442D01*
X160061310Y-89090000D01*
X159920750Y-89090000D01*
X159762000Y-89248750D01*
X159508000Y-89248750D01*
X159349250Y-89090000D01*
X159208690Y-89090000D01*
X159000000Y-89176442D01*
X158791310Y-89090000D01*
X158650750Y-89090000D01*
X158492000Y-89248750D01*
X158238000Y-89248750D01*
X158079250Y-89090000D01*
X157938690Y-89090000D01*
X157721878Y-89179806D01*
X157646890Y-89128569D01*
X157395000Y-89077560D01*
X156795000Y-89077560D01*
X156559683Y-89121838D01*
X156460472Y-89185678D01*
X156376890Y-89128569D01*
X156125000Y-89077560D01*
X155525000Y-89077560D01*
X155289683Y-89121838D01*
X155190472Y-89185678D01*
X155106890Y-89128569D01*
X154855000Y-89077560D01*
X154255000Y-89077560D01*
X154019683Y-89121838D01*
X153920472Y-89185678D01*
X153836890Y-89128569D01*
X153585000Y-89077560D01*
X152985000Y-89077560D01*
X152749683Y-89121838D01*
X152533559Y-89260910D01*
X152433784Y-89406936D01*
X152097038Y-88902962D01*
X152069379Y-88884481D01*
X152014090Y-88798559D01*
X151801890Y-88653569D01*
X151689836Y-88630877D01*
X151479012Y-88490009D01*
X150750000Y-88345000D01*
X148250000Y-88345000D01*
X147520988Y-88490009D01*
X147314342Y-88628086D01*
X147214683Y-88646838D01*
X146998559Y-88785910D01*
X146931702Y-88883758D01*
X146902962Y-88902962D01*
X146490009Y-89520988D01*
X146345000Y-90250000D01*
X146490009Y-90979012D01*
X146902962Y-91597038D01*
X146930621Y-91615519D01*
X146985910Y-91701441D01*
X147198110Y-91846431D01*
X147310164Y-91869123D01*
X147520988Y-92009991D01*
X148250000Y-92155000D01*
X148845000Y-92155000D01*
X148845000Y-93790000D01*
X148901379Y-94073439D01*
X126499719Y-94123000D01*
X126453841Y-94131685D01*
X126411447Y-94158965D01*
X126383006Y-94200590D01*
X126373000Y-94250000D01*
X126373000Y-104691582D01*
X121793000Y-100111582D01*
X121793000Y-91845000D01*
X125015678Y-91845000D01*
X125035910Y-91876441D01*
X125248110Y-92021431D01*
X125500000Y-92072440D01*
X127500000Y-92072440D01*
X127735317Y-92028162D01*
X127951441Y-91889090D01*
X128096431Y-91676890D01*
X128147440Y-91425000D01*
X128147440Y-89725000D01*
X128103162Y-89489683D01*
X127964090Y-89273559D01*
X127751890Y-89128569D01*
X127500000Y-89077560D01*
X125500000Y-89077560D01*
X125264683Y-89121838D01*
X125048559Y-89260910D01*
X125018434Y-89305000D01*
X121793000Y-89305000D01*
X121793000Y-71276154D01*
X121963160Y-71310001D01*
X121963165Y-71310000D01*
X122353724Y-71310000D01*
X122735845Y-71565325D01*
X123367655Y-71691000D01*
X123432345Y-71691000D01*
X124064155Y-71565325D01*
X124599778Y-71207433D01*
X124957670Y-70671810D01*
X125083345Y-70040000D01*
X124957670Y-69408190D01*
X124733034Y-69071999D01*
X124775698Y-69054327D01*
X124954327Y-68875699D01*
X125051000Y-68642310D01*
X125051000Y-67785750D01*
X124892250Y-67627000D01*
X123527000Y-67627000D01*
X123527000Y-67647000D01*
X123273000Y-67647000D01*
X123273000Y-67627000D01*
X123253000Y-67627000D01*
X123253000Y-67373000D01*
X123273000Y-67373000D01*
X123273000Y-66007750D01*
X123527000Y-66007750D01*
X123527000Y-67373000D01*
X124892250Y-67373000D01*
X125051000Y-67214250D01*
X125051000Y-66357690D01*
X124954327Y-66124301D01*
X124775698Y-65945673D01*
X124542309Y-65849000D01*
X123685750Y-65849000D01*
X123527000Y-66007750D01*
X123273000Y-66007750D01*
X123114250Y-65849000D01*
X122257691Y-65849000D01*
X122024302Y-65945673D01*
X121845673Y-66124301D01*
X121793000Y-66251465D01*
X121793000Y-65682656D01*
X122078656Y-65397000D01*
X123700000Y-65397000D01*
X123949138Y-65347444D01*
X124199544Y-65304633D01*
X124215786Y-65294404D01*
X124234609Y-65290660D01*
X124445817Y-65149535D01*
X124660779Y-65014156D01*
X125610779Y-64114156D01*
X125665027Y-64037533D01*
X125737113Y-63977380D01*
X125821141Y-63817031D01*
X125925745Y-63669284D01*
X125946542Y-63577732D01*
X125990120Y-63494573D01*
X126320028Y-62374080D01*
X127699949Y-63754000D01*
G36*
X142461185Y-69638816D02*
X142577309Y-69716407D01*
X142708395Y-69803996D01*
X143000000Y-69862000D01*
X150684370Y-69862000D01*
X153302177Y-72479807D01*
X153129039Y-72408096D01*
X152907000Y-72530085D01*
X152907000Y-73673000D01*
X154050629Y-73673000D01*
X154171914Y-73450959D01*
X154080787Y-73258417D01*
X157016705Y-76194335D01*
X154943665Y-76194335D01*
X154652060Y-76252339D01*
X154404849Y-76417520D01*
X154385810Y-76436560D01*
X154276250Y-76327000D01*
X152927000Y-76327000D01*
X152927000Y-77476250D01*
X153085750Y-77635000D01*
X153187370Y-77635000D01*
X152684370Y-78138000D01*
X148500000Y-78138000D01*
X148208395Y-78196004D01*
X148067715Y-78290004D01*
X147961185Y-78361185D01*
X143761185Y-82561185D01*
X143596004Y-82808395D01*
X143538000Y-83100000D01*
X143538000Y-83311460D01*
X143398026Y-83101974D01*
X142148026Y-81851974D01*
X141736008Y-81576673D01*
X141250000Y-81479999D01*
X141249995Y-81480000D01*
X137104076Y-81480000D01*
X137134600Y-81406309D01*
X137134600Y-80549750D01*
X136975850Y-80391000D01*
X135763000Y-80391000D01*
X135763000Y-80411000D01*
X135509000Y-80411000D01*
X135509000Y-80391000D01*
X135489000Y-80391000D01*
X135489000Y-80137000D01*
X135509000Y-80137000D01*
X135509000Y-80117000D01*
X135763000Y-80117000D01*
X135763000Y-80137000D01*
X136975850Y-80137000D01*
X137134600Y-79978250D01*
X137134600Y-79121691D01*
X137081709Y-78994000D01*
X142553802Y-78994000D01*
X142845407Y-78935996D01*
X143092617Y-78770815D01*
X144517814Y-77345618D01*
X144543285Y-77307498D01*
X144635910Y-77451441D01*
X144848110Y-77596431D01*
X145100000Y-77647440D01*
X147100000Y-77647440D01*
X147335317Y-77603162D01*
X147449978Y-77529380D01*
X147548110Y-77596431D01*
X147800000Y-77647440D01*
X149800000Y-77647440D01*
X150035317Y-77603162D01*
X150251441Y-77464090D01*
X150396431Y-77251890D01*
X150447440Y-77000000D01*
X150447440Y-76485750D01*
X151165000Y-76485750D01*
X151165000Y-77126310D01*
X151261673Y-77359699D01*
X151440302Y-77538327D01*
X151673691Y-77635000D01*
X152514250Y-77635000D01*
X152673000Y-77476250D01*
X152673000Y-76327000D01*
X151323750Y-76327000D01*
X151165000Y-76485750D01*
X150447440Y-76485750D01*
X150447440Y-75400000D01*
X150415128Y-75228278D01*
X150789151Y-75153880D01*
X151254698Y-74842811D01*
X151524986Y-74438297D01*
X151627611Y-74655134D01*
X151748893Y-74765000D01*
X151673691Y-74765000D01*
X151440302Y-74861673D01*
X151261673Y-75040301D01*
X151165000Y-75273690D01*
X151165000Y-75914250D01*
X151323750Y-76073000D01*
X152673000Y-76073000D01*
X152673000Y-74923750D01*
X152653000Y-74903750D01*
X152653000Y-73927000D01*
X152907000Y-73927000D01*
X152907000Y-75069915D01*
X152927000Y-75080903D01*
X152927000Y-76073000D01*
X154276250Y-76073000D01*
X154435000Y-75914250D01*
X154435000Y-75273690D01*
X154338327Y-75040301D01*
X154159698Y-74861673D01*
X153926309Y-74765000D01*
X153811107Y-74765000D01*
X153932389Y-74655134D01*
X154171914Y-74149041D01*
X154050629Y-73927000D01*
X152907000Y-73927000D01*
X152653000Y-73927000D01*
X152633000Y-73927000D01*
X152633000Y-73673000D01*
X152653000Y-73673000D01*
X152653000Y-72530085D01*
X152430961Y-72408096D01*
X152042577Y-72568959D01*
X151627611Y-72944866D01*
X151524986Y-73161703D01*
X151254698Y-72757189D01*
X150789151Y-72446120D01*
X150240000Y-72336887D01*
X149690849Y-72446120D01*
X149225302Y-72757189D01*
X148970000Y-73139275D01*
X148714698Y-72757189D01*
X148249151Y-72446120D01*
X147700000Y-72336887D01*
X147150849Y-72446120D01*
X146685302Y-72757189D01*
X146430000Y-73139275D01*
X146174698Y-72757189D01*
X145709151Y-72446120D01*
X145160000Y-72336887D01*
X144740999Y-72420232D01*
X144740999Y-72297433D01*
X144682995Y-72005828D01*
X144517814Y-71758618D01*
X140348834Y-67589638D01*
X140401527Y-67579157D01*
X142461185Y-69638816D01*
X142461185Y-69638816D01*
G37*
X142461185Y-69638816D02*
X142577309Y-69716407D01*
X142708395Y-69803996D01*
X143000000Y-69862000D01*
X150684370Y-69862000D01*
X153302177Y-72479807D01*
X153129039Y-72408096D01*
X152907000Y-72530085D01*
X152907000Y-73673000D01*
X154050629Y-73673000D01*
X154171914Y-73450959D01*
X154080787Y-73258417D01*
X157016705Y-76194335D01*
X154943665Y-76194335D01*
X154652060Y-76252339D01*
X154404849Y-76417520D01*
X154385810Y-76436560D01*
X154276250Y-76327000D01*
X152927000Y-76327000D01*
X152927000Y-77476250D01*
X153085750Y-77635000D01*
X153187370Y-77635000D01*
X152684370Y-78138000D01*
X148500000Y-78138000D01*
X148208395Y-78196004D01*
X148067715Y-78290004D01*
X147961185Y-78361185D01*
X143761185Y-82561185D01*
X143596004Y-82808395D01*
X143538000Y-83100000D01*
X143538000Y-83311460D01*
X143398026Y-83101974D01*
X142148026Y-81851974D01*
X141736008Y-81576673D01*
X141250000Y-81479999D01*
X141249995Y-81480000D01*
X137104076Y-81480000D01*
X137134600Y-81406309D01*
X137134600Y-80549750D01*
X136975850Y-80391000D01*
X135763000Y-80391000D01*
X135763000Y-80411000D01*
X135509000Y-80411000D01*
X135509000Y-80391000D01*
X135489000Y-80391000D01*
X135489000Y-80137000D01*
X135509000Y-80137000D01*
X135509000Y-80117000D01*
X135763000Y-80117000D01*
X135763000Y-80137000D01*
X136975850Y-80137000D01*
X137134600Y-79978250D01*
X137134600Y-79121691D01*
X137081709Y-78994000D01*
X142553802Y-78994000D01*
X142845407Y-78935996D01*
X143092617Y-78770815D01*
X144517814Y-77345618D01*
X144543285Y-77307498D01*
X144635910Y-77451441D01*
X144848110Y-77596431D01*
X145100000Y-77647440D01*
X147100000Y-77647440D01*
X147335317Y-77603162D01*
X147449978Y-77529380D01*
X147548110Y-77596431D01*
X147800000Y-77647440D01*
X149800000Y-77647440D01*
X150035317Y-77603162D01*
X150251441Y-77464090D01*
X150396431Y-77251890D01*
X150447440Y-77000000D01*
X150447440Y-76485750D01*
X151165000Y-76485750D01*
X151165000Y-77126310D01*
X151261673Y-77359699D01*
X151440302Y-77538327D01*
X151673691Y-77635000D01*
X152514250Y-77635000D01*
X152673000Y-77476250D01*
X152673000Y-76327000D01*
X151323750Y-76327000D01*
X151165000Y-76485750D01*
X150447440Y-76485750D01*
X150447440Y-75400000D01*
X150415128Y-75228278D01*
X150789151Y-75153880D01*
X151254698Y-74842811D01*
X151524986Y-74438297D01*
X151627611Y-74655134D01*
X151748893Y-74765000D01*
X151673691Y-74765000D01*
X151440302Y-74861673D01*
X151261673Y-75040301D01*
X151165000Y-75273690D01*
X151165000Y-75914250D01*
X151323750Y-76073000D01*
X152673000Y-76073000D01*
X152673000Y-74923750D01*
X152653000Y-74903750D01*
X152653000Y-73927000D01*
X152907000Y-73927000D01*
X152907000Y-75069915D01*
X152927000Y-75080903D01*
X152927000Y-76073000D01*
X154276250Y-76073000D01*
X154435000Y-75914250D01*
X154435000Y-75273690D01*
X154338327Y-75040301D01*
X154159698Y-74861673D01*
X153926309Y-74765000D01*
X153811107Y-74765000D01*
X153932389Y-74655134D01*
X154171914Y-74149041D01*
X154050629Y-73927000D01*
X152907000Y-73927000D01*
X152653000Y-73927000D01*
X152633000Y-73927000D01*
X152633000Y-73673000D01*
X152653000Y-73673000D01*
X152653000Y-72530085D01*
X152430961Y-72408096D01*
X152042577Y-72568959D01*
X151627611Y-72944866D01*
X151524986Y-73161703D01*
X151254698Y-72757189D01*
X150789151Y-72446120D01*
X150240000Y-72336887D01*
X149690849Y-72446120D01*
X149225302Y-72757189D01*
X148970000Y-73139275D01*
X148714698Y-72757189D01*
X148249151Y-72446120D01*
X147700000Y-72336887D01*
X147150849Y-72446120D01*
X146685302Y-72757189D01*
X146430000Y-73139275D01*
X146174698Y-72757189D01*
X145709151Y-72446120D01*
X145160000Y-72336887D01*
X144740999Y-72420232D01*
X144740999Y-72297433D01*
X144682995Y-72005828D01*
X144517814Y-71758618D01*
X140348834Y-67589638D01*
X140401527Y-67579157D01*
X142461185Y-69638816D01*
G36*
X132634000Y-65070001D02*
X132634005Y-65070000D01*
X132763072Y-65070000D01*
X132948110Y-65196431D01*
X133200000Y-65247440D01*
X133911635Y-65247440D01*
X133674233Y-65602736D01*
X133565000Y-66151887D01*
X133565000Y-66208113D01*
X133674233Y-66757264D01*
X133985302Y-67222811D01*
X134450849Y-67533880D01*
X135000000Y-67643113D01*
X135549151Y-67533880D01*
X136014698Y-67222811D01*
X136284986Y-66818297D01*
X136387611Y-67035134D01*
X136802577Y-67411041D01*
X137190961Y-67571904D01*
X137413000Y-67449915D01*
X137413000Y-66307000D01*
X137393000Y-66307000D01*
X137393000Y-66053000D01*
X137413000Y-66053000D01*
X137413000Y-66033000D01*
X137667000Y-66033000D01*
X137667000Y-66053000D01*
X137687000Y-66053000D01*
X137687000Y-66307000D01*
X137667000Y-66307000D01*
X137667000Y-67449915D01*
X137889039Y-67571904D01*
X138183267Y-67450039D01*
X138195003Y-67509038D01*
X138330074Y-67711185D01*
X138360184Y-67756248D01*
X143020484Y-72416548D01*
X142620000Y-72336887D01*
X142070849Y-72446120D01*
X141605302Y-72757189D01*
X141350000Y-73139275D01*
X141094698Y-72757189D01*
X140629151Y-72446120D01*
X140080000Y-72336887D01*
X139530849Y-72446120D01*
X139065302Y-72757189D01*
X138810000Y-73139275D01*
X138554698Y-72757189D01*
X138089151Y-72446120D01*
X137540000Y-72336887D01*
X137428203Y-72359125D01*
X136204539Y-71135461D01*
X135899646Y-70931738D01*
X135540000Y-70860200D01*
X132647440Y-70860200D01*
X132647440Y-70800000D01*
X132603162Y-70564683D01*
X132464090Y-70348559D01*
X132251890Y-70203569D01*
X132000000Y-70152560D01*
X130400000Y-70152560D01*
X130164683Y-70196838D01*
X129948559Y-70335910D01*
X129803569Y-70548110D01*
X129752560Y-70800000D01*
X129752560Y-72800000D01*
X129796838Y-73035317D01*
X129935910Y-73251441D01*
X130148110Y-73396431D01*
X130400000Y-73447440D01*
X132000000Y-73447440D01*
X132235317Y-73403162D01*
X132451441Y-73264090D01*
X132596431Y-73051890D01*
X132647440Y-72800000D01*
X132647440Y-72739800D01*
X134011326Y-72739800D01*
X133985302Y-72757189D01*
X133674233Y-73222736D01*
X133565000Y-73771887D01*
X133565000Y-73828113D01*
X133674233Y-74377264D01*
X133985302Y-74842811D01*
X134038254Y-74878193D01*
X133948559Y-74935910D01*
X133803569Y-75148110D01*
X133752560Y-75400000D01*
X133752560Y-77000000D01*
X133775026Y-77119395D01*
X133078815Y-76423185D01*
X132985045Y-76360530D01*
X132933440Y-76326048D01*
X132933440Y-76112000D01*
X132889162Y-75876683D01*
X132750090Y-75660559D01*
X132537890Y-75515569D01*
X132286000Y-75464560D01*
X130286000Y-75464560D01*
X130050683Y-75508838D01*
X129834559Y-75647910D01*
X129689569Y-75860110D01*
X129638560Y-76112000D01*
X129638560Y-77812000D01*
X129682838Y-78047317D01*
X129821910Y-78263441D01*
X130034110Y-78408431D01*
X130286000Y-78459440D01*
X132286000Y-78459440D01*
X132521317Y-78415162D01*
X132734184Y-78278186D01*
X132557185Y-78455185D01*
X132392004Y-78702395D01*
X132373758Y-78794123D01*
X132036330Y-79019585D01*
X131826000Y-79334366D01*
X131615670Y-79019585D01*
X131129489Y-78694729D01*
X130556000Y-78580655D01*
X129982511Y-78694729D01*
X129496330Y-79019585D01*
X129171474Y-79505766D01*
X129057400Y-80079255D01*
X129057400Y-80448745D01*
X129171474Y-81022234D01*
X129286000Y-81193634D01*
X129286000Y-81480000D01*
X126676051Y-81480000D01*
X125476000Y-80279948D01*
X125476000Y-74828051D01*
X126016000Y-75368051D01*
X126016000Y-75531156D01*
X125834559Y-75647910D01*
X125689569Y-75860110D01*
X125638560Y-76112000D01*
X125638560Y-77812000D01*
X125682838Y-78047317D01*
X125821910Y-78263441D01*
X126034110Y-78408431D01*
X126286000Y-78459440D01*
X128286000Y-78459440D01*
X128521317Y-78415162D01*
X128737441Y-78276090D01*
X128882431Y-78063890D01*
X128933440Y-77812000D01*
X128933440Y-76112000D01*
X128889162Y-75876683D01*
X128750090Y-75660559D01*
X128556000Y-75527943D01*
X128556000Y-74842000D01*
X128459327Y-74355992D01*
X128184026Y-73943974D01*
X128184023Y-73943972D01*
X126951052Y-72711000D01*
X128406023Y-71256028D01*
X128406026Y-71256026D01*
X128681327Y-70844008D01*
X128778000Y-70358000D01*
X128778000Y-68085750D01*
X129765000Y-68085750D01*
X129765000Y-68926309D01*
X129861673Y-69159698D01*
X130040301Y-69338327D01*
X130273690Y-69435000D01*
X130914250Y-69435000D01*
X131073000Y-69276250D01*
X131073000Y-67927000D01*
X131327000Y-67927000D01*
X131327000Y-69276250D01*
X131485750Y-69435000D01*
X132126310Y-69435000D01*
X132359699Y-69338327D01*
X132538327Y-69159698D01*
X132635000Y-68926309D01*
X132635000Y-68085750D01*
X132476250Y-67927000D01*
X131327000Y-67927000D01*
X131073000Y-67927000D01*
X129923750Y-67927000D01*
X129765000Y-68085750D01*
X128778000Y-68085750D01*
X128778000Y-66673691D01*
X129765000Y-66673691D01*
X129765000Y-67514250D01*
X129923750Y-67673000D01*
X131073000Y-67673000D01*
X131073000Y-66323750D01*
X131327000Y-66323750D01*
X131327000Y-67673000D01*
X132476250Y-67673000D01*
X132635000Y-67514250D01*
X132635000Y-66673691D01*
X132538327Y-66440302D01*
X132359699Y-66261673D01*
X132126310Y-66165000D01*
X131485750Y-66165000D01*
X131327000Y-66323750D01*
X131073000Y-66323750D01*
X130914250Y-66165000D01*
X130273690Y-66165000D01*
X130040301Y-66261673D01*
X129861673Y-66440302D01*
X129765000Y-66673691D01*
X128778000Y-66673691D01*
X128778000Y-66268052D01*
X130022051Y-65024000D01*
X132402740Y-65024000D01*
X132634000Y-65070001D01*
X132634000Y-65070001D01*
G37*
X132634000Y-65070001D02*
X132634005Y-65070000D01*
X132763072Y-65070000D01*
X132948110Y-65196431D01*
X133200000Y-65247440D01*
X133911635Y-65247440D01*
X133674233Y-65602736D01*
X133565000Y-66151887D01*
X133565000Y-66208113D01*
X133674233Y-66757264D01*
X133985302Y-67222811D01*
X134450849Y-67533880D01*
X135000000Y-67643113D01*
X135549151Y-67533880D01*
X136014698Y-67222811D01*
X136284986Y-66818297D01*
X136387611Y-67035134D01*
X136802577Y-67411041D01*
X137190961Y-67571904D01*
X137413000Y-67449915D01*
X137413000Y-66307000D01*
X137393000Y-66307000D01*
X137393000Y-66053000D01*
X137413000Y-66053000D01*
X137413000Y-66033000D01*
X137667000Y-66033000D01*
X137667000Y-66053000D01*
X137687000Y-66053000D01*
X137687000Y-66307000D01*
X137667000Y-66307000D01*
X137667000Y-67449915D01*
X137889039Y-67571904D01*
X138183267Y-67450039D01*
X138195003Y-67509038D01*
X138330074Y-67711185D01*
X138360184Y-67756248D01*
X143020484Y-72416548D01*
X142620000Y-72336887D01*
X142070849Y-72446120D01*
X141605302Y-72757189D01*
X141350000Y-73139275D01*
X141094698Y-72757189D01*
X140629151Y-72446120D01*
X140080000Y-72336887D01*
X139530849Y-72446120D01*
X139065302Y-72757189D01*
X138810000Y-73139275D01*
X138554698Y-72757189D01*
X138089151Y-72446120D01*
X137540000Y-72336887D01*
X137428203Y-72359125D01*
X136204539Y-71135461D01*
X135899646Y-70931738D01*
X135540000Y-70860200D01*
X132647440Y-70860200D01*
X132647440Y-70800000D01*
X132603162Y-70564683D01*
X132464090Y-70348559D01*
X132251890Y-70203569D01*
X132000000Y-70152560D01*
X130400000Y-70152560D01*
X130164683Y-70196838D01*
X129948559Y-70335910D01*
X129803569Y-70548110D01*
X129752560Y-70800000D01*
X129752560Y-72800000D01*
X129796838Y-73035317D01*
X129935910Y-73251441D01*
X130148110Y-73396431D01*
X130400000Y-73447440D01*
X132000000Y-73447440D01*
X132235317Y-73403162D01*
X132451441Y-73264090D01*
X132596431Y-73051890D01*
X132647440Y-72800000D01*
X132647440Y-72739800D01*
X134011326Y-72739800D01*
X133985302Y-72757189D01*
X133674233Y-73222736D01*
X133565000Y-73771887D01*
X133565000Y-73828113D01*
X133674233Y-74377264D01*
X133985302Y-74842811D01*
X134038254Y-74878193D01*
X133948559Y-74935910D01*
X133803569Y-75148110D01*
X133752560Y-75400000D01*
X133752560Y-77000000D01*
X133775026Y-77119395D01*
X133078815Y-76423185D01*
X132985045Y-76360530D01*
X132933440Y-76326048D01*
X132933440Y-76112000D01*
X132889162Y-75876683D01*
X132750090Y-75660559D01*
X132537890Y-75515569D01*
X132286000Y-75464560D01*
X130286000Y-75464560D01*
X130050683Y-75508838D01*
X129834559Y-75647910D01*
X129689569Y-75860110D01*
X129638560Y-76112000D01*
X129638560Y-77812000D01*
X129682838Y-78047317D01*
X129821910Y-78263441D01*
X130034110Y-78408431D01*
X130286000Y-78459440D01*
X132286000Y-78459440D01*
X132521317Y-78415162D01*
X132734184Y-78278186D01*
X132557185Y-78455185D01*
X132392004Y-78702395D01*
X132373758Y-78794123D01*
X132036330Y-79019585D01*
X131826000Y-79334366D01*
X131615670Y-79019585D01*
X131129489Y-78694729D01*
X130556000Y-78580655D01*
X129982511Y-78694729D01*
X129496330Y-79019585D01*
X129171474Y-79505766D01*
X129057400Y-80079255D01*
X129057400Y-80448745D01*
X129171474Y-81022234D01*
X129286000Y-81193634D01*
X129286000Y-81480000D01*
X126676051Y-81480000D01*
X125476000Y-80279948D01*
X125476000Y-74828051D01*
X126016000Y-75368051D01*
X126016000Y-75531156D01*
X125834559Y-75647910D01*
X125689569Y-75860110D01*
X125638560Y-76112000D01*
X125638560Y-77812000D01*
X125682838Y-78047317D01*
X125821910Y-78263441D01*
X126034110Y-78408431D01*
X126286000Y-78459440D01*
X128286000Y-78459440D01*
X128521317Y-78415162D01*
X128737441Y-78276090D01*
X128882431Y-78063890D01*
X128933440Y-77812000D01*
X128933440Y-76112000D01*
X128889162Y-75876683D01*
X128750090Y-75660559D01*
X128556000Y-75527943D01*
X128556000Y-74842000D01*
X128459327Y-74355992D01*
X128184026Y-73943974D01*
X128184023Y-73943972D01*
X126951052Y-72711000D01*
X128406023Y-71256028D01*
X128406026Y-71256026D01*
X128681327Y-70844008D01*
X128778000Y-70358000D01*
X128778000Y-68085750D01*
X129765000Y-68085750D01*
X129765000Y-68926309D01*
X129861673Y-69159698D01*
X130040301Y-69338327D01*
X130273690Y-69435000D01*
X130914250Y-69435000D01*
X131073000Y-69276250D01*
X131073000Y-67927000D01*
X131327000Y-67927000D01*
X131327000Y-69276250D01*
X131485750Y-69435000D01*
X132126310Y-69435000D01*
X132359699Y-69338327D01*
X132538327Y-69159698D01*
X132635000Y-68926309D01*
X132635000Y-68085750D01*
X132476250Y-67927000D01*
X131327000Y-67927000D01*
X131073000Y-67927000D01*
X129923750Y-67927000D01*
X129765000Y-68085750D01*
X128778000Y-68085750D01*
X128778000Y-66673691D01*
X129765000Y-66673691D01*
X129765000Y-67514250D01*
X129923750Y-67673000D01*
X131073000Y-67673000D01*
X131073000Y-66323750D01*
X131327000Y-66323750D01*
X131327000Y-67673000D01*
X132476250Y-67673000D01*
X132635000Y-67514250D01*
X132635000Y-66673691D01*
X132538327Y-66440302D01*
X132359699Y-66261673D01*
X132126310Y-66165000D01*
X131485750Y-66165000D01*
X131327000Y-66323750D01*
X131073000Y-66323750D01*
X130914250Y-66165000D01*
X130273690Y-66165000D01*
X130040301Y-66261673D01*
X129861673Y-66440302D01*
X129765000Y-66673691D01*
X128778000Y-66673691D01*
X128778000Y-66268052D01*
X130022051Y-65024000D01*
X132402740Y-65024000D01*
X132634000Y-65070001D01*
G36*
X145730330Y-60959029D02*
X146216511Y-61283885D01*
X146455339Y-61331391D01*
X148251974Y-63128026D01*
X148663992Y-63403327D01*
X149150000Y-63500001D01*
X149150005Y-63500000D01*
X152683948Y-63500000D01*
X154581972Y-65398023D01*
X154581974Y-65398026D01*
X154945888Y-65641185D01*
X154993992Y-65673327D01*
X155480000Y-65770001D01*
X155480005Y-65770000D01*
X156169156Y-65770000D01*
X156285910Y-65951441D01*
X156498110Y-66096431D01*
X156750000Y-66147440D01*
X158450000Y-66147440D01*
X158685317Y-66103162D01*
X158825727Y-66012810D01*
X158948110Y-66096431D01*
X159200000Y-66147440D01*
X160800000Y-66147440D01*
X161035317Y-66103162D01*
X161251441Y-65964090D01*
X161384057Y-65770000D01*
X161894995Y-65770000D01*
X161895000Y-65770001D01*
X162381008Y-65673327D01*
X162696027Y-65462839D01*
X162838000Y-65436125D01*
X162838000Y-65450000D01*
X162896004Y-65741605D01*
X163040771Y-65958263D01*
X163061185Y-65988815D01*
X164711184Y-67638815D01*
X164931088Y-67785750D01*
X164958395Y-67803996D01*
X165250000Y-67862000D01*
X166284370Y-67862000D01*
X166462370Y-68040000D01*
X166440750Y-68040000D01*
X166282000Y-68198750D01*
X166282000Y-69323000D01*
X166302000Y-69323000D01*
X166302000Y-69577000D01*
X166282000Y-69577000D01*
X166282000Y-70701250D01*
X166440750Y-70860000D01*
X166581310Y-70860000D01*
X166634333Y-70838037D01*
X166104370Y-71368000D01*
X163424589Y-71368000D01*
X163277896Y-71148458D01*
X162827561Y-70847554D01*
X162803108Y-70842690D01*
X162880317Y-70828162D01*
X162979528Y-70764322D01*
X163063110Y-70821431D01*
X163315000Y-70872440D01*
X163915000Y-70872440D01*
X164150317Y-70828162D01*
X164249528Y-70764322D01*
X164333110Y-70821431D01*
X164585000Y-70872440D01*
X165185000Y-70872440D01*
X165420317Y-70828162D01*
X165510980Y-70769822D01*
X165728690Y-70860000D01*
X165869250Y-70860000D01*
X166028000Y-70701250D01*
X166028000Y-69577000D01*
X166008000Y-69577000D01*
X166008000Y-69323000D01*
X166028000Y-69323000D01*
X166028000Y-68198750D01*
X165869250Y-68040000D01*
X165728690Y-68040000D01*
X165511878Y-68129806D01*
X165436890Y-68078569D01*
X165185000Y-68027560D01*
X164585000Y-68027560D01*
X164349683Y-68071838D01*
X164250472Y-68135678D01*
X164166890Y-68078569D01*
X163915000Y-68027560D01*
X163315000Y-68027560D01*
X163079683Y-68071838D01*
X162980472Y-68135678D01*
X162896890Y-68078569D01*
X162645000Y-68027560D01*
X162045000Y-68027560D01*
X161809683Y-68071838D01*
X161593559Y-68210910D01*
X161448569Y-68423110D01*
X161435000Y-68490116D01*
X161435000Y-68372998D01*
X161276252Y-68372998D01*
X161435000Y-68214250D01*
X161435000Y-67373691D01*
X161338327Y-67140302D01*
X161159699Y-66961673D01*
X160926310Y-66865000D01*
X160285750Y-66865000D01*
X160127000Y-67023750D01*
X160127000Y-68373000D01*
X160147000Y-68373000D01*
X160147000Y-68627000D01*
X160127000Y-68627000D01*
X160127000Y-69976250D01*
X160285750Y-70135000D01*
X160926310Y-70135000D01*
X161159699Y-70038327D01*
X161338327Y-69859698D01*
X161397560Y-69716697D01*
X161397560Y-70225000D01*
X161441838Y-70460317D01*
X161580910Y-70676441D01*
X161676698Y-70741890D01*
X160703646Y-70741890D01*
X160172439Y-70847554D01*
X159722104Y-71148458D01*
X159421200Y-71598793D01*
X159315536Y-72130000D01*
X159421200Y-72661207D01*
X159722104Y-73111542D01*
X160153812Y-73400000D01*
X159789539Y-73643399D01*
X158362000Y-72215860D01*
X158362000Y-70147440D01*
X158450000Y-70147440D01*
X158685317Y-70103162D01*
X158819069Y-70017095D01*
X158840301Y-70038327D01*
X159073690Y-70135000D01*
X159714250Y-70135000D01*
X159873000Y-69976250D01*
X159873000Y-68627000D01*
X159853000Y-68627000D01*
X159853000Y-68373000D01*
X159873000Y-68373000D01*
X159873000Y-67023750D01*
X159714250Y-66865000D01*
X159073690Y-66865000D01*
X158840301Y-66961673D01*
X158818636Y-66983338D01*
X158701890Y-66903569D01*
X158450000Y-66852560D01*
X156750000Y-66852560D01*
X156514683Y-66896838D01*
X156298559Y-67035910D01*
X156153569Y-67248110D01*
X156102560Y-67500000D01*
X156102560Y-69500000D01*
X156146838Y-69735317D01*
X156285910Y-69951441D01*
X156498110Y-70096431D01*
X156750000Y-70147440D01*
X156838000Y-70147440D01*
X156838000Y-72531490D01*
X156896004Y-72823095D01*
X157022048Y-73011733D01*
X157061185Y-73070305D01*
X159033000Y-75042120D01*
X158919750Y-75042120D01*
X151930805Y-68053175D01*
X151911087Y-68040000D01*
X151683595Y-67887994D01*
X151391990Y-67829990D01*
X147127641Y-67829989D01*
X147378473Y-67579157D01*
X147700000Y-67643113D01*
X148249151Y-67533880D01*
X148714698Y-67222811D01*
X148984986Y-66818297D01*
X149087611Y-67035134D01*
X149502577Y-67411041D01*
X149890961Y-67571904D01*
X150113000Y-67449915D01*
X150113000Y-66307000D01*
X150093000Y-66307000D01*
X150093000Y-66053000D01*
X150113000Y-66053000D01*
X150113000Y-64910085D01*
X150367000Y-64910085D01*
X150367000Y-66053000D01*
X150387000Y-66053000D01*
X150387000Y-66307000D01*
X150367000Y-66307000D01*
X150367000Y-67449915D01*
X150589039Y-67571904D01*
X150977423Y-67411041D01*
X151392389Y-67035134D01*
X151495014Y-66818297D01*
X151765302Y-67222811D01*
X152230849Y-67533880D01*
X152780000Y-67643113D01*
X153329151Y-67533880D01*
X153794698Y-67222811D01*
X154105767Y-66757264D01*
X154215000Y-66208113D01*
X154215000Y-66151887D01*
X154105767Y-65602736D01*
X153794698Y-65137189D01*
X153329151Y-64826120D01*
X152780000Y-64716887D01*
X152230849Y-64826120D01*
X151765302Y-65137189D01*
X151495014Y-65541703D01*
X151392389Y-65324866D01*
X150977423Y-64948959D01*
X150589039Y-64788096D01*
X150367000Y-64910085D01*
X150113000Y-64910085D01*
X149890961Y-64788096D01*
X149502577Y-64948959D01*
X149087611Y-65324866D01*
X148984986Y-65541703D01*
X148714698Y-65137189D01*
X148249151Y-64826120D01*
X147700000Y-64716887D01*
X147150849Y-64826120D01*
X146685302Y-65137189D01*
X146430000Y-65519275D01*
X146174698Y-65137189D01*
X145922000Y-64968341D01*
X145922000Y-63372000D01*
X145863996Y-63080395D01*
X145698815Y-62833185D01*
X144261334Y-61395704D01*
X144823489Y-61283885D01*
X145309670Y-60959029D01*
X145520000Y-60644248D01*
X145730330Y-60959029D01*
X145730330Y-60959029D01*
G37*
X145730330Y-60959029D02*
X146216511Y-61283885D01*
X146455339Y-61331391D01*
X148251974Y-63128026D01*
X148663992Y-63403327D01*
X149150000Y-63500001D01*
X149150005Y-63500000D01*
X152683948Y-63500000D01*
X154581972Y-65398023D01*
X154581974Y-65398026D01*
X154945888Y-65641185D01*
X154993992Y-65673327D01*
X155480000Y-65770001D01*
X155480005Y-65770000D01*
X156169156Y-65770000D01*
X156285910Y-65951441D01*
X156498110Y-66096431D01*
X156750000Y-66147440D01*
X158450000Y-66147440D01*
X158685317Y-66103162D01*
X158825727Y-66012810D01*
X158948110Y-66096431D01*
X159200000Y-66147440D01*
X160800000Y-66147440D01*
X161035317Y-66103162D01*
X161251441Y-65964090D01*
X161384057Y-65770000D01*
X161894995Y-65770000D01*
X161895000Y-65770001D01*
X162381008Y-65673327D01*
X162696027Y-65462839D01*
X162838000Y-65436125D01*
X162838000Y-65450000D01*
X162896004Y-65741605D01*
X163040771Y-65958263D01*
X163061185Y-65988815D01*
X164711184Y-67638815D01*
X164931088Y-67785750D01*
X164958395Y-67803996D01*
X165250000Y-67862000D01*
X166284370Y-67862000D01*
X166462370Y-68040000D01*
X166440750Y-68040000D01*
X166282000Y-68198750D01*
X166282000Y-69323000D01*
X166302000Y-69323000D01*
X166302000Y-69577000D01*
X166282000Y-69577000D01*
X166282000Y-70701250D01*
X166440750Y-70860000D01*
X166581310Y-70860000D01*
X166634333Y-70838037D01*
X166104370Y-71368000D01*
X163424589Y-71368000D01*
X163277896Y-71148458D01*
X162827561Y-70847554D01*
X162803108Y-70842690D01*
X162880317Y-70828162D01*
X162979528Y-70764322D01*
X163063110Y-70821431D01*
X163315000Y-70872440D01*
X163915000Y-70872440D01*
X164150317Y-70828162D01*
X164249528Y-70764322D01*
X164333110Y-70821431D01*
X164585000Y-70872440D01*
X165185000Y-70872440D01*
X165420317Y-70828162D01*
X165510980Y-70769822D01*
X165728690Y-70860000D01*
X165869250Y-70860000D01*
X166028000Y-70701250D01*
X166028000Y-69577000D01*
X166008000Y-69577000D01*
X166008000Y-69323000D01*
X166028000Y-69323000D01*
X166028000Y-68198750D01*
X165869250Y-68040000D01*
X165728690Y-68040000D01*
X165511878Y-68129806D01*
X165436890Y-68078569D01*
X165185000Y-68027560D01*
X164585000Y-68027560D01*
X164349683Y-68071838D01*
X164250472Y-68135678D01*
X164166890Y-68078569D01*
X163915000Y-68027560D01*
X163315000Y-68027560D01*
X163079683Y-68071838D01*
X162980472Y-68135678D01*
X162896890Y-68078569D01*
X162645000Y-68027560D01*
X162045000Y-68027560D01*
X161809683Y-68071838D01*
X161593559Y-68210910D01*
X161448569Y-68423110D01*
X161435000Y-68490116D01*
X161435000Y-68372998D01*
X161276252Y-68372998D01*
X161435000Y-68214250D01*
X161435000Y-67373691D01*
X161338327Y-67140302D01*
X161159699Y-66961673D01*
X160926310Y-66865000D01*
X160285750Y-66865000D01*
X160127000Y-67023750D01*
X160127000Y-68373000D01*
X160147000Y-68373000D01*
X160147000Y-68627000D01*
X160127000Y-68627000D01*
X160127000Y-69976250D01*
X160285750Y-70135000D01*
X160926310Y-70135000D01*
X161159699Y-70038327D01*
X161338327Y-69859698D01*
X161397560Y-69716697D01*
X161397560Y-70225000D01*
X161441838Y-70460317D01*
X161580910Y-70676441D01*
X161676698Y-70741890D01*
X160703646Y-70741890D01*
X160172439Y-70847554D01*
X159722104Y-71148458D01*
X159421200Y-71598793D01*
X159315536Y-72130000D01*
X159421200Y-72661207D01*
X159722104Y-73111542D01*
X160153812Y-73400000D01*
X159789539Y-73643399D01*
X158362000Y-72215860D01*
X158362000Y-70147440D01*
X158450000Y-70147440D01*
X158685317Y-70103162D01*
X158819069Y-70017095D01*
X158840301Y-70038327D01*
X159073690Y-70135000D01*
X159714250Y-70135000D01*
X159873000Y-69976250D01*
X159873000Y-68627000D01*
X159853000Y-68627000D01*
X159853000Y-68373000D01*
X159873000Y-68373000D01*
X159873000Y-67023750D01*
X159714250Y-66865000D01*
X159073690Y-66865000D01*
X158840301Y-66961673D01*
X158818636Y-66983338D01*
X158701890Y-66903569D01*
X158450000Y-66852560D01*
X156750000Y-66852560D01*
X156514683Y-66896838D01*
X156298559Y-67035910D01*
X156153569Y-67248110D01*
X156102560Y-67500000D01*
X156102560Y-69500000D01*
X156146838Y-69735317D01*
X156285910Y-69951441D01*
X156498110Y-70096431D01*
X156750000Y-70147440D01*
X156838000Y-70147440D01*
X156838000Y-72531490D01*
X156896004Y-72823095D01*
X157022048Y-73011733D01*
X157061185Y-73070305D01*
X159033000Y-75042120D01*
X158919750Y-75042120D01*
X151930805Y-68053175D01*
X151911087Y-68040000D01*
X151683595Y-67887994D01*
X151391990Y-67829990D01*
X147127641Y-67829989D01*
X147378473Y-67579157D01*
X147700000Y-67643113D01*
X148249151Y-67533880D01*
X148714698Y-67222811D01*
X148984986Y-66818297D01*
X149087611Y-67035134D01*
X149502577Y-67411041D01*
X149890961Y-67571904D01*
X150113000Y-67449915D01*
X150113000Y-66307000D01*
X150093000Y-66307000D01*
X150093000Y-66053000D01*
X150113000Y-66053000D01*
X150113000Y-64910085D01*
X150367000Y-64910085D01*
X150367000Y-66053000D01*
X150387000Y-66053000D01*
X150387000Y-66307000D01*
X150367000Y-66307000D01*
X150367000Y-67449915D01*
X150589039Y-67571904D01*
X150977423Y-67411041D01*
X151392389Y-67035134D01*
X151495014Y-66818297D01*
X151765302Y-67222811D01*
X152230849Y-67533880D01*
X152780000Y-67643113D01*
X153329151Y-67533880D01*
X153794698Y-67222811D01*
X154105767Y-66757264D01*
X154215000Y-66208113D01*
X154215000Y-66151887D01*
X154105767Y-65602736D01*
X153794698Y-65137189D01*
X153329151Y-64826120D01*
X152780000Y-64716887D01*
X152230849Y-64826120D01*
X151765302Y-65137189D01*
X151495014Y-65541703D01*
X151392389Y-65324866D01*
X150977423Y-64948959D01*
X150589039Y-64788096D01*
X150367000Y-64910085D01*
X150113000Y-64910085D01*
X149890961Y-64788096D01*
X149502577Y-64948959D01*
X149087611Y-65324866D01*
X148984986Y-65541703D01*
X148714698Y-65137189D01*
X148249151Y-64826120D01*
X147700000Y-64716887D01*
X147150849Y-64826120D01*
X146685302Y-65137189D01*
X146430000Y-65519275D01*
X146174698Y-65137189D01*
X145922000Y-64968341D01*
X145922000Y-63372000D01*
X145863996Y-63080395D01*
X145698815Y-62833185D01*
X144261334Y-61395704D01*
X144823489Y-61283885D01*
X145309670Y-60959029D01*
X145520000Y-60644248D01*
X145730330Y-60959029D01*
G36*
X171554990Y-70160303D02*
X171947630Y-70553629D01*
X172139727Y-70633395D01*
X172008857Y-70687603D01*
X171939392Y-70929787D01*
X172740000Y-71730395D01*
X172754143Y-71716253D01*
X172933748Y-71895858D01*
X172919605Y-71910000D01*
X172933748Y-71924143D01*
X172754143Y-72103748D01*
X172740000Y-72089605D01*
X172725858Y-72103748D01*
X172546253Y-71924143D01*
X172560395Y-71910000D01*
X171759787Y-71109392D01*
X171517603Y-71178857D01*
X171330856Y-71702302D01*
X171358638Y-72257368D01*
X171372569Y-72291001D01*
X168786630Y-72291001D01*
X169330883Y-71746748D01*
X169407630Y-71823629D01*
X169920900Y-72036757D01*
X170476661Y-72037242D01*
X170990303Y-71825010D01*
X171383629Y-71432370D01*
X171596757Y-70919100D01*
X171597242Y-70363339D01*
X171501655Y-70132000D01*
X171543295Y-70132000D01*
X171554990Y-70160303D01*
X171554990Y-70160303D01*
G37*
X171554990Y-70160303D02*
X171947630Y-70553629D01*
X172139727Y-70633395D01*
X172008857Y-70687603D01*
X171939392Y-70929787D01*
X172740000Y-71730395D01*
X172754143Y-71716253D01*
X172933748Y-71895858D01*
X172919605Y-71910000D01*
X172933748Y-71924143D01*
X172754143Y-72103748D01*
X172740000Y-72089605D01*
X172725858Y-72103748D01*
X172546253Y-71924143D01*
X172560395Y-71910000D01*
X171759787Y-71109392D01*
X171517603Y-71178857D01*
X171330856Y-71702302D01*
X171358638Y-72257368D01*
X171372569Y-72291001D01*
X168786630Y-72291001D01*
X169330883Y-71746748D01*
X169407630Y-71823629D01*
X169920900Y-72036757D01*
X170476661Y-72037242D01*
X170990303Y-71825010D01*
X171383629Y-71432370D01*
X171596757Y-70919100D01*
X171597242Y-70363339D01*
X171501655Y-70132000D01*
X171543295Y-70132000D01*
X171554990Y-70160303D01*
G36*
X136565000Y-63514250D02*
X136723750Y-63673000D01*
X138073000Y-63673000D01*
X138073000Y-63653000D01*
X138327000Y-63653000D01*
X138327000Y-63673000D01*
X138347000Y-63673000D01*
X138347000Y-63927000D01*
X138327000Y-63927000D01*
X138327000Y-63947000D01*
X138073000Y-63947000D01*
X138073000Y-63927000D01*
X136723750Y-63927000D01*
X136565000Y-64085750D01*
X136565000Y-64726310D01*
X136661673Y-64959699D01*
X136723011Y-65021036D01*
X136387611Y-65324866D01*
X136284986Y-65541703D01*
X136014698Y-65137189D01*
X135939800Y-65087144D01*
X135939800Y-64600000D01*
X135868262Y-64240354D01*
X135847440Y-64209192D01*
X135847440Y-63000000D01*
X135845937Y-62992010D01*
X136565000Y-62992010D01*
X136565000Y-63514250D01*
X136565000Y-63514250D01*
G37*
X136565000Y-63514250D02*
X136723750Y-63673000D01*
X138073000Y-63673000D01*
X138073000Y-63653000D01*
X138327000Y-63653000D01*
X138327000Y-63673000D01*
X138347000Y-63673000D01*
X138347000Y-63927000D01*
X138327000Y-63927000D01*
X138327000Y-63947000D01*
X138073000Y-63947000D01*
X138073000Y-63927000D01*
X136723750Y-63927000D01*
X136565000Y-64085750D01*
X136565000Y-64726310D01*
X136661673Y-64959699D01*
X136723011Y-65021036D01*
X136387611Y-65324866D01*
X136284986Y-65541703D01*
X136014698Y-65137189D01*
X135939800Y-65087144D01*
X135939800Y-64600000D01*
X135868262Y-64240354D01*
X135847440Y-64209192D01*
X135847440Y-63000000D01*
X135845937Y-62992010D01*
X136565000Y-62992010D01*
X136565000Y-63514250D01*
G36*
X157077000Y-59743000D02*
X157097000Y-59743000D01*
X157097000Y-59997000D01*
X157077000Y-59997000D01*
X157077000Y-61203817D01*
X157309026Y-61324958D01*
X157724947Y-61152688D01*
X157791919Y-61091559D01*
X159369796Y-62669436D01*
X159617006Y-62834617D01*
X159707211Y-62852560D01*
X159200000Y-62852560D01*
X158964683Y-62896838D01*
X158824273Y-62987190D01*
X158701890Y-62903569D01*
X158450000Y-62852560D01*
X156750000Y-62852560D01*
X156514683Y-62896838D01*
X156298559Y-63035910D01*
X156165943Y-63230000D01*
X156006051Y-63230000D01*
X154115414Y-61339362D01*
X154410000Y-61397959D01*
X154983489Y-61283885D01*
X155469670Y-60959029D01*
X155685664Y-60635772D01*
X155743179Y-60758490D01*
X156175053Y-61152688D01*
X156590974Y-61324958D01*
X156823000Y-61203817D01*
X156823000Y-59997000D01*
X156803000Y-59997000D01*
X156803000Y-59743000D01*
X156823000Y-59743000D01*
X156823000Y-59723000D01*
X157077000Y-59723000D01*
X157077000Y-59743000D01*
X157077000Y-59743000D01*
G37*
X157077000Y-59743000D02*
X157097000Y-59743000D01*
X157097000Y-59997000D01*
X157077000Y-59997000D01*
X157077000Y-61203817D01*
X157309026Y-61324958D01*
X157724947Y-61152688D01*
X157791919Y-61091559D01*
X159369796Y-62669436D01*
X159617006Y-62834617D01*
X159707211Y-62852560D01*
X159200000Y-62852560D01*
X158964683Y-62896838D01*
X158824273Y-62987190D01*
X158701890Y-62903569D01*
X158450000Y-62852560D01*
X156750000Y-62852560D01*
X156514683Y-62896838D01*
X156298559Y-63035910D01*
X156165943Y-63230000D01*
X156006051Y-63230000D01*
X154115414Y-61339362D01*
X154410000Y-61397959D01*
X154983489Y-61283885D01*
X155469670Y-60959029D01*
X155685664Y-60635772D01*
X155743179Y-60758490D01*
X156175053Y-61152688D01*
X156590974Y-61324958D01*
X156823000Y-61203817D01*
X156823000Y-59997000D01*
X156803000Y-59997000D01*
X156803000Y-59743000D01*
X156823000Y-59743000D01*
X156823000Y-59723000D01*
X157077000Y-59723000D01*
X157077000Y-59743000D01*
G36*
X174857000Y-59743000D02*
X174877000Y-59743000D01*
X174877000Y-59997000D01*
X174857000Y-59997000D01*
X174857000Y-60017000D01*
X174603000Y-60017000D01*
X174603000Y-59997000D01*
X174583000Y-59997000D01*
X174583000Y-59743000D01*
X174603000Y-59743000D01*
X174603000Y-59723000D01*
X174857000Y-59723000D01*
X174857000Y-59743000D01*
X174857000Y-59743000D01*
G37*
X174857000Y-59743000D02*
X174877000Y-59743000D01*
X174877000Y-59997000D01*
X174857000Y-59997000D01*
X174857000Y-60017000D01*
X174603000Y-60017000D01*
X174603000Y-59997000D01*
X174583000Y-59997000D01*
X174583000Y-59743000D01*
X174603000Y-59743000D01*
X174603000Y-59723000D01*
X174857000Y-59723000D01*
X174857000Y-59743000D01*
G36*
X136757000Y-59743000D02*
X136777000Y-59743000D01*
X136777000Y-59997000D01*
X136757000Y-59997000D01*
X136757000Y-60017000D01*
X136503000Y-60017000D01*
X136503000Y-59997000D01*
X136483000Y-59997000D01*
X136483000Y-59743000D01*
X136503000Y-59743000D01*
X136503000Y-59723000D01*
X136757000Y-59723000D01*
X136757000Y-59743000D01*
X136757000Y-59743000D01*
G37*
X136757000Y-59743000D02*
X136777000Y-59743000D01*
X136777000Y-59997000D01*
X136757000Y-59997000D01*
X136757000Y-60017000D01*
X136503000Y-60017000D01*
X136503000Y-59997000D01*
X136483000Y-59997000D01*
X136483000Y-59743000D01*
X136503000Y-59743000D01*
X136503000Y-59723000D01*
X136757000Y-59723000D01*
X136757000Y-59743000D01*
G36*
X177784439Y-55872687D02*
X176875877Y-56779664D01*
X176390439Y-57948729D01*
X176157668Y-57715958D01*
X176228600Y-57359359D01*
X176228600Y-57300641D01*
X176114526Y-56727152D01*
X175789670Y-56240971D01*
X175303489Y-55916115D01*
X174730000Y-55802041D01*
X174156511Y-55916115D01*
X173670330Y-56240971D01*
X173460000Y-56555752D01*
X173249670Y-56240971D01*
X172763489Y-55916115D01*
X172190000Y-55802041D01*
X171616511Y-55916115D01*
X171130330Y-56240971D01*
X170920000Y-56555752D01*
X170709670Y-56240971D01*
X170223489Y-55916115D01*
X169650000Y-55802041D01*
X169076511Y-55916115D01*
X168590330Y-56240971D01*
X168374336Y-56564228D01*
X168316821Y-56441510D01*
X167884947Y-56047312D01*
X167469026Y-55875042D01*
X167237000Y-55996183D01*
X167237000Y-57203000D01*
X167257000Y-57203000D01*
X167257000Y-57457000D01*
X167237000Y-57457000D01*
X167237000Y-57477000D01*
X166983000Y-57477000D01*
X166983000Y-57457000D01*
X166963000Y-57457000D01*
X166963000Y-57203000D01*
X166983000Y-57203000D01*
X166983000Y-55996183D01*
X166750974Y-55875042D01*
X166335053Y-56047312D01*
X165903179Y-56441510D01*
X165845664Y-56564228D01*
X165629670Y-56240971D01*
X165143489Y-55916115D01*
X164570000Y-55802041D01*
X163996511Y-55916115D01*
X163510330Y-56240971D01*
X163294336Y-56564228D01*
X163236821Y-56441510D01*
X162804947Y-56047312D01*
X162389026Y-55875042D01*
X162157000Y-55996183D01*
X162157000Y-57203000D01*
X162177000Y-57203000D01*
X162177000Y-57457000D01*
X162157000Y-57457000D01*
X162157000Y-57477000D01*
X161903000Y-57477000D01*
X161903000Y-57457000D01*
X161883000Y-57457000D01*
X161883000Y-57203000D01*
X161903000Y-57203000D01*
X161903000Y-55996183D01*
X161670974Y-55875042D01*
X161255053Y-56047312D01*
X160823179Y-56441510D01*
X160765664Y-56564228D01*
X160549670Y-56240971D01*
X160063489Y-55916115D01*
X159490000Y-55802041D01*
X158916511Y-55916115D01*
X158430330Y-56240971D01*
X158220000Y-56555752D01*
X158009670Y-56240971D01*
X157523489Y-55916115D01*
X156950000Y-55802041D01*
X156376511Y-55916115D01*
X155890330Y-56240971D01*
X155680000Y-56555752D01*
X155469670Y-56240971D01*
X154983489Y-55916115D01*
X154410000Y-55802041D01*
X153836511Y-55916115D01*
X153350330Y-56240971D01*
X153140000Y-56555752D01*
X152929670Y-56240971D01*
X152443489Y-55916115D01*
X151870000Y-55802041D01*
X151296511Y-55916115D01*
X150810330Y-56240971D01*
X150594336Y-56564228D01*
X150536821Y-56441510D01*
X150104947Y-56047312D01*
X149689026Y-55875042D01*
X149457000Y-55996183D01*
X149457000Y-57203000D01*
X149477000Y-57203000D01*
X149477000Y-57457000D01*
X149457000Y-57457000D01*
X149457000Y-57477000D01*
X149203000Y-57477000D01*
X149203000Y-57457000D01*
X149183000Y-57457000D01*
X149183000Y-57203000D01*
X149203000Y-57203000D01*
X149203000Y-55996183D01*
X148970974Y-55875042D01*
X148555053Y-56047312D01*
X148123179Y-56441510D01*
X148065664Y-56564228D01*
X147849670Y-56240971D01*
X147363489Y-55916115D01*
X146790000Y-55802041D01*
X146216511Y-55916115D01*
X145730330Y-56240971D01*
X145520000Y-56555752D01*
X145309670Y-56240971D01*
X144823489Y-55916115D01*
X144250000Y-55802041D01*
X143676511Y-55916115D01*
X143190330Y-56240971D01*
X142974336Y-56564228D01*
X142916821Y-56441510D01*
X142484947Y-56047312D01*
X142069026Y-55875042D01*
X141837000Y-55996183D01*
X141837000Y-57203000D01*
X141857000Y-57203000D01*
X141857000Y-57457000D01*
X141837000Y-57457000D01*
X141837000Y-57477000D01*
X141583000Y-57477000D01*
X141583000Y-57457000D01*
X141563000Y-57457000D01*
X141563000Y-57203000D01*
X141583000Y-57203000D01*
X141583000Y-55996183D01*
X141350974Y-55875042D01*
X140935053Y-56047312D01*
X140503179Y-56441510D01*
X140445664Y-56564228D01*
X140229670Y-56240971D01*
X139743489Y-55916115D01*
X139170000Y-55802041D01*
X138596511Y-55916115D01*
X138110330Y-56240971D01*
X137900000Y-56555752D01*
X137689670Y-56240971D01*
X137203489Y-55916115D01*
X136630000Y-55802041D01*
X136056511Y-55916115D01*
X135570330Y-56240971D01*
X135360000Y-56555752D01*
X135149670Y-56240971D01*
X134663489Y-55916115D01*
X134090000Y-55802041D01*
X133516511Y-55916115D01*
X133030330Y-56240971D01*
X132814336Y-56564228D01*
X132756821Y-56441510D01*
X132324947Y-56047312D01*
X131909026Y-55875042D01*
X131677000Y-55996183D01*
X131677000Y-57203000D01*
X131697000Y-57203000D01*
X131697000Y-57457000D01*
X131677000Y-57457000D01*
X131677000Y-57477000D01*
X131423000Y-57477000D01*
X131423000Y-57457000D01*
X131403000Y-57457000D01*
X131403000Y-57203000D01*
X131423000Y-57203000D01*
X131423000Y-55996183D01*
X131190974Y-55875042D01*
X130775053Y-56047312D01*
X130343179Y-56441510D01*
X130285664Y-56564228D01*
X130069670Y-56240971D01*
X129583489Y-55916115D01*
X129010000Y-55802041D01*
X128436511Y-55916115D01*
X128411241Y-55933000D01*
X127068759Y-55933000D01*
X127043489Y-55916115D01*
X126470000Y-55802041D01*
X125896511Y-55916115D01*
X125410330Y-56240971D01*
X125085474Y-56727152D01*
X124971400Y-57300641D01*
X124971400Y-57359359D01*
X124994655Y-57476267D01*
X124738862Y-57732060D01*
X124347313Y-56784439D01*
X123440336Y-55875877D01*
X123245562Y-55795000D01*
X177972456Y-55795000D01*
X177784439Y-55872687D01*
X177784439Y-55872687D01*
G37*
X177784439Y-55872687D02*
X176875877Y-56779664D01*
X176390439Y-57948729D01*
X176157668Y-57715958D01*
X176228600Y-57359359D01*
X176228600Y-57300641D01*
X176114526Y-56727152D01*
X175789670Y-56240971D01*
X175303489Y-55916115D01*
X174730000Y-55802041D01*
X174156511Y-55916115D01*
X173670330Y-56240971D01*
X173460000Y-56555752D01*
X173249670Y-56240971D01*
X172763489Y-55916115D01*
X172190000Y-55802041D01*
X171616511Y-55916115D01*
X171130330Y-56240971D01*
X170920000Y-56555752D01*
X170709670Y-56240971D01*
X170223489Y-55916115D01*
X169650000Y-55802041D01*
X169076511Y-55916115D01*
X168590330Y-56240971D01*
X168374336Y-56564228D01*
X168316821Y-56441510D01*
X167884947Y-56047312D01*
X167469026Y-55875042D01*
X167237000Y-55996183D01*
X167237000Y-57203000D01*
X167257000Y-57203000D01*
X167257000Y-57457000D01*
X167237000Y-57457000D01*
X167237000Y-57477000D01*
X166983000Y-57477000D01*
X166983000Y-57457000D01*
X166963000Y-57457000D01*
X166963000Y-57203000D01*
X166983000Y-57203000D01*
X166983000Y-55996183D01*
X166750974Y-55875042D01*
X166335053Y-56047312D01*
X165903179Y-56441510D01*
X165845664Y-56564228D01*
X165629670Y-56240971D01*
X165143489Y-55916115D01*
X164570000Y-55802041D01*
X163996511Y-55916115D01*
X163510330Y-56240971D01*
X163294336Y-56564228D01*
X163236821Y-56441510D01*
X162804947Y-56047312D01*
X162389026Y-55875042D01*
X162157000Y-55996183D01*
X162157000Y-57203000D01*
X162177000Y-57203000D01*
X162177000Y-57457000D01*
X162157000Y-57457000D01*
X162157000Y-57477000D01*
X161903000Y-57477000D01*
X161903000Y-57457000D01*
X161883000Y-57457000D01*
X161883000Y-57203000D01*
X161903000Y-57203000D01*
X161903000Y-55996183D01*
X161670974Y-55875042D01*
X161255053Y-56047312D01*
X160823179Y-56441510D01*
X160765664Y-56564228D01*
X160549670Y-56240971D01*
X160063489Y-55916115D01*
X159490000Y-55802041D01*
X158916511Y-55916115D01*
X158430330Y-56240971D01*
X158220000Y-56555752D01*
X158009670Y-56240971D01*
X157523489Y-55916115D01*
X156950000Y-55802041D01*
X156376511Y-55916115D01*
X155890330Y-56240971D01*
X155680000Y-56555752D01*
X155469670Y-56240971D01*
X154983489Y-55916115D01*
X154410000Y-55802041D01*
X153836511Y-55916115D01*
X153350330Y-56240971D01*
X153140000Y-56555752D01*
X152929670Y-56240971D01*
X152443489Y-55916115D01*
X151870000Y-55802041D01*
X151296511Y-55916115D01*
X150810330Y-56240971D01*
X150594336Y-56564228D01*
X150536821Y-56441510D01*
X150104947Y-56047312D01*
X149689026Y-55875042D01*
X149457000Y-55996183D01*
X149457000Y-57203000D01*
X149477000Y-57203000D01*
X149477000Y-57457000D01*
X149457000Y-57457000D01*
X149457000Y-57477000D01*
X149203000Y-57477000D01*
X149203000Y-57457000D01*
X149183000Y-57457000D01*
X149183000Y-57203000D01*
X149203000Y-57203000D01*
X149203000Y-55996183D01*
X148970974Y-55875042D01*
X148555053Y-56047312D01*
X148123179Y-56441510D01*
X148065664Y-56564228D01*
X147849670Y-56240971D01*
X147363489Y-55916115D01*
X146790000Y-55802041D01*
X146216511Y-55916115D01*
X145730330Y-56240971D01*
X145520000Y-56555752D01*
X145309670Y-56240971D01*
X144823489Y-55916115D01*
X144250000Y-55802041D01*
X143676511Y-55916115D01*
X143190330Y-56240971D01*
X142974336Y-56564228D01*
X142916821Y-56441510D01*
X142484947Y-56047312D01*
X142069026Y-55875042D01*
X141837000Y-55996183D01*
X141837000Y-57203000D01*
X141857000Y-57203000D01*
X141857000Y-57457000D01*
X141837000Y-57457000D01*
X141837000Y-57477000D01*
X141583000Y-57477000D01*
X141583000Y-57457000D01*
X141563000Y-57457000D01*
X141563000Y-57203000D01*
X141583000Y-57203000D01*
X141583000Y-55996183D01*
X141350974Y-55875042D01*
X140935053Y-56047312D01*
X140503179Y-56441510D01*
X140445664Y-56564228D01*
X140229670Y-56240971D01*
X139743489Y-55916115D01*
X139170000Y-55802041D01*
X138596511Y-55916115D01*
X138110330Y-56240971D01*
X137900000Y-56555752D01*
X137689670Y-56240971D01*
X137203489Y-55916115D01*
X136630000Y-55802041D01*
X136056511Y-55916115D01*
X135570330Y-56240971D01*
X135360000Y-56555752D01*
X135149670Y-56240971D01*
X134663489Y-55916115D01*
X134090000Y-55802041D01*
X133516511Y-55916115D01*
X133030330Y-56240971D01*
X132814336Y-56564228D01*
X132756821Y-56441510D01*
X132324947Y-56047312D01*
X131909026Y-55875042D01*
X131677000Y-55996183D01*
X131677000Y-57203000D01*
X131697000Y-57203000D01*
X131697000Y-57457000D01*
X131677000Y-57457000D01*
X131677000Y-57477000D01*
X131423000Y-57477000D01*
X131423000Y-57457000D01*
X131403000Y-57457000D01*
X131403000Y-57203000D01*
X131423000Y-57203000D01*
X131423000Y-55996183D01*
X131190974Y-55875042D01*
X130775053Y-56047312D01*
X130343179Y-56441510D01*
X130285664Y-56564228D01*
X130069670Y-56240971D01*
X129583489Y-55916115D01*
X129010000Y-55802041D01*
X128436511Y-55916115D01*
X128411241Y-55933000D01*
X127068759Y-55933000D01*
X127043489Y-55916115D01*
X126470000Y-55802041D01*
X125896511Y-55916115D01*
X125410330Y-56240971D01*
X125085474Y-56727152D01*
X124971400Y-57300641D01*
X124971400Y-57359359D01*
X124994655Y-57476267D01*
X124738862Y-57732060D01*
X124347313Y-56784439D01*
X123440336Y-55875877D01*
X123245562Y-55795000D01*
X177972456Y-55795000D01*
X177784439Y-55872687D01*
M02*
