G04 #@! TF.FileFunction,Soldermask,Top*
%FSLAX46Y46*%
G04 Gerber Fmt 4.6, Leading zero omitted, Abs format (unit mm)*
G04 Created by KiCad (PCBNEW 4.0.2+dfsg1-2~bpo8+1-stable) date Mon 31 Oct 2016 00:56:32 GMT*
%MOMM*%
G01*
G04 APERTURE LIST*
%ADD10C,0.100000*%
%ADD11C,6.200000*%
%ADD12C,1.524000*%
%ADD13O,1.600000X1.600000*%
%ADD14R,1.600000X2.000000*%
%ADD15R,0.600000X1.950000*%
%ADD16R,1.300000X1.300000*%
%ADD17C,1.300000*%
%ADD18O,1.800860X2.499360*%
%ADD19R,2.000000X1.600000*%
%ADD20C,2.540000*%
%ADD21R,2.540000X2.540000*%
%ADD22O,3.014980X1.506220*%
%ADD23C,1.998980*%
%ADD24R,2.032000X2.032000*%
%ADD25O,2.032000X2.032000*%
%ADD26R,1.727200X2.032000*%
%ADD27O,1.727200X2.032000*%
%ADD28R,2.000000X1.700000*%
%ADD29R,1.700000X2.000000*%
%ADD30R,0.600000X1.550000*%
%ADD31R,1.727200X1.727200*%
%ADD32O,1.727200X1.727200*%
%ADD33C,2.000000*%
G04 APERTURE END LIST*
D10*
D11*
X179500000Y-124500000D03*
X121610000Y-124500000D03*
D12*
X172740000Y-69370000D03*
X172740000Y-71910000D03*
X170200000Y-70640000D03*
X170200000Y-68100000D03*
D13*
X135000000Y-73800000D03*
X137540000Y-73800000D03*
X140080000Y-73800000D03*
X142620000Y-73800000D03*
X145160000Y-73800000D03*
X147700000Y-73800000D03*
X150240000Y-73800000D03*
X152780000Y-73800000D03*
X152780000Y-66180000D03*
X150240000Y-66180000D03*
X147700000Y-66180000D03*
X145160000Y-66180000D03*
X142620000Y-66180000D03*
X140080000Y-66180000D03*
X137540000Y-66180000D03*
X135000000Y-66180000D03*
D14*
X150750000Y-90250000D03*
X150750000Y-86250000D03*
D15*
X153285000Y-90700000D03*
X154555000Y-90700000D03*
X155825000Y-90700000D03*
X157095000Y-90700000D03*
X158365000Y-90700000D03*
X159635000Y-90700000D03*
X160905000Y-90700000D03*
X162175000Y-90700000D03*
X163445000Y-90700000D03*
X164715000Y-90700000D03*
X164715000Y-81300000D03*
X163445000Y-81300000D03*
X162175000Y-81300000D03*
X160905000Y-81300000D03*
X159635000Y-81300000D03*
X158365000Y-81300000D03*
X157095000Y-81300000D03*
X155825000Y-81300000D03*
X154555000Y-81300000D03*
X153285000Y-81300000D03*
D14*
X160000000Y-68500000D03*
X160000000Y-64500000D03*
D16*
X134450000Y-109900000D03*
D17*
X134450000Y-114900000D03*
X158700000Y-105150000D03*
D16*
X156200000Y-105150000D03*
D18*
X148450000Y-117100160D03*
X151950120Y-117100160D03*
X144949880Y-117100160D03*
X146649140Y-120099900D03*
X150250860Y-120099900D03*
D11*
X179610000Y-107610000D03*
X179610000Y-58610000D03*
X121610000Y-107620000D03*
X121610000Y-58610000D03*
D19*
X135400000Y-76200000D03*
X139400000Y-76200000D03*
X142100000Y-76200000D03*
X146100000Y-76200000D03*
X138200000Y-63800000D03*
X134200000Y-63800000D03*
D14*
X131200000Y-67800000D03*
X131200000Y-71800000D03*
D19*
X152800000Y-76200000D03*
X148800000Y-76200000D03*
D14*
X148250000Y-90250000D03*
X148250000Y-86250000D03*
D20*
X171502960Y-114241220D03*
D21*
X171502960Y-99001220D03*
D20*
X164691220Y-112647040D03*
D21*
X149451220Y-112647040D03*
D22*
X161500000Y-74670000D03*
X161500000Y-72130000D03*
D23*
X137655000Y-96555000D03*
X137655000Y-104175000D03*
D24*
X123400000Y-67500000D03*
D25*
X123400000Y-70040000D03*
D26*
X135636000Y-80264000D03*
D27*
X133096000Y-80264000D03*
X130556000Y-80264000D03*
D12*
X135000000Y-88040000D03*
X135000000Y-90580000D03*
X135000000Y-85500000D03*
D28*
X127286000Y-76962000D03*
X131286000Y-76962000D03*
D29*
X157600000Y-64500000D03*
X157600000Y-68500000D03*
X139500000Y-86000000D03*
X139500000Y-90000000D03*
X142500000Y-90000000D03*
X142500000Y-86000000D03*
D28*
X127500000Y-88000000D03*
X131500000Y-88000000D03*
D29*
X145200000Y-113650000D03*
X145200000Y-109650000D03*
X141200000Y-110900000D03*
X141200000Y-114900000D03*
D30*
X162345000Y-69450000D03*
X163615000Y-69450000D03*
X164885000Y-69450000D03*
X166155000Y-69450000D03*
X166155000Y-64050000D03*
X164885000Y-64050000D03*
X163615000Y-64050000D03*
X162345000Y-64050000D03*
D31*
X126470000Y-59870000D03*
D32*
X126470000Y-57330000D03*
X129010000Y-59870000D03*
X129010000Y-57330000D03*
X131550000Y-59870000D03*
X131550000Y-57330000D03*
X134090000Y-59870000D03*
X134090000Y-57330000D03*
X136630000Y-59870000D03*
X136630000Y-57330000D03*
X139170000Y-59870000D03*
X139170000Y-57330000D03*
X141710000Y-59870000D03*
X141710000Y-57330000D03*
X144250000Y-59870000D03*
X144250000Y-57330000D03*
X146790000Y-59870000D03*
X146790000Y-57330000D03*
X149330000Y-59870000D03*
X149330000Y-57330000D03*
X151870000Y-59870000D03*
X151870000Y-57330000D03*
X154410000Y-59870000D03*
X154410000Y-57330000D03*
X156950000Y-59870000D03*
X156950000Y-57330000D03*
X159490000Y-59870000D03*
X159490000Y-57330000D03*
X162030000Y-59870000D03*
X162030000Y-57330000D03*
X164570000Y-59870000D03*
X164570000Y-57330000D03*
X167110000Y-59870000D03*
X167110000Y-57330000D03*
X169650000Y-59870000D03*
X169650000Y-57330000D03*
X172190000Y-59870000D03*
X172190000Y-57330000D03*
X174730000Y-59870000D03*
X174730000Y-57330000D03*
D19*
X156200000Y-117150000D03*
X160200000Y-117150000D03*
D12*
X170200000Y-84640000D03*
X170200000Y-82100000D03*
X170200000Y-87180000D03*
X172740000Y-80830000D03*
X172740000Y-83370000D03*
X172740000Y-85910000D03*
D33*
X165700000Y-121600000D03*
X170700000Y-121600000D03*
M02*
