G04 #@! TF.FileFunction,Copper,L2,Bot*
%FSLAX46Y46*%
G04 Gerber Fmt 4.6, Leading zero omitted, Abs format (unit mm)*
G04 Created by KiCad (PCBNEW 4.0.2+dfsg1-2~bpo8+1-stable) date Mon 31 Oct 2016 00:56:32 GMT*
%MOMM*%
G01*
G04 APERTURE LIST*
%ADD10C,0.100000*%
%ADD11C,1.524000*%
%ADD12O,1.600000X1.600000*%
%ADD13R,1.300000X1.300000*%
%ADD14C,1.300000*%
%ADD15O,1.800860X2.499360*%
%ADD16C,2.540000*%
%ADD17R,2.540000X2.540000*%
%ADD18O,3.014980X1.506220*%
%ADD19C,1.998980*%
%ADD20R,2.032000X2.032000*%
%ADD21O,2.032000X2.032000*%
%ADD22R,1.727200X2.032000*%
%ADD23O,1.727200X2.032000*%
%ADD24R,1.727200X1.727200*%
%ADD25O,1.727200X1.727200*%
%ADD26C,2.000000*%
%ADD27C,0.762000*%
%ADD28C,1.270000*%
%ADD29C,0.609600*%
%ADD30C,1.524000*%
%ADD31C,0.254000*%
G04 APERTURE END LIST*
D10*
D11*
X172740000Y-69370000D03*
X172740000Y-71910000D03*
X170200000Y-70640000D03*
X170200000Y-68100000D03*
D12*
X135000000Y-73800000D03*
X137540000Y-73800000D03*
X140080000Y-73800000D03*
X142620000Y-73800000D03*
X145160000Y-73800000D03*
X147700000Y-73800000D03*
X150240000Y-73800000D03*
X152780000Y-73800000D03*
X152780000Y-66180000D03*
X150240000Y-66180000D03*
X147700000Y-66180000D03*
X145160000Y-66180000D03*
X142620000Y-66180000D03*
X140080000Y-66180000D03*
X137540000Y-66180000D03*
X135000000Y-66180000D03*
D13*
X134450000Y-109900000D03*
D14*
X134450000Y-114900000D03*
X158700000Y-105150000D03*
D13*
X156200000Y-105150000D03*
D15*
X148450000Y-117100160D03*
X151950120Y-117100160D03*
X144949880Y-117100160D03*
X146649140Y-120099900D03*
X150250860Y-120099900D03*
D16*
X171502960Y-114241220D03*
D17*
X171502960Y-99001220D03*
D16*
X164691220Y-112647040D03*
D17*
X149451220Y-112647040D03*
D18*
X161500000Y-74670000D03*
X161500000Y-72130000D03*
D19*
X137655000Y-96555000D03*
X137655000Y-104175000D03*
D20*
X123400000Y-67500000D03*
D21*
X123400000Y-70040000D03*
D22*
X135636000Y-80264000D03*
D23*
X133096000Y-80264000D03*
X130556000Y-80264000D03*
D11*
X135000000Y-88040000D03*
X135000000Y-90580000D03*
X135000000Y-85500000D03*
D24*
X126470000Y-59870000D03*
D25*
X126470000Y-57330000D03*
X129010000Y-59870000D03*
X129010000Y-57330000D03*
X131550000Y-59870000D03*
X131550000Y-57330000D03*
X134090000Y-59870000D03*
X134090000Y-57330000D03*
X136630000Y-59870000D03*
X136630000Y-57330000D03*
X139170000Y-59870000D03*
X139170000Y-57330000D03*
X141710000Y-59870000D03*
X141710000Y-57330000D03*
X144250000Y-59870000D03*
X144250000Y-57330000D03*
X146790000Y-59870000D03*
X146790000Y-57330000D03*
X149330000Y-59870000D03*
X149330000Y-57330000D03*
X151870000Y-59870000D03*
X151870000Y-57330000D03*
X154410000Y-59870000D03*
X154410000Y-57330000D03*
X156950000Y-59870000D03*
X156950000Y-57330000D03*
X159490000Y-59870000D03*
X159490000Y-57330000D03*
X162030000Y-59870000D03*
X162030000Y-57330000D03*
X164570000Y-59870000D03*
X164570000Y-57330000D03*
X167110000Y-59870000D03*
X167110000Y-57330000D03*
X169650000Y-59870000D03*
X169650000Y-57330000D03*
X172190000Y-59870000D03*
X172190000Y-57330000D03*
X174730000Y-59870000D03*
X174730000Y-57330000D03*
D11*
X170200000Y-84640000D03*
X170200000Y-82100000D03*
X170200000Y-87180000D03*
X172740000Y-80830000D03*
X172740000Y-83370000D03*
X172740000Y-85910000D03*
D26*
X165700000Y-121600000D03*
X170700000Y-121600000D03*
D27*
X156175000Y-83675000D03*
X155175000Y-88455000D03*
X164400000Y-88225000D03*
X164500000Y-83625000D03*
X159635000Y-83545000D03*
X159635000Y-88455000D03*
X154350000Y-86250000D03*
X160000000Y-70250000D03*
X166155000Y-68055000D03*
X120450000Y-65025000D03*
X124650000Y-63100000D03*
X123700000Y-64000000D03*
X121500000Y-64000000D03*
X125047599Y-61749601D03*
D28*
X164400000Y-88225000D02*
X159865000Y-88225000D01*
X159865000Y-88225000D02*
X159635000Y-88455000D01*
X159635000Y-83545000D02*
X164420000Y-83545000D01*
X164420000Y-83545000D02*
X164500000Y-83625000D01*
D29*
X125047599Y-61749601D02*
X125047599Y-58752401D01*
X125047599Y-58752401D02*
X126470000Y-57330000D01*
D28*
X123700000Y-64000000D02*
X124650000Y-63100000D01*
X120450000Y-65025000D02*
X120475000Y-65025000D01*
X120475000Y-65025000D02*
X121500000Y-64000000D01*
X121500000Y-64000000D02*
X123700000Y-64000000D01*
D30*
X125047599Y-61749601D02*
X124650000Y-63100000D01*
X126470000Y-57330000D02*
X129010000Y-57330000D01*
D31*
G36*
X176875877Y-56779664D02*
X176383561Y-57965294D01*
X176382441Y-59249074D01*
X176872687Y-60435561D01*
X177779664Y-61344123D01*
X178965294Y-61836439D01*
X180249074Y-61837559D01*
X181435561Y-61347313D01*
X181483000Y-61299957D01*
X181483000Y-104918616D01*
X181440336Y-104875877D01*
X180254706Y-104383561D01*
X178970926Y-104382441D01*
X177784439Y-104872687D01*
X176875877Y-105779664D01*
X176383561Y-106965294D01*
X176382441Y-108249074D01*
X176872687Y-109435561D01*
X177779664Y-110344123D01*
X178965294Y-110836439D01*
X180249074Y-110837559D01*
X181435561Y-110347313D01*
X181483000Y-110299957D01*
X181483000Y-121918808D01*
X181330336Y-121765877D01*
X180144706Y-121273561D01*
X178860926Y-121272441D01*
X177674439Y-121762687D01*
X176765877Y-122669664D01*
X176273561Y-123855294D01*
X176272441Y-125139074D01*
X176762687Y-126325561D01*
X177669664Y-127234123D01*
X177864438Y-127315000D01*
X123247544Y-127315000D01*
X123435561Y-127237313D01*
X124344123Y-126330336D01*
X124824156Y-125174285D01*
X164314760Y-125174285D01*
X164525169Y-125683515D01*
X164914436Y-126073461D01*
X165423298Y-126284759D01*
X165974285Y-126285240D01*
X166483515Y-126074831D01*
X166873461Y-125685564D01*
X167084759Y-125176702D01*
X167084761Y-125174285D01*
X169314760Y-125174285D01*
X169525169Y-125683515D01*
X169914436Y-126073461D01*
X170423298Y-126284759D01*
X170974285Y-126285240D01*
X171483515Y-126074831D01*
X171873461Y-125685564D01*
X172084759Y-125176702D01*
X172085240Y-124625715D01*
X171874831Y-124116485D01*
X171485564Y-123726539D01*
X170976702Y-123515241D01*
X170425715Y-123514760D01*
X169916485Y-123725169D01*
X169526539Y-124114436D01*
X169315241Y-124623298D01*
X169314760Y-125174285D01*
X167084761Y-125174285D01*
X167085240Y-124625715D01*
X166874831Y-124116485D01*
X166485564Y-123726539D01*
X165976702Y-123515241D01*
X165425715Y-123514760D01*
X164916485Y-123725169D01*
X164526539Y-124114436D01*
X164315241Y-124623298D01*
X164314760Y-125174285D01*
X124824156Y-125174285D01*
X124836439Y-125144706D01*
X124837559Y-123860926D01*
X124379581Y-122752532D01*
X164727073Y-122752532D01*
X164825736Y-123019387D01*
X165435461Y-123245908D01*
X166085460Y-123221856D01*
X166574264Y-123019387D01*
X166672927Y-122752532D01*
X165700000Y-121779605D01*
X164727073Y-122752532D01*
X124379581Y-122752532D01*
X124347313Y-122674439D01*
X123440336Y-121765877D01*
X122254706Y-121273561D01*
X120970926Y-121272441D01*
X119784439Y-121762687D01*
X119507000Y-122039642D01*
X119507000Y-117227160D01*
X143414450Y-117227160D01*
X143414450Y-117576410D01*
X143579928Y-118154326D01*
X143953969Y-118624925D01*
X144479628Y-118916563D01*
X144585072Y-118940873D01*
X144822880Y-118820220D01*
X144822880Y-117227160D01*
X143414450Y-117227160D01*
X119507000Y-117227160D01*
X119507000Y-115799016D01*
X133730590Y-115799016D01*
X133786271Y-116029611D01*
X134269078Y-116197622D01*
X134779428Y-116168083D01*
X135113729Y-116029611D01*
X135169410Y-115799016D01*
X134450000Y-115079605D01*
X133730590Y-115799016D01*
X119507000Y-115799016D01*
X119507000Y-114719078D01*
X133152378Y-114719078D01*
X133181917Y-115229428D01*
X133320389Y-115563729D01*
X133550984Y-115619410D01*
X134270395Y-114900000D01*
X134629605Y-114900000D01*
X135349016Y-115619410D01*
X135579611Y-115563729D01*
X135747622Y-115080922D01*
X135718083Y-114570572D01*
X135579611Y-114236271D01*
X135349016Y-114180590D01*
X134629605Y-114900000D01*
X134270395Y-114900000D01*
X133550984Y-114180590D01*
X133320389Y-114236271D01*
X133152378Y-114719078D01*
X119507000Y-114719078D01*
X119507000Y-114000984D01*
X133730590Y-114000984D01*
X134450000Y-114720395D01*
X135169410Y-114000984D01*
X135113729Y-113770389D01*
X134630922Y-113602378D01*
X134120572Y-113631917D01*
X133786271Y-113770389D01*
X133730590Y-114000984D01*
X119507000Y-114000984D01*
X119507000Y-110080983D01*
X119779664Y-110354123D01*
X120965294Y-110846439D01*
X122249074Y-110847559D01*
X123435561Y-110357313D01*
X124344123Y-109450336D01*
X124427309Y-109250000D01*
X133152560Y-109250000D01*
X133152560Y-110550000D01*
X133196838Y-110785317D01*
X133335910Y-111001441D01*
X133548110Y-111146431D01*
X133800000Y-111197440D01*
X135100000Y-111197440D01*
X135335317Y-111153162D01*
X135551441Y-111014090D01*
X135696431Y-110801890D01*
X135747440Y-110550000D01*
X135747440Y-109250000D01*
X135703162Y-109014683D01*
X135564090Y-108798559D01*
X135351890Y-108653569D01*
X135100000Y-108602560D01*
X133800000Y-108602560D01*
X133564683Y-108646838D01*
X133348559Y-108785910D01*
X133203569Y-108998110D01*
X133152560Y-109250000D01*
X124427309Y-109250000D01*
X124836439Y-108264706D01*
X124837559Y-106980926D01*
X124347313Y-105794439D01*
X123440336Y-104885877D01*
X122254706Y-104393561D01*
X120970926Y-104392441D01*
X119784439Y-104882687D01*
X119507000Y-105159642D01*
X119507000Y-94267858D01*
X126356916Y-94267858D01*
X126356916Y-106167858D01*
X126365402Y-106213502D01*
X126392497Y-106256015D01*
X126433998Y-106284636D01*
X126483364Y-106294857D01*
X137983364Y-106344857D01*
X137984441Y-106344857D01*
X142173735Y-106327524D01*
X142206918Y-112068592D01*
X142216239Y-112115618D01*
X142244091Y-112157638D01*
X142286098Y-112185512D01*
X142335639Y-112194846D01*
X143520523Y-112178768D01*
X143456939Y-115515438D01*
X143466633Y-115566578D01*
X143494828Y-115608369D01*
X143537060Y-115635898D01*
X143586676Y-115644828D01*
X143904270Y-115637924D01*
X143579928Y-116045994D01*
X143414450Y-116623910D01*
X143414450Y-116973160D01*
X144822880Y-116973160D01*
X144822880Y-116953160D01*
X145076880Y-116953160D01*
X145076880Y-116973160D01*
X145096880Y-116973160D01*
X145096880Y-117227160D01*
X145076880Y-117227160D01*
X145076880Y-118820220D01*
X145314688Y-118940873D01*
X145361610Y-118930055D01*
X145230588Y-119126143D01*
X145113710Y-119713727D01*
X145113710Y-120486073D01*
X145230588Y-121073657D01*
X145563427Y-121571786D01*
X146061556Y-121904625D01*
X146649140Y-122021503D01*
X147236724Y-121904625D01*
X147734853Y-121571786D01*
X148067692Y-121073657D01*
X148184570Y-120486073D01*
X148184570Y-119713727D01*
X148067692Y-119126143D01*
X147896968Y-118870636D01*
X147979748Y-118916563D01*
X148085192Y-118940873D01*
X148323000Y-118820220D01*
X148323000Y-117227160D01*
X148577000Y-117227160D01*
X148577000Y-118820220D01*
X148814808Y-118940873D01*
X148920252Y-118916563D01*
X149003032Y-118870636D01*
X148832308Y-119126143D01*
X148715430Y-119713727D01*
X148715430Y-120486073D01*
X148832308Y-121073657D01*
X149165147Y-121571786D01*
X149663276Y-121904625D01*
X150250860Y-122021503D01*
X150838444Y-121904625D01*
X151336573Y-121571786D01*
X151494480Y-121335461D01*
X164054092Y-121335461D01*
X164078144Y-121985460D01*
X164280613Y-122474264D01*
X164547468Y-122572927D01*
X165520395Y-121600000D01*
X165879605Y-121600000D01*
X166852532Y-122572927D01*
X167119387Y-122474264D01*
X167323893Y-121923795D01*
X169064716Y-121923795D01*
X169313106Y-122524943D01*
X169772637Y-122985278D01*
X170373352Y-123234716D01*
X171023795Y-123235284D01*
X171624943Y-122986894D01*
X172085278Y-122527363D01*
X172334716Y-121926648D01*
X172335284Y-121276205D01*
X172086894Y-120675057D01*
X171627363Y-120214722D01*
X171026648Y-119965284D01*
X170376205Y-119964716D01*
X169775057Y-120213106D01*
X169314722Y-120672637D01*
X169065284Y-121273352D01*
X169064716Y-121923795D01*
X167323893Y-121923795D01*
X167345908Y-121864539D01*
X167321856Y-121214540D01*
X167119387Y-120725736D01*
X166852532Y-120627073D01*
X165879605Y-121600000D01*
X165520395Y-121600000D01*
X164547468Y-120627073D01*
X164280613Y-120725736D01*
X164054092Y-121335461D01*
X151494480Y-121335461D01*
X151669412Y-121073657D01*
X151786290Y-120486073D01*
X151786290Y-120447468D01*
X164727073Y-120447468D01*
X165700000Y-121420395D01*
X166672927Y-120447468D01*
X166574264Y-120180613D01*
X165964539Y-119954092D01*
X165314540Y-119978144D01*
X164825736Y-120180613D01*
X164727073Y-120447468D01*
X151786290Y-120447468D01*
X151786290Y-119713727D01*
X151669412Y-119126143D01*
X151545950Y-118941368D01*
X151950120Y-119021763D01*
X152537704Y-118904885D01*
X153035833Y-118572046D01*
X153368672Y-118073917D01*
X153485550Y-117486333D01*
X153485550Y-116713987D01*
X153368672Y-116126403D01*
X153035833Y-115628274D01*
X152537704Y-115295435D01*
X151950120Y-115178557D01*
X151362536Y-115295435D01*
X150864407Y-115628274D01*
X150531568Y-116126403D01*
X150414690Y-116713987D01*
X150414690Y-117486333D01*
X150531568Y-118073917D01*
X150655030Y-118258692D01*
X150250860Y-118178297D01*
X149716402Y-118284608D01*
X149819952Y-118154326D01*
X149985430Y-117576410D01*
X149985430Y-117227160D01*
X148577000Y-117227160D01*
X148323000Y-117227160D01*
X148303000Y-117227160D01*
X148303000Y-116973160D01*
X148323000Y-116973160D01*
X148323000Y-116953160D01*
X148577000Y-116953160D01*
X148577000Y-116973160D01*
X149985430Y-116973160D01*
X149985430Y-116623910D01*
X149819952Y-116045994D01*
X149445911Y-115575395D01*
X149111285Y-115389743D01*
X149114914Y-114618485D01*
X169597630Y-114618485D01*
X169887038Y-115318906D01*
X170422455Y-115855259D01*
X171122370Y-116145888D01*
X171880225Y-116146550D01*
X172580646Y-115857142D01*
X173116999Y-115321725D01*
X173407628Y-114621810D01*
X173408290Y-113863955D01*
X173118882Y-113163534D01*
X172583465Y-112627181D01*
X171883550Y-112336552D01*
X171125695Y-112335890D01*
X170425274Y-112625298D01*
X169888921Y-113160715D01*
X169598292Y-113860630D01*
X169597630Y-114618485D01*
X149114914Y-114618485D01*
X149115169Y-114564480D01*
X150721220Y-114564480D01*
X150956537Y-114520202D01*
X151172661Y-114381130D01*
X151317651Y-114168930D01*
X151352909Y-113994817D01*
X163523048Y-113994817D01*
X163654740Y-114289697D01*
X164362256Y-114561301D01*
X165119852Y-114541476D01*
X165727700Y-114289697D01*
X165859392Y-113994817D01*
X164691220Y-112826645D01*
X163523048Y-113994817D01*
X151352909Y-113994817D01*
X151368660Y-113917040D01*
X151368660Y-112318076D01*
X162776959Y-112318076D01*
X162796784Y-113075672D01*
X163048563Y-113683520D01*
X163343443Y-113815212D01*
X164511615Y-112647040D01*
X164870825Y-112647040D01*
X166038997Y-113815212D01*
X166333877Y-113683520D01*
X166605481Y-112976004D01*
X166585656Y-112218408D01*
X166333877Y-111610560D01*
X166038997Y-111478868D01*
X164870825Y-112647040D01*
X164511615Y-112647040D01*
X163343443Y-111478868D01*
X163048563Y-111610560D01*
X162776959Y-112318076D01*
X151368660Y-112318076D01*
X151368660Y-111377040D01*
X151354026Y-111299263D01*
X163523048Y-111299263D01*
X164691220Y-112467435D01*
X165859392Y-111299263D01*
X165727700Y-111004383D01*
X165020184Y-110732779D01*
X164262588Y-110752604D01*
X163654740Y-111004383D01*
X163523048Y-111299263D01*
X151354026Y-111299263D01*
X151324382Y-111141723D01*
X151185310Y-110925599D01*
X150973110Y-110780609D01*
X150721220Y-110729600D01*
X149133215Y-110729600D01*
X149162530Y-104500000D01*
X154902560Y-104500000D01*
X154902560Y-105800000D01*
X154946838Y-106035317D01*
X155085910Y-106251441D01*
X155298110Y-106396431D01*
X155550000Y-106447440D01*
X156850000Y-106447440D01*
X157085317Y-106403162D01*
X157301441Y-106264090D01*
X157446431Y-106051890D01*
X157447012Y-106049016D01*
X157980590Y-106049016D01*
X158036271Y-106279611D01*
X158519078Y-106447622D01*
X159029428Y-106418083D01*
X159363729Y-106279611D01*
X159419410Y-106049016D01*
X158700000Y-105329605D01*
X157980590Y-106049016D01*
X157447012Y-106049016D01*
X157497440Y-105800000D01*
X157497440Y-105637615D01*
X157570389Y-105813729D01*
X157800984Y-105869410D01*
X158520395Y-105150000D01*
X158879605Y-105150000D01*
X159599016Y-105869410D01*
X159829611Y-105813729D01*
X159997622Y-105330922D01*
X159968083Y-104820572D01*
X159829611Y-104486271D01*
X159599016Y-104430590D01*
X158879605Y-105150000D01*
X158520395Y-105150000D01*
X157800984Y-104430590D01*
X157570389Y-104486271D01*
X157497440Y-104695902D01*
X157497440Y-104500000D01*
X157453162Y-104264683D01*
X157444347Y-104250984D01*
X157980590Y-104250984D01*
X158700000Y-104970395D01*
X159419410Y-104250984D01*
X159363729Y-104020389D01*
X158880922Y-103852378D01*
X158370572Y-103881917D01*
X158036271Y-104020389D01*
X157980590Y-104250984D01*
X157444347Y-104250984D01*
X157314090Y-104048559D01*
X157101890Y-103903569D01*
X156850000Y-103852560D01*
X155550000Y-103852560D01*
X155314683Y-103896838D01*
X155098559Y-104035910D01*
X154953569Y-104248110D01*
X154902560Y-104500000D01*
X149162530Y-104500000D01*
X149194383Y-97731220D01*
X169585520Y-97731220D01*
X169585520Y-100271220D01*
X169629798Y-100506537D01*
X169768870Y-100722661D01*
X169981070Y-100867651D01*
X170232960Y-100918660D01*
X172772960Y-100918660D01*
X173008277Y-100874382D01*
X173224401Y-100735310D01*
X173369391Y-100523110D01*
X173420400Y-100271220D01*
X173420400Y-97731220D01*
X173376122Y-97495903D01*
X173237050Y-97279779D01*
X173024850Y-97134789D01*
X172772960Y-97083780D01*
X170232960Y-97083780D01*
X169997643Y-97128058D01*
X169781519Y-97267130D01*
X169636529Y-97479330D01*
X169585520Y-97731220D01*
X149194383Y-97731220D01*
X149210915Y-94218456D01*
X149202128Y-94171437D01*
X149174754Y-94129103D01*
X149133067Y-94100755D01*
X149083635Y-94090858D01*
X126483635Y-94140858D01*
X126437757Y-94149543D01*
X126395363Y-94176823D01*
X126366922Y-94218448D01*
X126356916Y-94267858D01*
X119507000Y-94267858D01*
X119507000Y-85776661D01*
X133602758Y-85776661D01*
X133814990Y-86290303D01*
X134207630Y-86683629D01*
X134415512Y-86769949D01*
X134209697Y-86854990D01*
X133816371Y-87247630D01*
X133603243Y-87760900D01*
X133602758Y-88316661D01*
X133814990Y-88830303D01*
X134207630Y-89223629D01*
X134415512Y-89309949D01*
X134209697Y-89394990D01*
X133816371Y-89787630D01*
X133603243Y-90300900D01*
X133602758Y-90856661D01*
X133814990Y-91370303D01*
X134207630Y-91763629D01*
X134720900Y-91976757D01*
X135276661Y-91977242D01*
X135790303Y-91765010D01*
X136183629Y-91372370D01*
X136396757Y-90859100D01*
X136397242Y-90303339D01*
X136185010Y-89789697D01*
X135923341Y-89527570D01*
X176839609Y-89527570D01*
X177182948Y-90358515D01*
X177818141Y-90994818D01*
X178648486Y-91339607D01*
X179547570Y-91340391D01*
X180378515Y-90997052D01*
X181014818Y-90361859D01*
X181359607Y-89531514D01*
X181360391Y-88632430D01*
X181017052Y-87801485D01*
X180381859Y-87165182D01*
X179551514Y-86820393D01*
X178652430Y-86819609D01*
X177821485Y-87162948D01*
X177185182Y-87798141D01*
X176840393Y-88628486D01*
X176839609Y-89527570D01*
X135923341Y-89527570D01*
X135792370Y-89396371D01*
X135584488Y-89310051D01*
X135790303Y-89225010D01*
X136183629Y-88832370D01*
X136396757Y-88319100D01*
X136397242Y-87763339D01*
X136185010Y-87249697D01*
X135792370Y-86856371D01*
X135584488Y-86770051D01*
X135790303Y-86685010D01*
X136183629Y-86292370D01*
X136396757Y-85779100D01*
X136397242Y-85223339D01*
X136185010Y-84709697D01*
X135792370Y-84316371D01*
X135279100Y-84103243D01*
X134723339Y-84102758D01*
X134209697Y-84314990D01*
X133816371Y-84707630D01*
X133603243Y-85220900D01*
X133602758Y-85776661D01*
X119507000Y-85776661D01*
X119507000Y-82376661D01*
X168802758Y-82376661D01*
X169014990Y-82890303D01*
X169407630Y-83283629D01*
X169615512Y-83369949D01*
X169409697Y-83454990D01*
X169016371Y-83847630D01*
X168803243Y-84360900D01*
X168802758Y-84916661D01*
X169014990Y-85430303D01*
X169407630Y-85823629D01*
X169615512Y-85909949D01*
X169409697Y-85994990D01*
X169016371Y-86387630D01*
X168803243Y-86900900D01*
X168802758Y-87456661D01*
X169014990Y-87970303D01*
X169407630Y-88363629D01*
X169920900Y-88576757D01*
X170476661Y-88577242D01*
X170990303Y-88365010D01*
X171383629Y-87972370D01*
X171596757Y-87459100D01*
X171597242Y-86903339D01*
X171385010Y-86389697D01*
X170992370Y-85996371D01*
X170784488Y-85910051D01*
X170990303Y-85825010D01*
X171383629Y-85432370D01*
X171596757Y-84919100D01*
X171597242Y-84363339D01*
X171385010Y-83849697D01*
X170992370Y-83456371D01*
X170784488Y-83370051D01*
X170990303Y-83285010D01*
X171383629Y-82892370D01*
X171596757Y-82379100D01*
X171597242Y-81823339D01*
X171385010Y-81309697D01*
X171182329Y-81106661D01*
X171342758Y-81106661D01*
X171554990Y-81620303D01*
X171947630Y-82013629D01*
X172155512Y-82099949D01*
X171949697Y-82184990D01*
X171556371Y-82577630D01*
X171343243Y-83090900D01*
X171342758Y-83646661D01*
X171554990Y-84160303D01*
X171947630Y-84553629D01*
X172155512Y-84639949D01*
X171949697Y-84724990D01*
X171556371Y-85117630D01*
X171343243Y-85630900D01*
X171342758Y-86186661D01*
X171554990Y-86700303D01*
X171947630Y-87093629D01*
X172460900Y-87306757D01*
X173016661Y-87307242D01*
X173530303Y-87095010D01*
X173923629Y-86702370D01*
X174136757Y-86189100D01*
X174137242Y-85633339D01*
X173925010Y-85119697D01*
X173532370Y-84726371D01*
X173324488Y-84640051D01*
X173530303Y-84555010D01*
X173923629Y-84162370D01*
X174136757Y-83649100D01*
X174137242Y-83093339D01*
X173925010Y-82579697D01*
X173532370Y-82186371D01*
X173324488Y-82100051D01*
X173530303Y-82015010D01*
X173923629Y-81622370D01*
X174136757Y-81109100D01*
X174137242Y-80553339D01*
X173925010Y-80039697D01*
X173532370Y-79646371D01*
X173019100Y-79433243D01*
X172463339Y-79432758D01*
X171949697Y-79644990D01*
X171556371Y-80037630D01*
X171343243Y-80550900D01*
X171342758Y-81106661D01*
X171182329Y-81106661D01*
X170992370Y-80916371D01*
X170479100Y-80703243D01*
X169923339Y-80702758D01*
X169409697Y-80914990D01*
X169016371Y-81307630D01*
X168803243Y-81820900D01*
X168802758Y-82376661D01*
X119507000Y-82376661D01*
X119507000Y-80079255D01*
X129057400Y-80079255D01*
X129057400Y-80448745D01*
X129171474Y-81022234D01*
X129496330Y-81508415D01*
X129982511Y-81833271D01*
X130556000Y-81947345D01*
X131129489Y-81833271D01*
X131615670Y-81508415D01*
X131826000Y-81193634D01*
X132036330Y-81508415D01*
X132522511Y-81833271D01*
X133096000Y-81947345D01*
X133669489Y-81833271D01*
X134155670Y-81508415D01*
X134170500Y-81486220D01*
X134234073Y-81639698D01*
X134412701Y-81818327D01*
X134646090Y-81915000D01*
X135350250Y-81915000D01*
X135509000Y-81756250D01*
X135509000Y-80391000D01*
X135763000Y-80391000D01*
X135763000Y-81756250D01*
X135921750Y-81915000D01*
X136625910Y-81915000D01*
X136859299Y-81818327D01*
X137037927Y-81639698D01*
X137134600Y-81406309D01*
X137134600Y-80549750D01*
X136975850Y-80391000D01*
X135763000Y-80391000D01*
X135509000Y-80391000D01*
X135489000Y-80391000D01*
X135489000Y-80137000D01*
X135509000Y-80137000D01*
X135509000Y-78771750D01*
X135763000Y-78771750D01*
X135763000Y-80137000D01*
X136975850Y-80137000D01*
X137134600Y-79978250D01*
X137134600Y-79367570D01*
X176839609Y-79367570D01*
X177182948Y-80198515D01*
X177818141Y-80834818D01*
X178648486Y-81179607D01*
X179547570Y-81180391D01*
X180378515Y-80837052D01*
X181014818Y-80201859D01*
X181359607Y-79371514D01*
X181360391Y-78472430D01*
X181017052Y-77641485D01*
X180381859Y-77005182D01*
X179551514Y-76660393D01*
X178652430Y-76659609D01*
X177821485Y-77002948D01*
X177185182Y-77638141D01*
X176840393Y-78468486D01*
X176839609Y-79367570D01*
X137134600Y-79367570D01*
X137134600Y-79121691D01*
X137037927Y-78888302D01*
X136859299Y-78709673D01*
X136625910Y-78613000D01*
X135921750Y-78613000D01*
X135763000Y-78771750D01*
X135509000Y-78771750D01*
X135350250Y-78613000D01*
X134646090Y-78613000D01*
X134412701Y-78709673D01*
X134234073Y-78888302D01*
X134170500Y-79041780D01*
X134155670Y-79019585D01*
X133669489Y-78694729D01*
X133096000Y-78580655D01*
X132522511Y-78694729D01*
X132036330Y-79019585D01*
X131826000Y-79334366D01*
X131615670Y-79019585D01*
X131129489Y-78694729D01*
X130556000Y-78580655D01*
X129982511Y-78694729D01*
X129496330Y-79019585D01*
X129171474Y-79505766D01*
X129057400Y-80079255D01*
X119507000Y-80079255D01*
X119507000Y-73771887D01*
X133565000Y-73771887D01*
X133565000Y-73828113D01*
X133674233Y-74377264D01*
X133985302Y-74842811D01*
X134450849Y-75153880D01*
X135000000Y-75263113D01*
X135549151Y-75153880D01*
X136014698Y-74842811D01*
X136270000Y-74460725D01*
X136525302Y-74842811D01*
X136990849Y-75153880D01*
X137540000Y-75263113D01*
X138089151Y-75153880D01*
X138554698Y-74842811D01*
X138810000Y-74460725D01*
X139065302Y-74842811D01*
X139530849Y-75153880D01*
X140080000Y-75263113D01*
X140629151Y-75153880D01*
X141094698Y-74842811D01*
X141350000Y-74460725D01*
X141605302Y-74842811D01*
X142070849Y-75153880D01*
X142620000Y-75263113D01*
X143169151Y-75153880D01*
X143634698Y-74842811D01*
X143890000Y-74460725D01*
X144145302Y-74842811D01*
X144610849Y-75153880D01*
X145160000Y-75263113D01*
X145709151Y-75153880D01*
X146174698Y-74842811D01*
X146430000Y-74460725D01*
X146685302Y-74842811D01*
X147150849Y-75153880D01*
X147700000Y-75263113D01*
X148249151Y-75153880D01*
X148714698Y-74842811D01*
X148970000Y-74460725D01*
X149225302Y-74842811D01*
X149690849Y-75153880D01*
X150240000Y-75263113D01*
X150789151Y-75153880D01*
X151254698Y-74842811D01*
X151524986Y-74438297D01*
X151627611Y-74655134D01*
X152042577Y-75031041D01*
X152430961Y-75191904D01*
X152653000Y-75069915D01*
X152653000Y-73927000D01*
X152907000Y-73927000D01*
X152907000Y-75069915D01*
X153129039Y-75191904D01*
X153517423Y-75031041D01*
X153932389Y-74655134D01*
X154171914Y-74149041D01*
X154050629Y-73927000D01*
X152907000Y-73927000D01*
X152653000Y-73927000D01*
X152633000Y-73927000D01*
X152633000Y-73673000D01*
X152653000Y-73673000D01*
X152653000Y-72530085D01*
X152907000Y-72530085D01*
X152907000Y-73673000D01*
X154050629Y-73673000D01*
X154171914Y-73450959D01*
X153932389Y-72944866D01*
X153517423Y-72568959D01*
X153129039Y-72408096D01*
X152907000Y-72530085D01*
X152653000Y-72530085D01*
X152430961Y-72408096D01*
X152042577Y-72568959D01*
X151627611Y-72944866D01*
X151524986Y-73161703D01*
X151254698Y-72757189D01*
X150789151Y-72446120D01*
X150240000Y-72336887D01*
X149690849Y-72446120D01*
X149225302Y-72757189D01*
X148970000Y-73139275D01*
X148714698Y-72757189D01*
X148249151Y-72446120D01*
X147700000Y-72336887D01*
X147150849Y-72446120D01*
X146685302Y-72757189D01*
X146430000Y-73139275D01*
X146174698Y-72757189D01*
X145709151Y-72446120D01*
X145160000Y-72336887D01*
X144610849Y-72446120D01*
X144145302Y-72757189D01*
X143890000Y-73139275D01*
X143634698Y-72757189D01*
X143169151Y-72446120D01*
X142620000Y-72336887D01*
X142070849Y-72446120D01*
X141605302Y-72757189D01*
X141350000Y-73139275D01*
X141094698Y-72757189D01*
X140629151Y-72446120D01*
X140080000Y-72336887D01*
X139530849Y-72446120D01*
X139065302Y-72757189D01*
X138810000Y-73139275D01*
X138554698Y-72757189D01*
X138089151Y-72446120D01*
X137540000Y-72336887D01*
X136990849Y-72446120D01*
X136525302Y-72757189D01*
X136270000Y-73139275D01*
X136014698Y-72757189D01*
X135549151Y-72446120D01*
X135000000Y-72336887D01*
X134450849Y-72446120D01*
X133985302Y-72757189D01*
X133674233Y-73222736D01*
X133565000Y-73771887D01*
X119507000Y-73771887D01*
X119507000Y-72130000D01*
X159315536Y-72130000D01*
X159421200Y-72661207D01*
X159722104Y-73111542D01*
X160153812Y-73400000D01*
X159722104Y-73688458D01*
X159421200Y-74138793D01*
X159315536Y-74670000D01*
X159421200Y-75201207D01*
X159722104Y-75651542D01*
X160172439Y-75952446D01*
X160703646Y-76058110D01*
X162296354Y-76058110D01*
X162827561Y-75952446D01*
X163277896Y-75651542D01*
X163578800Y-75201207D01*
X163684464Y-74670000D01*
X163602427Y-74257570D01*
X176839609Y-74257570D01*
X177182948Y-75088515D01*
X177818141Y-75724818D01*
X178648486Y-76069607D01*
X179547570Y-76070391D01*
X180378515Y-75727052D01*
X181014818Y-75091859D01*
X181359607Y-74261514D01*
X181360391Y-73362430D01*
X181017052Y-72531485D01*
X180381859Y-71895182D01*
X179551514Y-71550393D01*
X178652430Y-71549609D01*
X177821485Y-71892948D01*
X177185182Y-72528141D01*
X176840393Y-73358486D01*
X176839609Y-74257570D01*
X163602427Y-74257570D01*
X163578800Y-74138793D01*
X163277896Y-73688458D01*
X162846188Y-73400000D01*
X163277896Y-73111542D01*
X163425783Y-72890213D01*
X171939392Y-72890213D01*
X172008857Y-73132397D01*
X172532302Y-73319144D01*
X173087368Y-73291362D01*
X173471143Y-73132397D01*
X173540608Y-72890213D01*
X172740000Y-72089605D01*
X171939392Y-72890213D01*
X163425783Y-72890213D01*
X163578800Y-72661207D01*
X163684464Y-72130000D01*
X163578800Y-71598793D01*
X163277896Y-71148458D01*
X162827561Y-70847554D01*
X162296354Y-70741890D01*
X160703646Y-70741890D01*
X160172439Y-70847554D01*
X159722104Y-71148458D01*
X159421200Y-71598793D01*
X159315536Y-72130000D01*
X119507000Y-72130000D01*
X119507000Y-70040000D01*
X121716655Y-70040000D01*
X121842330Y-70671810D01*
X122200222Y-71207433D01*
X122735845Y-71565325D01*
X123367655Y-71691000D01*
X123432345Y-71691000D01*
X124064155Y-71565325D01*
X124599778Y-71207433D01*
X124957670Y-70671810D01*
X125083345Y-70040000D01*
X124957670Y-69408190D01*
X124733034Y-69071999D01*
X124775698Y-69054327D01*
X124954327Y-68875699D01*
X125051000Y-68642310D01*
X125051000Y-68376661D01*
X168802758Y-68376661D01*
X169014990Y-68890303D01*
X169407630Y-69283629D01*
X169615512Y-69369949D01*
X169409697Y-69454990D01*
X169016371Y-69847630D01*
X168803243Y-70360900D01*
X168802758Y-70916661D01*
X169014990Y-71430303D01*
X169407630Y-71823629D01*
X169920900Y-72036757D01*
X170476661Y-72037242D01*
X170990303Y-71825010D01*
X171113225Y-71702302D01*
X171330856Y-71702302D01*
X171358638Y-72257368D01*
X171517603Y-72641143D01*
X171759787Y-72710608D01*
X172560395Y-71910000D01*
X172919605Y-71910000D01*
X173720213Y-72710608D01*
X173962397Y-72641143D01*
X174149144Y-72117698D01*
X174121362Y-71562632D01*
X173962397Y-71178857D01*
X173720213Y-71109392D01*
X172919605Y-71910000D01*
X172560395Y-71910000D01*
X171759787Y-71109392D01*
X171517603Y-71178857D01*
X171330856Y-71702302D01*
X171113225Y-71702302D01*
X171383629Y-71432370D01*
X171596757Y-70919100D01*
X171597242Y-70363339D01*
X171385010Y-69849697D01*
X171182329Y-69646661D01*
X171342758Y-69646661D01*
X171554990Y-70160303D01*
X171947630Y-70553629D01*
X172139727Y-70633395D01*
X172008857Y-70687603D01*
X171939392Y-70929787D01*
X172740000Y-71730395D01*
X173540608Y-70929787D01*
X173471143Y-70687603D01*
X173330682Y-70637491D01*
X173530303Y-70555010D01*
X173923629Y-70162370D01*
X174136757Y-69649100D01*
X174137242Y-69093339D01*
X173925010Y-68579697D01*
X173532370Y-68186371D01*
X173019100Y-67973243D01*
X172463339Y-67972758D01*
X171949697Y-68184990D01*
X171556371Y-68577630D01*
X171343243Y-69090900D01*
X171342758Y-69646661D01*
X171182329Y-69646661D01*
X170992370Y-69456371D01*
X170784488Y-69370051D01*
X170990303Y-69285010D01*
X171383629Y-68892370D01*
X171596757Y-68379100D01*
X171597242Y-67823339D01*
X171385010Y-67309697D01*
X170992370Y-66916371D01*
X170479100Y-66703243D01*
X169923339Y-66702758D01*
X169409697Y-66914990D01*
X169016371Y-67307630D01*
X168803243Y-67820900D01*
X168802758Y-68376661D01*
X125051000Y-68376661D01*
X125051000Y-67785750D01*
X124892250Y-67627000D01*
X123527000Y-67627000D01*
X123527000Y-67647000D01*
X123273000Y-67647000D01*
X123273000Y-67627000D01*
X121907750Y-67627000D01*
X121749000Y-67785750D01*
X121749000Y-68642310D01*
X121845673Y-68875699D01*
X122024302Y-69054327D01*
X122066966Y-69071999D01*
X121842330Y-69408190D01*
X121716655Y-70040000D01*
X119507000Y-70040000D01*
X119507000Y-66357690D01*
X121749000Y-66357690D01*
X121749000Y-67214250D01*
X121907750Y-67373000D01*
X123273000Y-67373000D01*
X123273000Y-66007750D01*
X123527000Y-66007750D01*
X123527000Y-67373000D01*
X124892250Y-67373000D01*
X125051000Y-67214250D01*
X125051000Y-66357690D01*
X124965754Y-66151887D01*
X133565000Y-66151887D01*
X133565000Y-66208113D01*
X133674233Y-66757264D01*
X133985302Y-67222811D01*
X134450849Y-67533880D01*
X135000000Y-67643113D01*
X135549151Y-67533880D01*
X136014698Y-67222811D01*
X136284986Y-66818297D01*
X136387611Y-67035134D01*
X136802577Y-67411041D01*
X137190961Y-67571904D01*
X137413000Y-67449915D01*
X137413000Y-66307000D01*
X137393000Y-66307000D01*
X137393000Y-66053000D01*
X137413000Y-66053000D01*
X137413000Y-64910085D01*
X137667000Y-64910085D01*
X137667000Y-66053000D01*
X137687000Y-66053000D01*
X137687000Y-66307000D01*
X137667000Y-66307000D01*
X137667000Y-67449915D01*
X137889039Y-67571904D01*
X138277423Y-67411041D01*
X138692389Y-67035134D01*
X138795014Y-66818297D01*
X139065302Y-67222811D01*
X139530849Y-67533880D01*
X140080000Y-67643113D01*
X140629151Y-67533880D01*
X141094698Y-67222811D01*
X141350000Y-66840725D01*
X141605302Y-67222811D01*
X142070849Y-67533880D01*
X142620000Y-67643113D01*
X143169151Y-67533880D01*
X143634698Y-67222811D01*
X143890000Y-66840725D01*
X144145302Y-67222811D01*
X144610849Y-67533880D01*
X145160000Y-67643113D01*
X145709151Y-67533880D01*
X146174698Y-67222811D01*
X146430000Y-66840725D01*
X146685302Y-67222811D01*
X147150849Y-67533880D01*
X147700000Y-67643113D01*
X148249151Y-67533880D01*
X148714698Y-67222811D01*
X148984986Y-66818297D01*
X149087611Y-67035134D01*
X149502577Y-67411041D01*
X149890961Y-67571904D01*
X150113000Y-67449915D01*
X150113000Y-66307000D01*
X150093000Y-66307000D01*
X150093000Y-66053000D01*
X150113000Y-66053000D01*
X150113000Y-64910085D01*
X150367000Y-64910085D01*
X150367000Y-66053000D01*
X150387000Y-66053000D01*
X150387000Y-66307000D01*
X150367000Y-66307000D01*
X150367000Y-67449915D01*
X150589039Y-67571904D01*
X150977423Y-67411041D01*
X151392389Y-67035134D01*
X151495014Y-66818297D01*
X151765302Y-67222811D01*
X152230849Y-67533880D01*
X152780000Y-67643113D01*
X153329151Y-67533880D01*
X153794698Y-67222811D01*
X154105767Y-66757264D01*
X154129575Y-66637570D01*
X176839609Y-66637570D01*
X177182948Y-67468515D01*
X177818141Y-68104818D01*
X178648486Y-68449607D01*
X179547570Y-68450391D01*
X180378515Y-68107052D01*
X181014818Y-67471859D01*
X181359607Y-66641514D01*
X181360391Y-65742430D01*
X181017052Y-64911485D01*
X180381859Y-64275182D01*
X179551514Y-63930393D01*
X178652430Y-63929609D01*
X177821485Y-64272948D01*
X177185182Y-64908141D01*
X176840393Y-65738486D01*
X176839609Y-66637570D01*
X154129575Y-66637570D01*
X154215000Y-66208113D01*
X154215000Y-66151887D01*
X154105767Y-65602736D01*
X153794698Y-65137189D01*
X153329151Y-64826120D01*
X152780000Y-64716887D01*
X152230849Y-64826120D01*
X151765302Y-65137189D01*
X151495014Y-65541703D01*
X151392389Y-65324866D01*
X150977423Y-64948959D01*
X150589039Y-64788096D01*
X150367000Y-64910085D01*
X150113000Y-64910085D01*
X149890961Y-64788096D01*
X149502577Y-64948959D01*
X149087611Y-65324866D01*
X148984986Y-65541703D01*
X148714698Y-65137189D01*
X148249151Y-64826120D01*
X147700000Y-64716887D01*
X147150849Y-64826120D01*
X146685302Y-65137189D01*
X146430000Y-65519275D01*
X146174698Y-65137189D01*
X145709151Y-64826120D01*
X145160000Y-64716887D01*
X144610849Y-64826120D01*
X144145302Y-65137189D01*
X143890000Y-65519275D01*
X143634698Y-65137189D01*
X143169151Y-64826120D01*
X142620000Y-64716887D01*
X142070849Y-64826120D01*
X141605302Y-65137189D01*
X141350000Y-65519275D01*
X141094698Y-65137189D01*
X140629151Y-64826120D01*
X140080000Y-64716887D01*
X139530849Y-64826120D01*
X139065302Y-65137189D01*
X138795014Y-65541703D01*
X138692389Y-65324866D01*
X138277423Y-64948959D01*
X137889039Y-64788096D01*
X137667000Y-64910085D01*
X137413000Y-64910085D01*
X137190961Y-64788096D01*
X136802577Y-64948959D01*
X136387611Y-65324866D01*
X136284986Y-65541703D01*
X136014698Y-65137189D01*
X135549151Y-64826120D01*
X135000000Y-64716887D01*
X134450849Y-64826120D01*
X133985302Y-65137189D01*
X133674233Y-65602736D01*
X133565000Y-66151887D01*
X124965754Y-66151887D01*
X124954327Y-66124301D01*
X124775698Y-65945673D01*
X124542309Y-65849000D01*
X123685750Y-65849000D01*
X123527000Y-66007750D01*
X123273000Y-66007750D01*
X123114250Y-65849000D01*
X122257691Y-65849000D01*
X122024302Y-65945673D01*
X121845673Y-66124301D01*
X121749000Y-66357690D01*
X119507000Y-66357690D01*
X119507000Y-65855717D01*
X119551974Y-65923026D01*
X119963992Y-66198327D01*
X120450000Y-66295000D01*
X120474995Y-66295000D01*
X120475000Y-66295001D01*
X120961008Y-66198327D01*
X121373026Y-65923026D01*
X122026052Y-65270000D01*
X123700000Y-65270000D01*
X123926492Y-65224948D01*
X124154131Y-65186029D01*
X124168895Y-65176731D01*
X124186008Y-65173327D01*
X124378028Y-65045024D01*
X124573436Y-64921960D01*
X125144446Y-64381004D01*
X125318603Y-64326613D01*
X125737113Y-63977380D01*
X125990120Y-63494573D01*
X126387719Y-62144174D01*
X126436705Y-61601297D01*
X126367917Y-61381040D01*
X127333600Y-61381040D01*
X127568917Y-61336762D01*
X127785041Y-61197690D01*
X127930031Y-60985490D01*
X127938864Y-60941869D01*
X127950330Y-60959029D01*
X128436511Y-61283885D01*
X129010000Y-61397959D01*
X129583489Y-61283885D01*
X130069670Y-60959029D01*
X130280000Y-60644248D01*
X130490330Y-60959029D01*
X130976511Y-61283885D01*
X131550000Y-61397959D01*
X132123489Y-61283885D01*
X132609670Y-60959029D01*
X132820000Y-60644248D01*
X133030330Y-60959029D01*
X133516511Y-61283885D01*
X134090000Y-61397959D01*
X134663489Y-61283885D01*
X135149670Y-60959029D01*
X135365664Y-60635772D01*
X135423179Y-60758490D01*
X135855053Y-61152688D01*
X136270974Y-61324958D01*
X136503000Y-61203817D01*
X136503000Y-59997000D01*
X136483000Y-59997000D01*
X136483000Y-59743000D01*
X136503000Y-59743000D01*
X136503000Y-59723000D01*
X136757000Y-59723000D01*
X136757000Y-59743000D01*
X136777000Y-59743000D01*
X136777000Y-59997000D01*
X136757000Y-59997000D01*
X136757000Y-61203817D01*
X136989026Y-61324958D01*
X137404947Y-61152688D01*
X137836821Y-60758490D01*
X137894336Y-60635772D01*
X138110330Y-60959029D01*
X138596511Y-61283885D01*
X139170000Y-61397959D01*
X139743489Y-61283885D01*
X140229670Y-60959029D01*
X140440000Y-60644248D01*
X140650330Y-60959029D01*
X141136511Y-61283885D01*
X141710000Y-61397959D01*
X142283489Y-61283885D01*
X142769670Y-60959029D01*
X142980000Y-60644248D01*
X143190330Y-60959029D01*
X143676511Y-61283885D01*
X144250000Y-61397959D01*
X144823489Y-61283885D01*
X145309670Y-60959029D01*
X145520000Y-60644248D01*
X145730330Y-60959029D01*
X146216511Y-61283885D01*
X146790000Y-61397959D01*
X147363489Y-61283885D01*
X147849670Y-60959029D01*
X148060000Y-60644248D01*
X148270330Y-60959029D01*
X148756511Y-61283885D01*
X149330000Y-61397959D01*
X149903489Y-61283885D01*
X150389670Y-60959029D01*
X150600000Y-60644248D01*
X150810330Y-60959029D01*
X151296511Y-61283885D01*
X151870000Y-61397959D01*
X152443489Y-61283885D01*
X152929670Y-60959029D01*
X153140000Y-60644248D01*
X153350330Y-60959029D01*
X153836511Y-61283885D01*
X154410000Y-61397959D01*
X154983489Y-61283885D01*
X155469670Y-60959029D01*
X155685664Y-60635772D01*
X155743179Y-60758490D01*
X156175053Y-61152688D01*
X156590974Y-61324958D01*
X156823000Y-61203817D01*
X156823000Y-59997000D01*
X156803000Y-59997000D01*
X156803000Y-59743000D01*
X156823000Y-59743000D01*
X156823000Y-59723000D01*
X157077000Y-59723000D01*
X157077000Y-59743000D01*
X157097000Y-59743000D01*
X157097000Y-59997000D01*
X157077000Y-59997000D01*
X157077000Y-61203817D01*
X157309026Y-61324958D01*
X157724947Y-61152688D01*
X158156821Y-60758490D01*
X158214336Y-60635772D01*
X158430330Y-60959029D01*
X158916511Y-61283885D01*
X159490000Y-61397959D01*
X160063489Y-61283885D01*
X160549670Y-60959029D01*
X160760000Y-60644248D01*
X160970330Y-60959029D01*
X161456511Y-61283885D01*
X162030000Y-61397959D01*
X162603489Y-61283885D01*
X163089670Y-60959029D01*
X163300000Y-60644248D01*
X163510330Y-60959029D01*
X163996511Y-61283885D01*
X164570000Y-61397959D01*
X165143489Y-61283885D01*
X165629670Y-60959029D01*
X165840000Y-60644248D01*
X166050330Y-60959029D01*
X166536511Y-61283885D01*
X167110000Y-61397959D01*
X167683489Y-61283885D01*
X168169670Y-60959029D01*
X168380000Y-60644248D01*
X168590330Y-60959029D01*
X169076511Y-61283885D01*
X169650000Y-61397959D01*
X170223489Y-61283885D01*
X170709670Y-60959029D01*
X170920000Y-60644248D01*
X171130330Y-60959029D01*
X171616511Y-61283885D01*
X172190000Y-61397959D01*
X172763489Y-61283885D01*
X173249670Y-60959029D01*
X173465664Y-60635772D01*
X173523179Y-60758490D01*
X173955053Y-61152688D01*
X174370974Y-61324958D01*
X174603000Y-61203817D01*
X174603000Y-59997000D01*
X174857000Y-59997000D01*
X174857000Y-61203817D01*
X175089026Y-61324958D01*
X175504947Y-61152688D01*
X175936821Y-60758490D01*
X176184968Y-60229027D01*
X176064469Y-59997000D01*
X174857000Y-59997000D01*
X174603000Y-59997000D01*
X174583000Y-59997000D01*
X174583000Y-59743000D01*
X174603000Y-59743000D01*
X174603000Y-59723000D01*
X174857000Y-59723000D01*
X174857000Y-59743000D01*
X176064469Y-59743000D01*
X176184968Y-59510973D01*
X175936821Y-58981510D01*
X175518839Y-58599992D01*
X175789670Y-58419029D01*
X176114526Y-57932848D01*
X176228600Y-57359359D01*
X176228600Y-57300641D01*
X176114526Y-56727152D01*
X176057629Y-56642000D01*
X177013782Y-56642000D01*
X176875877Y-56779664D01*
X176875877Y-56779664D01*
G37*
X176875877Y-56779664D02*
X176383561Y-57965294D01*
X176382441Y-59249074D01*
X176872687Y-60435561D01*
X177779664Y-61344123D01*
X178965294Y-61836439D01*
X180249074Y-61837559D01*
X181435561Y-61347313D01*
X181483000Y-61299957D01*
X181483000Y-104918616D01*
X181440336Y-104875877D01*
X180254706Y-104383561D01*
X178970926Y-104382441D01*
X177784439Y-104872687D01*
X176875877Y-105779664D01*
X176383561Y-106965294D01*
X176382441Y-108249074D01*
X176872687Y-109435561D01*
X177779664Y-110344123D01*
X178965294Y-110836439D01*
X180249074Y-110837559D01*
X181435561Y-110347313D01*
X181483000Y-110299957D01*
X181483000Y-121918808D01*
X181330336Y-121765877D01*
X180144706Y-121273561D01*
X178860926Y-121272441D01*
X177674439Y-121762687D01*
X176765877Y-122669664D01*
X176273561Y-123855294D01*
X176272441Y-125139074D01*
X176762687Y-126325561D01*
X177669664Y-127234123D01*
X177864438Y-127315000D01*
X123247544Y-127315000D01*
X123435561Y-127237313D01*
X124344123Y-126330336D01*
X124824156Y-125174285D01*
X164314760Y-125174285D01*
X164525169Y-125683515D01*
X164914436Y-126073461D01*
X165423298Y-126284759D01*
X165974285Y-126285240D01*
X166483515Y-126074831D01*
X166873461Y-125685564D01*
X167084759Y-125176702D01*
X167084761Y-125174285D01*
X169314760Y-125174285D01*
X169525169Y-125683515D01*
X169914436Y-126073461D01*
X170423298Y-126284759D01*
X170974285Y-126285240D01*
X171483515Y-126074831D01*
X171873461Y-125685564D01*
X172084759Y-125176702D01*
X172085240Y-124625715D01*
X171874831Y-124116485D01*
X171485564Y-123726539D01*
X170976702Y-123515241D01*
X170425715Y-123514760D01*
X169916485Y-123725169D01*
X169526539Y-124114436D01*
X169315241Y-124623298D01*
X169314760Y-125174285D01*
X167084761Y-125174285D01*
X167085240Y-124625715D01*
X166874831Y-124116485D01*
X166485564Y-123726539D01*
X165976702Y-123515241D01*
X165425715Y-123514760D01*
X164916485Y-123725169D01*
X164526539Y-124114436D01*
X164315241Y-124623298D01*
X164314760Y-125174285D01*
X124824156Y-125174285D01*
X124836439Y-125144706D01*
X124837559Y-123860926D01*
X124379581Y-122752532D01*
X164727073Y-122752532D01*
X164825736Y-123019387D01*
X165435461Y-123245908D01*
X166085460Y-123221856D01*
X166574264Y-123019387D01*
X166672927Y-122752532D01*
X165700000Y-121779605D01*
X164727073Y-122752532D01*
X124379581Y-122752532D01*
X124347313Y-122674439D01*
X123440336Y-121765877D01*
X122254706Y-121273561D01*
X120970926Y-121272441D01*
X119784439Y-121762687D01*
X119507000Y-122039642D01*
X119507000Y-117227160D01*
X143414450Y-117227160D01*
X143414450Y-117576410D01*
X143579928Y-118154326D01*
X143953969Y-118624925D01*
X144479628Y-118916563D01*
X144585072Y-118940873D01*
X144822880Y-118820220D01*
X144822880Y-117227160D01*
X143414450Y-117227160D01*
X119507000Y-117227160D01*
X119507000Y-115799016D01*
X133730590Y-115799016D01*
X133786271Y-116029611D01*
X134269078Y-116197622D01*
X134779428Y-116168083D01*
X135113729Y-116029611D01*
X135169410Y-115799016D01*
X134450000Y-115079605D01*
X133730590Y-115799016D01*
X119507000Y-115799016D01*
X119507000Y-114719078D01*
X133152378Y-114719078D01*
X133181917Y-115229428D01*
X133320389Y-115563729D01*
X133550984Y-115619410D01*
X134270395Y-114900000D01*
X134629605Y-114900000D01*
X135349016Y-115619410D01*
X135579611Y-115563729D01*
X135747622Y-115080922D01*
X135718083Y-114570572D01*
X135579611Y-114236271D01*
X135349016Y-114180590D01*
X134629605Y-114900000D01*
X134270395Y-114900000D01*
X133550984Y-114180590D01*
X133320389Y-114236271D01*
X133152378Y-114719078D01*
X119507000Y-114719078D01*
X119507000Y-114000984D01*
X133730590Y-114000984D01*
X134450000Y-114720395D01*
X135169410Y-114000984D01*
X135113729Y-113770389D01*
X134630922Y-113602378D01*
X134120572Y-113631917D01*
X133786271Y-113770389D01*
X133730590Y-114000984D01*
X119507000Y-114000984D01*
X119507000Y-110080983D01*
X119779664Y-110354123D01*
X120965294Y-110846439D01*
X122249074Y-110847559D01*
X123435561Y-110357313D01*
X124344123Y-109450336D01*
X124427309Y-109250000D01*
X133152560Y-109250000D01*
X133152560Y-110550000D01*
X133196838Y-110785317D01*
X133335910Y-111001441D01*
X133548110Y-111146431D01*
X133800000Y-111197440D01*
X135100000Y-111197440D01*
X135335317Y-111153162D01*
X135551441Y-111014090D01*
X135696431Y-110801890D01*
X135747440Y-110550000D01*
X135747440Y-109250000D01*
X135703162Y-109014683D01*
X135564090Y-108798559D01*
X135351890Y-108653569D01*
X135100000Y-108602560D01*
X133800000Y-108602560D01*
X133564683Y-108646838D01*
X133348559Y-108785910D01*
X133203569Y-108998110D01*
X133152560Y-109250000D01*
X124427309Y-109250000D01*
X124836439Y-108264706D01*
X124837559Y-106980926D01*
X124347313Y-105794439D01*
X123440336Y-104885877D01*
X122254706Y-104393561D01*
X120970926Y-104392441D01*
X119784439Y-104882687D01*
X119507000Y-105159642D01*
X119507000Y-94267858D01*
X126356916Y-94267858D01*
X126356916Y-106167858D01*
X126365402Y-106213502D01*
X126392497Y-106256015D01*
X126433998Y-106284636D01*
X126483364Y-106294857D01*
X137983364Y-106344857D01*
X137984441Y-106344857D01*
X142173735Y-106327524D01*
X142206918Y-112068592D01*
X142216239Y-112115618D01*
X142244091Y-112157638D01*
X142286098Y-112185512D01*
X142335639Y-112194846D01*
X143520523Y-112178768D01*
X143456939Y-115515438D01*
X143466633Y-115566578D01*
X143494828Y-115608369D01*
X143537060Y-115635898D01*
X143586676Y-115644828D01*
X143904270Y-115637924D01*
X143579928Y-116045994D01*
X143414450Y-116623910D01*
X143414450Y-116973160D01*
X144822880Y-116973160D01*
X144822880Y-116953160D01*
X145076880Y-116953160D01*
X145076880Y-116973160D01*
X145096880Y-116973160D01*
X145096880Y-117227160D01*
X145076880Y-117227160D01*
X145076880Y-118820220D01*
X145314688Y-118940873D01*
X145361610Y-118930055D01*
X145230588Y-119126143D01*
X145113710Y-119713727D01*
X145113710Y-120486073D01*
X145230588Y-121073657D01*
X145563427Y-121571786D01*
X146061556Y-121904625D01*
X146649140Y-122021503D01*
X147236724Y-121904625D01*
X147734853Y-121571786D01*
X148067692Y-121073657D01*
X148184570Y-120486073D01*
X148184570Y-119713727D01*
X148067692Y-119126143D01*
X147896968Y-118870636D01*
X147979748Y-118916563D01*
X148085192Y-118940873D01*
X148323000Y-118820220D01*
X148323000Y-117227160D01*
X148577000Y-117227160D01*
X148577000Y-118820220D01*
X148814808Y-118940873D01*
X148920252Y-118916563D01*
X149003032Y-118870636D01*
X148832308Y-119126143D01*
X148715430Y-119713727D01*
X148715430Y-120486073D01*
X148832308Y-121073657D01*
X149165147Y-121571786D01*
X149663276Y-121904625D01*
X150250860Y-122021503D01*
X150838444Y-121904625D01*
X151336573Y-121571786D01*
X151494480Y-121335461D01*
X164054092Y-121335461D01*
X164078144Y-121985460D01*
X164280613Y-122474264D01*
X164547468Y-122572927D01*
X165520395Y-121600000D01*
X165879605Y-121600000D01*
X166852532Y-122572927D01*
X167119387Y-122474264D01*
X167323893Y-121923795D01*
X169064716Y-121923795D01*
X169313106Y-122524943D01*
X169772637Y-122985278D01*
X170373352Y-123234716D01*
X171023795Y-123235284D01*
X171624943Y-122986894D01*
X172085278Y-122527363D01*
X172334716Y-121926648D01*
X172335284Y-121276205D01*
X172086894Y-120675057D01*
X171627363Y-120214722D01*
X171026648Y-119965284D01*
X170376205Y-119964716D01*
X169775057Y-120213106D01*
X169314722Y-120672637D01*
X169065284Y-121273352D01*
X169064716Y-121923795D01*
X167323893Y-121923795D01*
X167345908Y-121864539D01*
X167321856Y-121214540D01*
X167119387Y-120725736D01*
X166852532Y-120627073D01*
X165879605Y-121600000D01*
X165520395Y-121600000D01*
X164547468Y-120627073D01*
X164280613Y-120725736D01*
X164054092Y-121335461D01*
X151494480Y-121335461D01*
X151669412Y-121073657D01*
X151786290Y-120486073D01*
X151786290Y-120447468D01*
X164727073Y-120447468D01*
X165700000Y-121420395D01*
X166672927Y-120447468D01*
X166574264Y-120180613D01*
X165964539Y-119954092D01*
X165314540Y-119978144D01*
X164825736Y-120180613D01*
X164727073Y-120447468D01*
X151786290Y-120447468D01*
X151786290Y-119713727D01*
X151669412Y-119126143D01*
X151545950Y-118941368D01*
X151950120Y-119021763D01*
X152537704Y-118904885D01*
X153035833Y-118572046D01*
X153368672Y-118073917D01*
X153485550Y-117486333D01*
X153485550Y-116713987D01*
X153368672Y-116126403D01*
X153035833Y-115628274D01*
X152537704Y-115295435D01*
X151950120Y-115178557D01*
X151362536Y-115295435D01*
X150864407Y-115628274D01*
X150531568Y-116126403D01*
X150414690Y-116713987D01*
X150414690Y-117486333D01*
X150531568Y-118073917D01*
X150655030Y-118258692D01*
X150250860Y-118178297D01*
X149716402Y-118284608D01*
X149819952Y-118154326D01*
X149985430Y-117576410D01*
X149985430Y-117227160D01*
X148577000Y-117227160D01*
X148323000Y-117227160D01*
X148303000Y-117227160D01*
X148303000Y-116973160D01*
X148323000Y-116973160D01*
X148323000Y-116953160D01*
X148577000Y-116953160D01*
X148577000Y-116973160D01*
X149985430Y-116973160D01*
X149985430Y-116623910D01*
X149819952Y-116045994D01*
X149445911Y-115575395D01*
X149111285Y-115389743D01*
X149114914Y-114618485D01*
X169597630Y-114618485D01*
X169887038Y-115318906D01*
X170422455Y-115855259D01*
X171122370Y-116145888D01*
X171880225Y-116146550D01*
X172580646Y-115857142D01*
X173116999Y-115321725D01*
X173407628Y-114621810D01*
X173408290Y-113863955D01*
X173118882Y-113163534D01*
X172583465Y-112627181D01*
X171883550Y-112336552D01*
X171125695Y-112335890D01*
X170425274Y-112625298D01*
X169888921Y-113160715D01*
X169598292Y-113860630D01*
X169597630Y-114618485D01*
X149114914Y-114618485D01*
X149115169Y-114564480D01*
X150721220Y-114564480D01*
X150956537Y-114520202D01*
X151172661Y-114381130D01*
X151317651Y-114168930D01*
X151352909Y-113994817D01*
X163523048Y-113994817D01*
X163654740Y-114289697D01*
X164362256Y-114561301D01*
X165119852Y-114541476D01*
X165727700Y-114289697D01*
X165859392Y-113994817D01*
X164691220Y-112826645D01*
X163523048Y-113994817D01*
X151352909Y-113994817D01*
X151368660Y-113917040D01*
X151368660Y-112318076D01*
X162776959Y-112318076D01*
X162796784Y-113075672D01*
X163048563Y-113683520D01*
X163343443Y-113815212D01*
X164511615Y-112647040D01*
X164870825Y-112647040D01*
X166038997Y-113815212D01*
X166333877Y-113683520D01*
X166605481Y-112976004D01*
X166585656Y-112218408D01*
X166333877Y-111610560D01*
X166038997Y-111478868D01*
X164870825Y-112647040D01*
X164511615Y-112647040D01*
X163343443Y-111478868D01*
X163048563Y-111610560D01*
X162776959Y-112318076D01*
X151368660Y-112318076D01*
X151368660Y-111377040D01*
X151354026Y-111299263D01*
X163523048Y-111299263D01*
X164691220Y-112467435D01*
X165859392Y-111299263D01*
X165727700Y-111004383D01*
X165020184Y-110732779D01*
X164262588Y-110752604D01*
X163654740Y-111004383D01*
X163523048Y-111299263D01*
X151354026Y-111299263D01*
X151324382Y-111141723D01*
X151185310Y-110925599D01*
X150973110Y-110780609D01*
X150721220Y-110729600D01*
X149133215Y-110729600D01*
X149162530Y-104500000D01*
X154902560Y-104500000D01*
X154902560Y-105800000D01*
X154946838Y-106035317D01*
X155085910Y-106251441D01*
X155298110Y-106396431D01*
X155550000Y-106447440D01*
X156850000Y-106447440D01*
X157085317Y-106403162D01*
X157301441Y-106264090D01*
X157446431Y-106051890D01*
X157447012Y-106049016D01*
X157980590Y-106049016D01*
X158036271Y-106279611D01*
X158519078Y-106447622D01*
X159029428Y-106418083D01*
X159363729Y-106279611D01*
X159419410Y-106049016D01*
X158700000Y-105329605D01*
X157980590Y-106049016D01*
X157447012Y-106049016D01*
X157497440Y-105800000D01*
X157497440Y-105637615D01*
X157570389Y-105813729D01*
X157800984Y-105869410D01*
X158520395Y-105150000D01*
X158879605Y-105150000D01*
X159599016Y-105869410D01*
X159829611Y-105813729D01*
X159997622Y-105330922D01*
X159968083Y-104820572D01*
X159829611Y-104486271D01*
X159599016Y-104430590D01*
X158879605Y-105150000D01*
X158520395Y-105150000D01*
X157800984Y-104430590D01*
X157570389Y-104486271D01*
X157497440Y-104695902D01*
X157497440Y-104500000D01*
X157453162Y-104264683D01*
X157444347Y-104250984D01*
X157980590Y-104250984D01*
X158700000Y-104970395D01*
X159419410Y-104250984D01*
X159363729Y-104020389D01*
X158880922Y-103852378D01*
X158370572Y-103881917D01*
X158036271Y-104020389D01*
X157980590Y-104250984D01*
X157444347Y-104250984D01*
X157314090Y-104048559D01*
X157101890Y-103903569D01*
X156850000Y-103852560D01*
X155550000Y-103852560D01*
X155314683Y-103896838D01*
X155098559Y-104035910D01*
X154953569Y-104248110D01*
X154902560Y-104500000D01*
X149162530Y-104500000D01*
X149194383Y-97731220D01*
X169585520Y-97731220D01*
X169585520Y-100271220D01*
X169629798Y-100506537D01*
X169768870Y-100722661D01*
X169981070Y-100867651D01*
X170232960Y-100918660D01*
X172772960Y-100918660D01*
X173008277Y-100874382D01*
X173224401Y-100735310D01*
X173369391Y-100523110D01*
X173420400Y-100271220D01*
X173420400Y-97731220D01*
X173376122Y-97495903D01*
X173237050Y-97279779D01*
X173024850Y-97134789D01*
X172772960Y-97083780D01*
X170232960Y-97083780D01*
X169997643Y-97128058D01*
X169781519Y-97267130D01*
X169636529Y-97479330D01*
X169585520Y-97731220D01*
X149194383Y-97731220D01*
X149210915Y-94218456D01*
X149202128Y-94171437D01*
X149174754Y-94129103D01*
X149133067Y-94100755D01*
X149083635Y-94090858D01*
X126483635Y-94140858D01*
X126437757Y-94149543D01*
X126395363Y-94176823D01*
X126366922Y-94218448D01*
X126356916Y-94267858D01*
X119507000Y-94267858D01*
X119507000Y-85776661D01*
X133602758Y-85776661D01*
X133814990Y-86290303D01*
X134207630Y-86683629D01*
X134415512Y-86769949D01*
X134209697Y-86854990D01*
X133816371Y-87247630D01*
X133603243Y-87760900D01*
X133602758Y-88316661D01*
X133814990Y-88830303D01*
X134207630Y-89223629D01*
X134415512Y-89309949D01*
X134209697Y-89394990D01*
X133816371Y-89787630D01*
X133603243Y-90300900D01*
X133602758Y-90856661D01*
X133814990Y-91370303D01*
X134207630Y-91763629D01*
X134720900Y-91976757D01*
X135276661Y-91977242D01*
X135790303Y-91765010D01*
X136183629Y-91372370D01*
X136396757Y-90859100D01*
X136397242Y-90303339D01*
X136185010Y-89789697D01*
X135923341Y-89527570D01*
X176839609Y-89527570D01*
X177182948Y-90358515D01*
X177818141Y-90994818D01*
X178648486Y-91339607D01*
X179547570Y-91340391D01*
X180378515Y-90997052D01*
X181014818Y-90361859D01*
X181359607Y-89531514D01*
X181360391Y-88632430D01*
X181017052Y-87801485D01*
X180381859Y-87165182D01*
X179551514Y-86820393D01*
X178652430Y-86819609D01*
X177821485Y-87162948D01*
X177185182Y-87798141D01*
X176840393Y-88628486D01*
X176839609Y-89527570D01*
X135923341Y-89527570D01*
X135792370Y-89396371D01*
X135584488Y-89310051D01*
X135790303Y-89225010D01*
X136183629Y-88832370D01*
X136396757Y-88319100D01*
X136397242Y-87763339D01*
X136185010Y-87249697D01*
X135792370Y-86856371D01*
X135584488Y-86770051D01*
X135790303Y-86685010D01*
X136183629Y-86292370D01*
X136396757Y-85779100D01*
X136397242Y-85223339D01*
X136185010Y-84709697D01*
X135792370Y-84316371D01*
X135279100Y-84103243D01*
X134723339Y-84102758D01*
X134209697Y-84314990D01*
X133816371Y-84707630D01*
X133603243Y-85220900D01*
X133602758Y-85776661D01*
X119507000Y-85776661D01*
X119507000Y-82376661D01*
X168802758Y-82376661D01*
X169014990Y-82890303D01*
X169407630Y-83283629D01*
X169615512Y-83369949D01*
X169409697Y-83454990D01*
X169016371Y-83847630D01*
X168803243Y-84360900D01*
X168802758Y-84916661D01*
X169014990Y-85430303D01*
X169407630Y-85823629D01*
X169615512Y-85909949D01*
X169409697Y-85994990D01*
X169016371Y-86387630D01*
X168803243Y-86900900D01*
X168802758Y-87456661D01*
X169014990Y-87970303D01*
X169407630Y-88363629D01*
X169920900Y-88576757D01*
X170476661Y-88577242D01*
X170990303Y-88365010D01*
X171383629Y-87972370D01*
X171596757Y-87459100D01*
X171597242Y-86903339D01*
X171385010Y-86389697D01*
X170992370Y-85996371D01*
X170784488Y-85910051D01*
X170990303Y-85825010D01*
X171383629Y-85432370D01*
X171596757Y-84919100D01*
X171597242Y-84363339D01*
X171385010Y-83849697D01*
X170992370Y-83456371D01*
X170784488Y-83370051D01*
X170990303Y-83285010D01*
X171383629Y-82892370D01*
X171596757Y-82379100D01*
X171597242Y-81823339D01*
X171385010Y-81309697D01*
X171182329Y-81106661D01*
X171342758Y-81106661D01*
X171554990Y-81620303D01*
X171947630Y-82013629D01*
X172155512Y-82099949D01*
X171949697Y-82184990D01*
X171556371Y-82577630D01*
X171343243Y-83090900D01*
X171342758Y-83646661D01*
X171554990Y-84160303D01*
X171947630Y-84553629D01*
X172155512Y-84639949D01*
X171949697Y-84724990D01*
X171556371Y-85117630D01*
X171343243Y-85630900D01*
X171342758Y-86186661D01*
X171554990Y-86700303D01*
X171947630Y-87093629D01*
X172460900Y-87306757D01*
X173016661Y-87307242D01*
X173530303Y-87095010D01*
X173923629Y-86702370D01*
X174136757Y-86189100D01*
X174137242Y-85633339D01*
X173925010Y-85119697D01*
X173532370Y-84726371D01*
X173324488Y-84640051D01*
X173530303Y-84555010D01*
X173923629Y-84162370D01*
X174136757Y-83649100D01*
X174137242Y-83093339D01*
X173925010Y-82579697D01*
X173532370Y-82186371D01*
X173324488Y-82100051D01*
X173530303Y-82015010D01*
X173923629Y-81622370D01*
X174136757Y-81109100D01*
X174137242Y-80553339D01*
X173925010Y-80039697D01*
X173532370Y-79646371D01*
X173019100Y-79433243D01*
X172463339Y-79432758D01*
X171949697Y-79644990D01*
X171556371Y-80037630D01*
X171343243Y-80550900D01*
X171342758Y-81106661D01*
X171182329Y-81106661D01*
X170992370Y-80916371D01*
X170479100Y-80703243D01*
X169923339Y-80702758D01*
X169409697Y-80914990D01*
X169016371Y-81307630D01*
X168803243Y-81820900D01*
X168802758Y-82376661D01*
X119507000Y-82376661D01*
X119507000Y-80079255D01*
X129057400Y-80079255D01*
X129057400Y-80448745D01*
X129171474Y-81022234D01*
X129496330Y-81508415D01*
X129982511Y-81833271D01*
X130556000Y-81947345D01*
X131129489Y-81833271D01*
X131615670Y-81508415D01*
X131826000Y-81193634D01*
X132036330Y-81508415D01*
X132522511Y-81833271D01*
X133096000Y-81947345D01*
X133669489Y-81833271D01*
X134155670Y-81508415D01*
X134170500Y-81486220D01*
X134234073Y-81639698D01*
X134412701Y-81818327D01*
X134646090Y-81915000D01*
X135350250Y-81915000D01*
X135509000Y-81756250D01*
X135509000Y-80391000D01*
X135763000Y-80391000D01*
X135763000Y-81756250D01*
X135921750Y-81915000D01*
X136625910Y-81915000D01*
X136859299Y-81818327D01*
X137037927Y-81639698D01*
X137134600Y-81406309D01*
X137134600Y-80549750D01*
X136975850Y-80391000D01*
X135763000Y-80391000D01*
X135509000Y-80391000D01*
X135489000Y-80391000D01*
X135489000Y-80137000D01*
X135509000Y-80137000D01*
X135509000Y-78771750D01*
X135763000Y-78771750D01*
X135763000Y-80137000D01*
X136975850Y-80137000D01*
X137134600Y-79978250D01*
X137134600Y-79367570D01*
X176839609Y-79367570D01*
X177182948Y-80198515D01*
X177818141Y-80834818D01*
X178648486Y-81179607D01*
X179547570Y-81180391D01*
X180378515Y-80837052D01*
X181014818Y-80201859D01*
X181359607Y-79371514D01*
X181360391Y-78472430D01*
X181017052Y-77641485D01*
X180381859Y-77005182D01*
X179551514Y-76660393D01*
X178652430Y-76659609D01*
X177821485Y-77002948D01*
X177185182Y-77638141D01*
X176840393Y-78468486D01*
X176839609Y-79367570D01*
X137134600Y-79367570D01*
X137134600Y-79121691D01*
X137037927Y-78888302D01*
X136859299Y-78709673D01*
X136625910Y-78613000D01*
X135921750Y-78613000D01*
X135763000Y-78771750D01*
X135509000Y-78771750D01*
X135350250Y-78613000D01*
X134646090Y-78613000D01*
X134412701Y-78709673D01*
X134234073Y-78888302D01*
X134170500Y-79041780D01*
X134155670Y-79019585D01*
X133669489Y-78694729D01*
X133096000Y-78580655D01*
X132522511Y-78694729D01*
X132036330Y-79019585D01*
X131826000Y-79334366D01*
X131615670Y-79019585D01*
X131129489Y-78694729D01*
X130556000Y-78580655D01*
X129982511Y-78694729D01*
X129496330Y-79019585D01*
X129171474Y-79505766D01*
X129057400Y-80079255D01*
X119507000Y-80079255D01*
X119507000Y-73771887D01*
X133565000Y-73771887D01*
X133565000Y-73828113D01*
X133674233Y-74377264D01*
X133985302Y-74842811D01*
X134450849Y-75153880D01*
X135000000Y-75263113D01*
X135549151Y-75153880D01*
X136014698Y-74842811D01*
X136270000Y-74460725D01*
X136525302Y-74842811D01*
X136990849Y-75153880D01*
X137540000Y-75263113D01*
X138089151Y-75153880D01*
X138554698Y-74842811D01*
X138810000Y-74460725D01*
X139065302Y-74842811D01*
X139530849Y-75153880D01*
X140080000Y-75263113D01*
X140629151Y-75153880D01*
X141094698Y-74842811D01*
X141350000Y-74460725D01*
X141605302Y-74842811D01*
X142070849Y-75153880D01*
X142620000Y-75263113D01*
X143169151Y-75153880D01*
X143634698Y-74842811D01*
X143890000Y-74460725D01*
X144145302Y-74842811D01*
X144610849Y-75153880D01*
X145160000Y-75263113D01*
X145709151Y-75153880D01*
X146174698Y-74842811D01*
X146430000Y-74460725D01*
X146685302Y-74842811D01*
X147150849Y-75153880D01*
X147700000Y-75263113D01*
X148249151Y-75153880D01*
X148714698Y-74842811D01*
X148970000Y-74460725D01*
X149225302Y-74842811D01*
X149690849Y-75153880D01*
X150240000Y-75263113D01*
X150789151Y-75153880D01*
X151254698Y-74842811D01*
X151524986Y-74438297D01*
X151627611Y-74655134D01*
X152042577Y-75031041D01*
X152430961Y-75191904D01*
X152653000Y-75069915D01*
X152653000Y-73927000D01*
X152907000Y-73927000D01*
X152907000Y-75069915D01*
X153129039Y-75191904D01*
X153517423Y-75031041D01*
X153932389Y-74655134D01*
X154171914Y-74149041D01*
X154050629Y-73927000D01*
X152907000Y-73927000D01*
X152653000Y-73927000D01*
X152633000Y-73927000D01*
X152633000Y-73673000D01*
X152653000Y-73673000D01*
X152653000Y-72530085D01*
X152907000Y-72530085D01*
X152907000Y-73673000D01*
X154050629Y-73673000D01*
X154171914Y-73450959D01*
X153932389Y-72944866D01*
X153517423Y-72568959D01*
X153129039Y-72408096D01*
X152907000Y-72530085D01*
X152653000Y-72530085D01*
X152430961Y-72408096D01*
X152042577Y-72568959D01*
X151627611Y-72944866D01*
X151524986Y-73161703D01*
X151254698Y-72757189D01*
X150789151Y-72446120D01*
X150240000Y-72336887D01*
X149690849Y-72446120D01*
X149225302Y-72757189D01*
X148970000Y-73139275D01*
X148714698Y-72757189D01*
X148249151Y-72446120D01*
X147700000Y-72336887D01*
X147150849Y-72446120D01*
X146685302Y-72757189D01*
X146430000Y-73139275D01*
X146174698Y-72757189D01*
X145709151Y-72446120D01*
X145160000Y-72336887D01*
X144610849Y-72446120D01*
X144145302Y-72757189D01*
X143890000Y-73139275D01*
X143634698Y-72757189D01*
X143169151Y-72446120D01*
X142620000Y-72336887D01*
X142070849Y-72446120D01*
X141605302Y-72757189D01*
X141350000Y-73139275D01*
X141094698Y-72757189D01*
X140629151Y-72446120D01*
X140080000Y-72336887D01*
X139530849Y-72446120D01*
X139065302Y-72757189D01*
X138810000Y-73139275D01*
X138554698Y-72757189D01*
X138089151Y-72446120D01*
X137540000Y-72336887D01*
X136990849Y-72446120D01*
X136525302Y-72757189D01*
X136270000Y-73139275D01*
X136014698Y-72757189D01*
X135549151Y-72446120D01*
X135000000Y-72336887D01*
X134450849Y-72446120D01*
X133985302Y-72757189D01*
X133674233Y-73222736D01*
X133565000Y-73771887D01*
X119507000Y-73771887D01*
X119507000Y-72130000D01*
X159315536Y-72130000D01*
X159421200Y-72661207D01*
X159722104Y-73111542D01*
X160153812Y-73400000D01*
X159722104Y-73688458D01*
X159421200Y-74138793D01*
X159315536Y-74670000D01*
X159421200Y-75201207D01*
X159722104Y-75651542D01*
X160172439Y-75952446D01*
X160703646Y-76058110D01*
X162296354Y-76058110D01*
X162827561Y-75952446D01*
X163277896Y-75651542D01*
X163578800Y-75201207D01*
X163684464Y-74670000D01*
X163602427Y-74257570D01*
X176839609Y-74257570D01*
X177182948Y-75088515D01*
X177818141Y-75724818D01*
X178648486Y-76069607D01*
X179547570Y-76070391D01*
X180378515Y-75727052D01*
X181014818Y-75091859D01*
X181359607Y-74261514D01*
X181360391Y-73362430D01*
X181017052Y-72531485D01*
X180381859Y-71895182D01*
X179551514Y-71550393D01*
X178652430Y-71549609D01*
X177821485Y-71892948D01*
X177185182Y-72528141D01*
X176840393Y-73358486D01*
X176839609Y-74257570D01*
X163602427Y-74257570D01*
X163578800Y-74138793D01*
X163277896Y-73688458D01*
X162846188Y-73400000D01*
X163277896Y-73111542D01*
X163425783Y-72890213D01*
X171939392Y-72890213D01*
X172008857Y-73132397D01*
X172532302Y-73319144D01*
X173087368Y-73291362D01*
X173471143Y-73132397D01*
X173540608Y-72890213D01*
X172740000Y-72089605D01*
X171939392Y-72890213D01*
X163425783Y-72890213D01*
X163578800Y-72661207D01*
X163684464Y-72130000D01*
X163578800Y-71598793D01*
X163277896Y-71148458D01*
X162827561Y-70847554D01*
X162296354Y-70741890D01*
X160703646Y-70741890D01*
X160172439Y-70847554D01*
X159722104Y-71148458D01*
X159421200Y-71598793D01*
X159315536Y-72130000D01*
X119507000Y-72130000D01*
X119507000Y-70040000D01*
X121716655Y-70040000D01*
X121842330Y-70671810D01*
X122200222Y-71207433D01*
X122735845Y-71565325D01*
X123367655Y-71691000D01*
X123432345Y-71691000D01*
X124064155Y-71565325D01*
X124599778Y-71207433D01*
X124957670Y-70671810D01*
X125083345Y-70040000D01*
X124957670Y-69408190D01*
X124733034Y-69071999D01*
X124775698Y-69054327D01*
X124954327Y-68875699D01*
X125051000Y-68642310D01*
X125051000Y-68376661D01*
X168802758Y-68376661D01*
X169014990Y-68890303D01*
X169407630Y-69283629D01*
X169615512Y-69369949D01*
X169409697Y-69454990D01*
X169016371Y-69847630D01*
X168803243Y-70360900D01*
X168802758Y-70916661D01*
X169014990Y-71430303D01*
X169407630Y-71823629D01*
X169920900Y-72036757D01*
X170476661Y-72037242D01*
X170990303Y-71825010D01*
X171113225Y-71702302D01*
X171330856Y-71702302D01*
X171358638Y-72257368D01*
X171517603Y-72641143D01*
X171759787Y-72710608D01*
X172560395Y-71910000D01*
X172919605Y-71910000D01*
X173720213Y-72710608D01*
X173962397Y-72641143D01*
X174149144Y-72117698D01*
X174121362Y-71562632D01*
X173962397Y-71178857D01*
X173720213Y-71109392D01*
X172919605Y-71910000D01*
X172560395Y-71910000D01*
X171759787Y-71109392D01*
X171517603Y-71178857D01*
X171330856Y-71702302D01*
X171113225Y-71702302D01*
X171383629Y-71432370D01*
X171596757Y-70919100D01*
X171597242Y-70363339D01*
X171385010Y-69849697D01*
X171182329Y-69646661D01*
X171342758Y-69646661D01*
X171554990Y-70160303D01*
X171947630Y-70553629D01*
X172139727Y-70633395D01*
X172008857Y-70687603D01*
X171939392Y-70929787D01*
X172740000Y-71730395D01*
X173540608Y-70929787D01*
X173471143Y-70687603D01*
X173330682Y-70637491D01*
X173530303Y-70555010D01*
X173923629Y-70162370D01*
X174136757Y-69649100D01*
X174137242Y-69093339D01*
X173925010Y-68579697D01*
X173532370Y-68186371D01*
X173019100Y-67973243D01*
X172463339Y-67972758D01*
X171949697Y-68184990D01*
X171556371Y-68577630D01*
X171343243Y-69090900D01*
X171342758Y-69646661D01*
X171182329Y-69646661D01*
X170992370Y-69456371D01*
X170784488Y-69370051D01*
X170990303Y-69285010D01*
X171383629Y-68892370D01*
X171596757Y-68379100D01*
X171597242Y-67823339D01*
X171385010Y-67309697D01*
X170992370Y-66916371D01*
X170479100Y-66703243D01*
X169923339Y-66702758D01*
X169409697Y-66914990D01*
X169016371Y-67307630D01*
X168803243Y-67820900D01*
X168802758Y-68376661D01*
X125051000Y-68376661D01*
X125051000Y-67785750D01*
X124892250Y-67627000D01*
X123527000Y-67627000D01*
X123527000Y-67647000D01*
X123273000Y-67647000D01*
X123273000Y-67627000D01*
X121907750Y-67627000D01*
X121749000Y-67785750D01*
X121749000Y-68642310D01*
X121845673Y-68875699D01*
X122024302Y-69054327D01*
X122066966Y-69071999D01*
X121842330Y-69408190D01*
X121716655Y-70040000D01*
X119507000Y-70040000D01*
X119507000Y-66357690D01*
X121749000Y-66357690D01*
X121749000Y-67214250D01*
X121907750Y-67373000D01*
X123273000Y-67373000D01*
X123273000Y-66007750D01*
X123527000Y-66007750D01*
X123527000Y-67373000D01*
X124892250Y-67373000D01*
X125051000Y-67214250D01*
X125051000Y-66357690D01*
X124965754Y-66151887D01*
X133565000Y-66151887D01*
X133565000Y-66208113D01*
X133674233Y-66757264D01*
X133985302Y-67222811D01*
X134450849Y-67533880D01*
X135000000Y-67643113D01*
X135549151Y-67533880D01*
X136014698Y-67222811D01*
X136284986Y-66818297D01*
X136387611Y-67035134D01*
X136802577Y-67411041D01*
X137190961Y-67571904D01*
X137413000Y-67449915D01*
X137413000Y-66307000D01*
X137393000Y-66307000D01*
X137393000Y-66053000D01*
X137413000Y-66053000D01*
X137413000Y-64910085D01*
X137667000Y-64910085D01*
X137667000Y-66053000D01*
X137687000Y-66053000D01*
X137687000Y-66307000D01*
X137667000Y-66307000D01*
X137667000Y-67449915D01*
X137889039Y-67571904D01*
X138277423Y-67411041D01*
X138692389Y-67035134D01*
X138795014Y-66818297D01*
X139065302Y-67222811D01*
X139530849Y-67533880D01*
X140080000Y-67643113D01*
X140629151Y-67533880D01*
X141094698Y-67222811D01*
X141350000Y-66840725D01*
X141605302Y-67222811D01*
X142070849Y-67533880D01*
X142620000Y-67643113D01*
X143169151Y-67533880D01*
X143634698Y-67222811D01*
X143890000Y-66840725D01*
X144145302Y-67222811D01*
X144610849Y-67533880D01*
X145160000Y-67643113D01*
X145709151Y-67533880D01*
X146174698Y-67222811D01*
X146430000Y-66840725D01*
X146685302Y-67222811D01*
X147150849Y-67533880D01*
X147700000Y-67643113D01*
X148249151Y-67533880D01*
X148714698Y-67222811D01*
X148984986Y-66818297D01*
X149087611Y-67035134D01*
X149502577Y-67411041D01*
X149890961Y-67571904D01*
X150113000Y-67449915D01*
X150113000Y-66307000D01*
X150093000Y-66307000D01*
X150093000Y-66053000D01*
X150113000Y-66053000D01*
X150113000Y-64910085D01*
X150367000Y-64910085D01*
X150367000Y-66053000D01*
X150387000Y-66053000D01*
X150387000Y-66307000D01*
X150367000Y-66307000D01*
X150367000Y-67449915D01*
X150589039Y-67571904D01*
X150977423Y-67411041D01*
X151392389Y-67035134D01*
X151495014Y-66818297D01*
X151765302Y-67222811D01*
X152230849Y-67533880D01*
X152780000Y-67643113D01*
X153329151Y-67533880D01*
X153794698Y-67222811D01*
X154105767Y-66757264D01*
X154129575Y-66637570D01*
X176839609Y-66637570D01*
X177182948Y-67468515D01*
X177818141Y-68104818D01*
X178648486Y-68449607D01*
X179547570Y-68450391D01*
X180378515Y-68107052D01*
X181014818Y-67471859D01*
X181359607Y-66641514D01*
X181360391Y-65742430D01*
X181017052Y-64911485D01*
X180381859Y-64275182D01*
X179551514Y-63930393D01*
X178652430Y-63929609D01*
X177821485Y-64272948D01*
X177185182Y-64908141D01*
X176840393Y-65738486D01*
X176839609Y-66637570D01*
X154129575Y-66637570D01*
X154215000Y-66208113D01*
X154215000Y-66151887D01*
X154105767Y-65602736D01*
X153794698Y-65137189D01*
X153329151Y-64826120D01*
X152780000Y-64716887D01*
X152230849Y-64826120D01*
X151765302Y-65137189D01*
X151495014Y-65541703D01*
X151392389Y-65324866D01*
X150977423Y-64948959D01*
X150589039Y-64788096D01*
X150367000Y-64910085D01*
X150113000Y-64910085D01*
X149890961Y-64788096D01*
X149502577Y-64948959D01*
X149087611Y-65324866D01*
X148984986Y-65541703D01*
X148714698Y-65137189D01*
X148249151Y-64826120D01*
X147700000Y-64716887D01*
X147150849Y-64826120D01*
X146685302Y-65137189D01*
X146430000Y-65519275D01*
X146174698Y-65137189D01*
X145709151Y-64826120D01*
X145160000Y-64716887D01*
X144610849Y-64826120D01*
X144145302Y-65137189D01*
X143890000Y-65519275D01*
X143634698Y-65137189D01*
X143169151Y-64826120D01*
X142620000Y-64716887D01*
X142070849Y-64826120D01*
X141605302Y-65137189D01*
X141350000Y-65519275D01*
X141094698Y-65137189D01*
X140629151Y-64826120D01*
X140080000Y-64716887D01*
X139530849Y-64826120D01*
X139065302Y-65137189D01*
X138795014Y-65541703D01*
X138692389Y-65324866D01*
X138277423Y-64948959D01*
X137889039Y-64788096D01*
X137667000Y-64910085D01*
X137413000Y-64910085D01*
X137190961Y-64788096D01*
X136802577Y-64948959D01*
X136387611Y-65324866D01*
X136284986Y-65541703D01*
X136014698Y-65137189D01*
X135549151Y-64826120D01*
X135000000Y-64716887D01*
X134450849Y-64826120D01*
X133985302Y-65137189D01*
X133674233Y-65602736D01*
X133565000Y-66151887D01*
X124965754Y-66151887D01*
X124954327Y-66124301D01*
X124775698Y-65945673D01*
X124542309Y-65849000D01*
X123685750Y-65849000D01*
X123527000Y-66007750D01*
X123273000Y-66007750D01*
X123114250Y-65849000D01*
X122257691Y-65849000D01*
X122024302Y-65945673D01*
X121845673Y-66124301D01*
X121749000Y-66357690D01*
X119507000Y-66357690D01*
X119507000Y-65855717D01*
X119551974Y-65923026D01*
X119963992Y-66198327D01*
X120450000Y-66295000D01*
X120474995Y-66295000D01*
X120475000Y-66295001D01*
X120961008Y-66198327D01*
X121373026Y-65923026D01*
X122026052Y-65270000D01*
X123700000Y-65270000D01*
X123926492Y-65224948D01*
X124154131Y-65186029D01*
X124168895Y-65176731D01*
X124186008Y-65173327D01*
X124378028Y-65045024D01*
X124573436Y-64921960D01*
X125144446Y-64381004D01*
X125318603Y-64326613D01*
X125737113Y-63977380D01*
X125990120Y-63494573D01*
X126387719Y-62144174D01*
X126436705Y-61601297D01*
X126367917Y-61381040D01*
X127333600Y-61381040D01*
X127568917Y-61336762D01*
X127785041Y-61197690D01*
X127930031Y-60985490D01*
X127938864Y-60941869D01*
X127950330Y-60959029D01*
X128436511Y-61283885D01*
X129010000Y-61397959D01*
X129583489Y-61283885D01*
X130069670Y-60959029D01*
X130280000Y-60644248D01*
X130490330Y-60959029D01*
X130976511Y-61283885D01*
X131550000Y-61397959D01*
X132123489Y-61283885D01*
X132609670Y-60959029D01*
X132820000Y-60644248D01*
X133030330Y-60959029D01*
X133516511Y-61283885D01*
X134090000Y-61397959D01*
X134663489Y-61283885D01*
X135149670Y-60959029D01*
X135365664Y-60635772D01*
X135423179Y-60758490D01*
X135855053Y-61152688D01*
X136270974Y-61324958D01*
X136503000Y-61203817D01*
X136503000Y-59997000D01*
X136483000Y-59997000D01*
X136483000Y-59743000D01*
X136503000Y-59743000D01*
X136503000Y-59723000D01*
X136757000Y-59723000D01*
X136757000Y-59743000D01*
X136777000Y-59743000D01*
X136777000Y-59997000D01*
X136757000Y-59997000D01*
X136757000Y-61203817D01*
X136989026Y-61324958D01*
X137404947Y-61152688D01*
X137836821Y-60758490D01*
X137894336Y-60635772D01*
X138110330Y-60959029D01*
X138596511Y-61283885D01*
X139170000Y-61397959D01*
X139743489Y-61283885D01*
X140229670Y-60959029D01*
X140440000Y-60644248D01*
X140650330Y-60959029D01*
X141136511Y-61283885D01*
X141710000Y-61397959D01*
X142283489Y-61283885D01*
X142769670Y-60959029D01*
X142980000Y-60644248D01*
X143190330Y-60959029D01*
X143676511Y-61283885D01*
X144250000Y-61397959D01*
X144823489Y-61283885D01*
X145309670Y-60959029D01*
X145520000Y-60644248D01*
X145730330Y-60959029D01*
X146216511Y-61283885D01*
X146790000Y-61397959D01*
X147363489Y-61283885D01*
X147849670Y-60959029D01*
X148060000Y-60644248D01*
X148270330Y-60959029D01*
X148756511Y-61283885D01*
X149330000Y-61397959D01*
X149903489Y-61283885D01*
X150389670Y-60959029D01*
X150600000Y-60644248D01*
X150810330Y-60959029D01*
X151296511Y-61283885D01*
X151870000Y-61397959D01*
X152443489Y-61283885D01*
X152929670Y-60959029D01*
X153140000Y-60644248D01*
X153350330Y-60959029D01*
X153836511Y-61283885D01*
X154410000Y-61397959D01*
X154983489Y-61283885D01*
X155469670Y-60959029D01*
X155685664Y-60635772D01*
X155743179Y-60758490D01*
X156175053Y-61152688D01*
X156590974Y-61324958D01*
X156823000Y-61203817D01*
X156823000Y-59997000D01*
X156803000Y-59997000D01*
X156803000Y-59743000D01*
X156823000Y-59743000D01*
X156823000Y-59723000D01*
X157077000Y-59723000D01*
X157077000Y-59743000D01*
X157097000Y-59743000D01*
X157097000Y-59997000D01*
X157077000Y-59997000D01*
X157077000Y-61203817D01*
X157309026Y-61324958D01*
X157724947Y-61152688D01*
X158156821Y-60758490D01*
X158214336Y-60635772D01*
X158430330Y-60959029D01*
X158916511Y-61283885D01*
X159490000Y-61397959D01*
X160063489Y-61283885D01*
X160549670Y-60959029D01*
X160760000Y-60644248D01*
X160970330Y-60959029D01*
X161456511Y-61283885D01*
X162030000Y-61397959D01*
X162603489Y-61283885D01*
X163089670Y-60959029D01*
X163300000Y-60644248D01*
X163510330Y-60959029D01*
X163996511Y-61283885D01*
X164570000Y-61397959D01*
X165143489Y-61283885D01*
X165629670Y-60959029D01*
X165840000Y-60644248D01*
X166050330Y-60959029D01*
X166536511Y-61283885D01*
X167110000Y-61397959D01*
X167683489Y-61283885D01*
X168169670Y-60959029D01*
X168380000Y-60644248D01*
X168590330Y-60959029D01*
X169076511Y-61283885D01*
X169650000Y-61397959D01*
X170223489Y-61283885D01*
X170709670Y-60959029D01*
X170920000Y-60644248D01*
X171130330Y-60959029D01*
X171616511Y-61283885D01*
X172190000Y-61397959D01*
X172763489Y-61283885D01*
X173249670Y-60959029D01*
X173465664Y-60635772D01*
X173523179Y-60758490D01*
X173955053Y-61152688D01*
X174370974Y-61324958D01*
X174603000Y-61203817D01*
X174603000Y-59997000D01*
X174857000Y-59997000D01*
X174857000Y-61203817D01*
X175089026Y-61324958D01*
X175504947Y-61152688D01*
X175936821Y-60758490D01*
X176184968Y-60229027D01*
X176064469Y-59997000D01*
X174857000Y-59997000D01*
X174603000Y-59997000D01*
X174583000Y-59997000D01*
X174583000Y-59743000D01*
X174603000Y-59743000D01*
X174603000Y-59723000D01*
X174857000Y-59723000D01*
X174857000Y-59743000D01*
X176064469Y-59743000D01*
X176184968Y-59510973D01*
X175936821Y-58981510D01*
X175518839Y-58599992D01*
X175789670Y-58419029D01*
X176114526Y-57932848D01*
X176228600Y-57359359D01*
X176228600Y-57300641D01*
X176114526Y-56727152D01*
X176057629Y-56642000D01*
X177013782Y-56642000D01*
X176875877Y-56779664D01*
G36*
X167237000Y-57203000D02*
X167257000Y-57203000D01*
X167257000Y-57457000D01*
X167237000Y-57457000D01*
X167237000Y-57477000D01*
X166983000Y-57477000D01*
X166983000Y-57457000D01*
X166963000Y-57457000D01*
X166963000Y-57203000D01*
X166983000Y-57203000D01*
X166983000Y-57183000D01*
X167237000Y-57183000D01*
X167237000Y-57203000D01*
X167237000Y-57203000D01*
G37*
X167237000Y-57203000D02*
X167257000Y-57203000D01*
X167257000Y-57457000D01*
X167237000Y-57457000D01*
X167237000Y-57477000D01*
X166983000Y-57477000D01*
X166983000Y-57457000D01*
X166963000Y-57457000D01*
X166963000Y-57203000D01*
X166983000Y-57203000D01*
X166983000Y-57183000D01*
X167237000Y-57183000D01*
X167237000Y-57203000D01*
G36*
X162157000Y-57203000D02*
X162177000Y-57203000D01*
X162177000Y-57457000D01*
X162157000Y-57457000D01*
X162157000Y-57477000D01*
X161903000Y-57477000D01*
X161903000Y-57457000D01*
X161883000Y-57457000D01*
X161883000Y-57203000D01*
X161903000Y-57203000D01*
X161903000Y-57183000D01*
X162157000Y-57183000D01*
X162157000Y-57203000D01*
X162157000Y-57203000D01*
G37*
X162157000Y-57203000D02*
X162177000Y-57203000D01*
X162177000Y-57457000D01*
X162157000Y-57457000D01*
X162157000Y-57477000D01*
X161903000Y-57477000D01*
X161903000Y-57457000D01*
X161883000Y-57457000D01*
X161883000Y-57203000D01*
X161903000Y-57203000D01*
X161903000Y-57183000D01*
X162157000Y-57183000D01*
X162157000Y-57203000D01*
G36*
X149457000Y-57203000D02*
X149477000Y-57203000D01*
X149477000Y-57457000D01*
X149457000Y-57457000D01*
X149457000Y-57477000D01*
X149203000Y-57477000D01*
X149203000Y-57457000D01*
X149183000Y-57457000D01*
X149183000Y-57203000D01*
X149203000Y-57203000D01*
X149203000Y-57183000D01*
X149457000Y-57183000D01*
X149457000Y-57203000D01*
X149457000Y-57203000D01*
G37*
X149457000Y-57203000D02*
X149477000Y-57203000D01*
X149477000Y-57457000D01*
X149457000Y-57457000D01*
X149457000Y-57477000D01*
X149203000Y-57477000D01*
X149203000Y-57457000D01*
X149183000Y-57457000D01*
X149183000Y-57203000D01*
X149203000Y-57203000D01*
X149203000Y-57183000D01*
X149457000Y-57183000D01*
X149457000Y-57203000D01*
G36*
X141837000Y-57203000D02*
X141857000Y-57203000D01*
X141857000Y-57457000D01*
X141837000Y-57457000D01*
X141837000Y-57477000D01*
X141583000Y-57477000D01*
X141583000Y-57457000D01*
X141563000Y-57457000D01*
X141563000Y-57203000D01*
X141583000Y-57203000D01*
X141583000Y-57183000D01*
X141837000Y-57183000D01*
X141837000Y-57203000D01*
X141837000Y-57203000D01*
G37*
X141837000Y-57203000D02*
X141857000Y-57203000D01*
X141857000Y-57457000D01*
X141837000Y-57457000D01*
X141837000Y-57477000D01*
X141583000Y-57477000D01*
X141583000Y-57457000D01*
X141563000Y-57457000D01*
X141563000Y-57203000D01*
X141583000Y-57203000D01*
X141583000Y-57183000D01*
X141837000Y-57183000D01*
X141837000Y-57203000D01*
G36*
X131677000Y-57203000D02*
X131697000Y-57203000D01*
X131697000Y-57457000D01*
X131677000Y-57457000D01*
X131677000Y-57477000D01*
X131423000Y-57477000D01*
X131423000Y-57457000D01*
X131403000Y-57457000D01*
X131403000Y-57203000D01*
X131423000Y-57203000D01*
X131423000Y-57183000D01*
X131677000Y-57183000D01*
X131677000Y-57203000D01*
X131677000Y-57203000D01*
G37*
X131677000Y-57203000D02*
X131697000Y-57203000D01*
X131697000Y-57457000D01*
X131677000Y-57457000D01*
X131677000Y-57477000D01*
X131423000Y-57477000D01*
X131423000Y-57457000D01*
X131403000Y-57457000D01*
X131403000Y-57203000D01*
X131423000Y-57203000D01*
X131423000Y-57183000D01*
X131677000Y-57183000D01*
X131677000Y-57203000D01*
M02*
